%TF.GenerationSoftware,KiCad,Pcbnew,8.0.0*%
%TF.CreationDate,2024-03-30T13:43:12+01:00*%
%TF.ProjectId,schematic-main_HCU,73636865-6d61-4746-9963-2d6d61696e5f,rev?*%
%TF.SameCoordinates,Original*%
%TF.FileFunction,Drillmap*%
%TF.FilePolarity,Positive*%
%FSLAX45Y45*%
G04 Gerber Fmt 4.5, Leading zero omitted, Abs format (unit mm)*
G04 Created by KiCad (PCBNEW 8.0.0) date 2024-03-30 13:43:12*
%MOMM*%
%LPD*%
G01*
G04 APERTURE LIST*
%ADD10C,0.050000*%
%ADD11C,0.200000*%
%ADD12C,0.100000*%
%ADD13C,0.152000*%
%ADD14C,0.180000*%
%ADD15C,0.190000*%
G04 APERTURE END LIST*
D10*
X9190000Y-15180000D02*
X4900000Y-15180000D01*
X4900000Y-15180000D02*
X4900000Y-5190000D01*
X9190000Y-14580000D02*
X10090000Y-14580000D01*
X10090000Y-15180000D02*
X14900000Y-15180000D01*
X10090000Y-15180000D02*
X10090000Y-14580000D01*
X14900000Y-5190000D02*
X14900000Y-15180000D01*
X14900000Y-5190000D02*
X4900000Y-5190000D01*
X9190000Y-15180000D02*
X9190000Y-14580000D01*
D11*
D12*
X6442950Y-10303600D02*
X6472950Y-10333600D01*
X6472950Y-10303600D02*
X6442950Y-10333600D01*
X6505000Y-11085000D02*
X6535000Y-11115000D01*
X6535000Y-11085000D02*
X6505000Y-11115000D01*
X6552044Y-14142544D02*
X6582044Y-14172544D01*
X6582044Y-14142544D02*
X6552044Y-14172544D01*
X6552044Y-14422544D02*
X6582044Y-14452544D01*
X6582044Y-14422544D02*
X6552044Y-14452544D01*
X6675000Y-6805000D02*
X6705000Y-6835000D01*
X6705000Y-6805000D02*
X6675000Y-6835000D01*
X6925000Y-9935000D02*
X6955000Y-9965000D01*
X6955000Y-9935000D02*
X6925000Y-9965000D01*
X6972499Y-6197500D02*
X7002499Y-6227500D01*
X7002499Y-6197500D02*
X6972499Y-6227500D01*
X7052499Y-6197500D02*
X7082499Y-6227500D01*
X7082499Y-6197500D02*
X7052499Y-6227500D01*
X7132500Y-6197500D02*
X7162500Y-6227500D01*
X7162500Y-6197500D02*
X7132500Y-6227500D01*
X7182500Y-7137500D02*
X7212500Y-7167500D01*
X7212500Y-7137500D02*
X7182500Y-7167500D01*
X7212500Y-6197500D02*
X7242500Y-6227500D01*
X7242500Y-6197500D02*
X7212500Y-6227500D01*
X7232500Y-14146250D02*
X7262500Y-14176250D01*
X7262500Y-14146250D02*
X7232500Y-14176250D01*
X7238750Y-14426250D02*
X7268750Y-14456250D01*
X7268750Y-14426250D02*
X7238750Y-14456250D01*
X7315000Y-10290000D02*
X7345000Y-10320000D01*
X7345000Y-10290000D02*
X7315000Y-10320000D01*
X7336250Y-6197500D02*
X7366250Y-6227500D01*
X7366250Y-6197500D02*
X7336250Y-6227500D01*
X7345000Y-7017500D02*
X7375000Y-7047500D01*
X7375000Y-7017500D02*
X7345000Y-7047500D01*
X7365000Y-13670000D02*
X7395000Y-13700000D01*
X7395000Y-13670000D02*
X7365000Y-13700000D01*
X7525000Y-13592500D02*
X7555000Y-13622500D01*
X7555000Y-13592500D02*
X7525000Y-13622500D01*
X7828750Y-7017500D02*
X7858750Y-7047500D01*
X7858750Y-7017500D02*
X7828750Y-7047500D01*
X7908750Y-14426250D02*
X7938750Y-14456250D01*
X7938750Y-14426250D02*
X7908750Y-14456250D01*
X7912500Y-14146250D02*
X7942500Y-14176250D01*
X7942500Y-14146250D02*
X7912500Y-14176250D01*
X8035000Y-13695000D02*
X8065000Y-13725000D01*
X8065000Y-13695000D02*
X8035000Y-13725000D01*
X8195000Y-13592500D02*
X8225000Y-13622500D01*
X8225000Y-13592500D02*
X8195000Y-13622500D01*
X9205000Y-13325000D02*
X9235000Y-13355000D01*
X9235000Y-13325000D02*
X9205000Y-13355000D01*
X9330000Y-13170000D02*
X9360000Y-13200000D01*
X9360000Y-13170000D02*
X9330000Y-13200000D01*
X9455000Y-13955000D02*
X9485000Y-13985000D01*
X9485000Y-13955000D02*
X9455000Y-13985000D01*
X9460000Y-13165000D02*
X9490000Y-13195000D01*
X9490000Y-13165000D02*
X9460000Y-13195000D01*
X9555000Y-6750000D02*
X9585000Y-6780000D01*
X9585000Y-6750000D02*
X9555000Y-6780000D01*
X9555000Y-6830000D02*
X9585000Y-6860000D01*
X9585000Y-6830000D02*
X9555000Y-6860000D01*
X9555000Y-6940000D02*
X9585000Y-6970000D01*
X9585000Y-6940000D02*
X9555000Y-6970000D01*
X9655000Y-14085000D02*
X9685000Y-14115000D01*
X9685000Y-14085000D02*
X9655000Y-14115000D01*
X9675000Y-6750000D02*
X9705000Y-6780000D01*
X9705000Y-6750000D02*
X9675000Y-6780000D01*
X9675000Y-6830000D02*
X9705000Y-6860000D01*
X9705000Y-6830000D02*
X9675000Y-6860000D01*
X9675000Y-6940000D02*
X9705000Y-6970000D01*
X9705000Y-6940000D02*
X9675000Y-6970000D01*
X9714700Y-11335001D02*
X9744700Y-11365001D01*
X9744700Y-11335001D02*
X9714700Y-11365001D01*
X9714940Y-11495000D02*
X9744940Y-11525000D01*
X9744940Y-11495000D02*
X9714940Y-11525000D01*
X9715000Y-11015000D02*
X9745000Y-11045000D01*
X9745000Y-11015000D02*
X9715000Y-11045000D01*
X9715000Y-11095000D02*
X9745000Y-11125000D01*
X9745000Y-11095000D02*
X9715000Y-11125000D01*
X9715000Y-11175001D02*
X9745000Y-11205001D01*
X9745000Y-11175001D02*
X9715000Y-11205001D01*
X9715000Y-11255001D02*
X9745000Y-11285001D01*
X9745000Y-11255001D02*
X9715000Y-11285001D01*
X9715100Y-11415000D02*
X9745100Y-11445000D01*
X9745100Y-11415000D02*
X9715100Y-11445000D01*
X9845000Y-13065000D02*
X9875000Y-13095000D01*
X9875000Y-13065000D02*
X9845000Y-13095000D01*
X9895000Y-10672500D02*
X9925000Y-10702500D01*
X9925000Y-10672500D02*
X9895000Y-10702500D01*
X9935000Y-10515000D02*
X9965000Y-10545000D01*
X9965000Y-10515000D02*
X9935000Y-10545000D01*
X10029949Y-10515000D02*
X10059949Y-10545000D01*
X10059949Y-10515000D02*
X10029949Y-10545000D01*
X10065000Y-12475000D02*
X10095000Y-12505000D01*
X10095000Y-12475000D02*
X10065000Y-12505000D01*
X10108049Y-10555000D02*
X10138049Y-10585000D01*
X10138049Y-10555000D02*
X10108049Y-10585000D01*
X10205000Y-9825000D02*
X10235000Y-9855000D01*
X10235000Y-9825000D02*
X10205000Y-9855000D01*
X10265000Y-14085000D02*
X10295000Y-14115000D01*
X10295000Y-14085000D02*
X10265000Y-14115000D01*
X10309289Y-11039289D02*
X10339289Y-11069289D01*
X10339289Y-11039289D02*
X10309289Y-11069289D01*
X10345000Y-14085000D02*
X10375000Y-14115000D01*
X10375000Y-14085000D02*
X10345000Y-14115000D01*
X10415000Y-12085000D02*
X10445000Y-12115000D01*
X10445000Y-12085000D02*
X10415000Y-12115000D01*
X10425000Y-10385000D02*
X10455000Y-10415000D01*
X10455000Y-10385000D02*
X10425000Y-10415000D01*
X10425000Y-10525000D02*
X10455000Y-10555000D01*
X10455000Y-10525000D02*
X10425000Y-10555000D01*
X10425000Y-10665000D02*
X10455000Y-10695000D01*
X10455000Y-10665000D02*
X10425000Y-10695000D01*
X10425000Y-10805000D02*
X10455000Y-10835000D01*
X10455000Y-10805000D02*
X10425000Y-10835000D01*
X10425000Y-14095000D02*
X10455000Y-14125000D01*
X10455000Y-14095000D02*
X10425000Y-14125000D01*
X10471250Y-11411250D02*
X10501250Y-11441250D01*
X10501250Y-11411250D02*
X10471250Y-11441250D01*
X10532500Y-12247500D02*
X10562500Y-12277500D01*
X10562500Y-12247500D02*
X10532500Y-12277500D01*
X10555000Y-11045000D02*
X10585000Y-11075000D01*
X10585000Y-11045000D02*
X10555000Y-11075000D01*
X10565000Y-10385000D02*
X10595000Y-10415000D01*
X10595000Y-10385000D02*
X10565000Y-10415000D01*
X10565000Y-10525000D02*
X10595000Y-10555000D01*
X10595000Y-10525000D02*
X10565000Y-10555000D01*
X10565000Y-10665000D02*
X10595000Y-10695000D01*
X10595000Y-10665000D02*
X10565000Y-10695000D01*
X10565000Y-10805000D02*
X10595000Y-10835000D01*
X10595000Y-10805000D02*
X10565000Y-10835000D01*
X10565000Y-11612500D02*
X10595000Y-11642500D01*
X10595000Y-11612500D02*
X10565000Y-11642500D01*
X10602500Y-12297500D02*
X10632500Y-12327500D01*
X10632500Y-12297500D02*
X10602500Y-12327500D01*
X10705000Y-10385000D02*
X10735000Y-10415000D01*
X10735000Y-10385000D02*
X10705000Y-10415000D01*
X10705000Y-10525000D02*
X10735000Y-10555000D01*
X10735000Y-10525000D02*
X10705000Y-10555000D01*
X10705000Y-10665000D02*
X10735000Y-10695000D01*
X10735000Y-10665000D02*
X10705000Y-10695000D01*
X10705000Y-10805000D02*
X10735000Y-10835000D01*
X10735000Y-10805000D02*
X10705000Y-10835000D01*
X10845000Y-10385000D02*
X10875000Y-10415000D01*
X10875000Y-10385000D02*
X10845000Y-10415000D01*
X10845000Y-10525000D02*
X10875000Y-10555000D01*
X10875000Y-10525000D02*
X10845000Y-10555000D01*
X10845000Y-10665000D02*
X10875000Y-10695000D01*
X10875000Y-10665000D02*
X10845000Y-10695000D01*
X10845000Y-10805000D02*
X10875000Y-10835000D01*
X10875000Y-10805000D02*
X10845000Y-10835000D01*
X10955000Y-11317500D02*
X10985000Y-11347500D01*
X10985000Y-11317500D02*
X10955000Y-11347500D01*
X11105000Y-10225000D02*
X11135000Y-10255000D01*
X11135000Y-10225000D02*
X11105000Y-10255000D01*
X11115000Y-10555000D02*
X11145000Y-10585000D01*
X11145000Y-10555000D02*
X11115000Y-10585000D01*
X11168960Y-10272970D02*
X11198960Y-10302970D01*
X11198960Y-10272970D02*
X11168960Y-10302970D01*
X11175000Y-10755000D02*
X11205000Y-10785000D01*
X11205000Y-10755000D02*
X11175000Y-10785000D01*
X11175000Y-10915000D02*
X11205000Y-10945000D01*
X11205000Y-10915000D02*
X11175000Y-10945000D01*
X11185000Y-10355000D02*
X11215000Y-10385000D01*
X11215000Y-10355000D02*
X11185000Y-10385000D01*
X11185000Y-10455000D02*
X11215000Y-10485000D01*
X11215000Y-10455000D02*
X11185000Y-10485000D01*
X11217500Y-9905000D02*
X11247500Y-9935000D01*
X11247500Y-9905000D02*
X11217500Y-9935000D01*
X11375000Y-10415000D02*
X11405000Y-10445000D01*
X11405000Y-10415000D02*
X11375000Y-10445000D01*
X11435000Y-12015000D02*
X11465000Y-12045000D01*
X11465000Y-12015000D02*
X11435000Y-12045000D01*
X11485000Y-10705000D02*
X11515000Y-10735000D01*
X11515000Y-10705000D02*
X11485000Y-10735000D01*
X11495000Y-11055000D02*
X11525000Y-11085000D01*
X11525000Y-11055000D02*
X11495000Y-11085000D01*
X11657500Y-10581500D02*
X11687500Y-10611500D01*
X11687500Y-10581500D02*
X11657500Y-10611500D01*
X11668562Y-10048312D02*
X11698562Y-10078312D01*
X11698562Y-10048312D02*
X11668562Y-10078312D01*
X11720435Y-10109215D02*
X11750435Y-10139215D01*
X11750435Y-10109215D02*
X11720435Y-10139215D01*
X11774619Y-10174619D02*
X11804619Y-10204619D01*
X11804619Y-10174619D02*
X11774619Y-10204619D01*
X11831188Y-10231188D02*
X11861188Y-10261188D01*
X11861188Y-10231188D02*
X11831188Y-10261188D01*
X11855000Y-11185000D02*
X11885000Y-11215000D01*
X11885000Y-11185000D02*
X11855000Y-11215000D01*
X11925000Y-10395000D02*
X11955000Y-10425000D01*
X11955000Y-10395000D02*
X11925000Y-10425000D01*
X12135000Y-12105000D02*
X12165000Y-12135000D01*
X12165000Y-12105000D02*
X12135000Y-12135000D01*
X12245000Y-10285000D02*
X12275000Y-10315000D01*
X12275000Y-10285000D02*
X12245000Y-10315000D01*
X12605000Y-12495000D02*
X12635000Y-12525000D01*
X12635000Y-12495000D02*
X12605000Y-12525000D01*
X12679520Y-13008595D02*
X12709520Y-13038595D01*
X12709520Y-13008595D02*
X12679520Y-13038595D01*
X12697810Y-10633425D02*
X12727810Y-10663425D01*
X12727810Y-10633425D02*
X12697810Y-10663425D01*
X12792810Y-10828425D02*
X12822810Y-10858425D01*
X12822810Y-10828425D02*
X12792810Y-10858425D01*
X12929520Y-13523595D02*
X12959520Y-13553595D01*
X12959520Y-13523595D02*
X12929520Y-13553595D01*
X12949520Y-12714845D02*
X12979520Y-12744845D01*
X12979520Y-12714845D02*
X12949520Y-12744845D01*
X13645000Y-13515000D02*
X13675000Y-13545000D01*
X13675000Y-13515000D02*
X13645000Y-13545000D01*
X6920000Y-6645000D02*
G75*
G02*
X6890000Y-6645000I-15000J0D01*
G01*
X6890000Y-6645000D02*
G75*
G02*
X6920000Y-6645000I15000J0D01*
G01*
X6920000Y-6755000D02*
G75*
G02*
X6890000Y-6755000I-15000J0D01*
G01*
X6890000Y-6755000D02*
G75*
G02*
X6920000Y-6755000I15000J0D01*
G01*
X6920000Y-6865000D02*
G75*
G02*
X6890000Y-6865000I-15000J0D01*
G01*
X6890000Y-6865000D02*
G75*
G02*
X6920000Y-6865000I15000J0D01*
G01*
X7030000Y-6645000D02*
G75*
G02*
X7000000Y-6645000I-15000J0D01*
G01*
X7000000Y-6645000D02*
G75*
G02*
X7030000Y-6645000I15000J0D01*
G01*
X7030000Y-6755000D02*
G75*
G02*
X7000000Y-6755000I-15000J0D01*
G01*
X7000000Y-6755000D02*
G75*
G02*
X7030000Y-6755000I15000J0D01*
G01*
X7030000Y-6865000D02*
G75*
G02*
X7000000Y-6865000I-15000J0D01*
G01*
X7000000Y-6865000D02*
G75*
G02*
X7030000Y-6865000I15000J0D01*
G01*
X7140000Y-6645000D02*
G75*
G02*
X7110000Y-6645000I-15000J0D01*
G01*
X7110000Y-6645000D02*
G75*
G02*
X7140000Y-6645000I15000J0D01*
G01*
X7140000Y-6755000D02*
G75*
G02*
X7110000Y-6755000I-15000J0D01*
G01*
X7110000Y-6755000D02*
G75*
G02*
X7140000Y-6755000I15000J0D01*
G01*
X7140000Y-6865000D02*
G75*
G02*
X7110000Y-6865000I-15000J0D01*
G01*
X7110000Y-6865000D02*
G75*
G02*
X7140000Y-6865000I15000J0D01*
G01*
X7250000Y-6645000D02*
G75*
G02*
X7220000Y-6645000I-15000J0D01*
G01*
X7220000Y-6645000D02*
G75*
G02*
X7250000Y-6645000I15000J0D01*
G01*
X7250000Y-6755000D02*
G75*
G02*
X7220000Y-6755000I-15000J0D01*
G01*
X7220000Y-6755000D02*
G75*
G02*
X7250000Y-6755000I15000J0D01*
G01*
X7250000Y-6865000D02*
G75*
G02*
X7220000Y-6865000I-15000J0D01*
G01*
X7220000Y-6865000D02*
G75*
G02*
X7250000Y-6865000I15000J0D01*
G01*
X7360000Y-6645000D02*
G75*
G02*
X7330000Y-6645000I-15000J0D01*
G01*
X7330000Y-6645000D02*
G75*
G02*
X7360000Y-6645000I15000J0D01*
G01*
X7360000Y-6755000D02*
G75*
G02*
X7330000Y-6755000I-15000J0D01*
G01*
X7330000Y-6755000D02*
G75*
G02*
X7360000Y-6755000I15000J0D01*
G01*
X7360000Y-6865000D02*
G75*
G02*
X7330000Y-6865000I-15000J0D01*
G01*
X7330000Y-6865000D02*
G75*
G02*
X7360000Y-6865000I15000J0D01*
G01*
X12068420Y-7099200D02*
X12068420Y-7177200D01*
X12029420Y-7138200D02*
X12107420Y-7138200D01*
X12322420Y-7099200D02*
X12322420Y-7177200D01*
X12283420Y-7138200D02*
X12361420Y-7138200D01*
X12576420Y-7099200D02*
X12576420Y-7177200D01*
X12537420Y-7138200D02*
X12615420Y-7138200D01*
X5223285Y-12918284D02*
X5223285Y-12861715D01*
X5166716Y-12861715D01*
X5166716Y-12918284D01*
X5223285Y-12918284D01*
X5468285Y-8308284D02*
X5468285Y-8251715D01*
X5411716Y-8251715D01*
X5411716Y-8308284D01*
X5468285Y-8308284D01*
X5478285Y-5948284D02*
X5478285Y-5891715D01*
X5421716Y-5891715D01*
X5421716Y-5948284D01*
X5478285Y-5948284D01*
X5528285Y-9228285D02*
X5528285Y-9171716D01*
X5471716Y-9171716D01*
X5471716Y-9228285D01*
X5528285Y-9228285D01*
X5628284Y-11288284D02*
X5628284Y-11231715D01*
X5571716Y-11231715D01*
X5571716Y-11288284D01*
X5628284Y-11288284D01*
X5878284Y-5428285D02*
X5878284Y-5371716D01*
X5821715Y-5371716D01*
X5821715Y-5428285D01*
X5878284Y-5428285D01*
X5908284Y-14228284D02*
X5908284Y-14171715D01*
X5851715Y-14171715D01*
X5851715Y-14228284D01*
X5908284Y-14228284D01*
X5908284Y-14658284D02*
X5908284Y-14601715D01*
X5851715Y-14601715D01*
X5851715Y-14658284D01*
X5908284Y-14658284D01*
X6158284Y-7068284D02*
X6158284Y-7011715D01*
X6101715Y-7011715D01*
X6101715Y-7068284D01*
X6158284Y-7068284D01*
X6198284Y-6523241D02*
X6198284Y-6466672D01*
X6141715Y-6466672D01*
X6141715Y-6523241D01*
X6198284Y-6523241D01*
X6375784Y-13998284D02*
X6375784Y-13941715D01*
X6319215Y-13941715D01*
X6319215Y-13998284D01*
X6375784Y-13998284D01*
X6658284Y-5778284D02*
X6658284Y-5721715D01*
X6601715Y-5721715D01*
X6601715Y-5778284D01*
X6658284Y-5778284D01*
X6748284Y-10128285D02*
X6748284Y-10071716D01*
X6691715Y-10071716D01*
X6691715Y-10128285D01*
X6748284Y-10128285D01*
X6783284Y-7283284D02*
X6783284Y-7226715D01*
X6726715Y-7226715D01*
X6726715Y-7283284D01*
X6783284Y-7283284D01*
X7018284Y-11828284D02*
X7018284Y-11771715D01*
X6961715Y-11771715D01*
X6961715Y-11828284D01*
X7018284Y-11828284D01*
X7168284Y-9298285D02*
X7168284Y-9241716D01*
X7111715Y-9241716D01*
X7111715Y-9298285D01*
X7168284Y-9298285D01*
X7538284Y-8688285D02*
X7538284Y-8631716D01*
X7481715Y-8631716D01*
X7481715Y-8688285D01*
X7538284Y-8688285D01*
X7688284Y-7698284D02*
X7688284Y-7641715D01*
X7631715Y-7641715D01*
X7631715Y-7698284D01*
X7688284Y-7698284D01*
X7988284Y-10878285D02*
X7988284Y-10821716D01*
X7931715Y-10821716D01*
X7931715Y-10878285D01*
X7988284Y-10878285D01*
X8008284Y-5768284D02*
X8008284Y-5711715D01*
X7951715Y-5711715D01*
X7951715Y-5768284D01*
X8008284Y-5768284D01*
X8048284Y-9848285D02*
X8048284Y-9791716D01*
X7991715Y-9791716D01*
X7991715Y-9848285D01*
X8048284Y-9848285D01*
X8078284Y-12263284D02*
X8078284Y-12206715D01*
X8021715Y-12206715D01*
X8021715Y-12263284D01*
X8078284Y-12263284D01*
X8128284Y-11478284D02*
X8128284Y-11421715D01*
X8071715Y-11421715D01*
X8071715Y-11478284D01*
X8128284Y-11478284D01*
X8523285Y-12988284D02*
X8523285Y-12931715D01*
X8466716Y-12931715D01*
X8466716Y-12988284D01*
X8523285Y-12988284D01*
X8568285Y-6888284D02*
X8568285Y-6831715D01*
X8511716Y-6831715D01*
X8511716Y-6888284D01*
X8568285Y-6888284D01*
X8633285Y-14058284D02*
X8633285Y-14001715D01*
X8576716Y-14001715D01*
X8576716Y-14058284D01*
X8633285Y-14058284D01*
X8838285Y-14798284D02*
X8838285Y-14741715D01*
X8781716Y-14741715D01*
X8781716Y-14798284D01*
X8838285Y-14798284D01*
X9078285Y-11428284D02*
X9078285Y-11371715D01*
X9021716Y-11371715D01*
X9021716Y-11428284D01*
X9078285Y-11428284D01*
X9203285Y-14203284D02*
X9203285Y-14146715D01*
X9146716Y-14146715D01*
X9146716Y-14203284D01*
X9203285Y-14203284D01*
X9348285Y-7468284D02*
X9348285Y-7411715D01*
X9291716Y-7411715D01*
X9291716Y-7468284D01*
X9348285Y-7468284D01*
X9430785Y-10065785D02*
X9430785Y-10009216D01*
X9374216Y-10009216D01*
X9374216Y-10065785D01*
X9430785Y-10065785D01*
X9618285Y-9208285D02*
X9618285Y-9151716D01*
X9561716Y-9151716D01*
X9561716Y-9208285D01*
X9618285Y-9208285D01*
X9648285Y-8358284D02*
X9648285Y-8301715D01*
X9591716Y-8301715D01*
X9591716Y-8358284D01*
X9648285Y-8358284D01*
X9668285Y-6023284D02*
X9668285Y-5966715D01*
X9611716Y-5966715D01*
X9611716Y-6023284D01*
X9668285Y-6023284D01*
X9688285Y-12408284D02*
X9688285Y-12351715D01*
X9631716Y-12351715D01*
X9631716Y-12408284D01*
X9688285Y-12408284D01*
X9698285Y-10648285D02*
X9698285Y-10591716D01*
X9641716Y-10591716D01*
X9641716Y-10648285D01*
X9698285Y-10648285D01*
X9958285Y-14318284D02*
X9958285Y-14261715D01*
X9901716Y-14261715D01*
X9901716Y-14318284D01*
X9958285Y-14318284D01*
X10288285Y-9478285D02*
X10288285Y-9421716D01*
X10231716Y-9421716D01*
X10231716Y-9478285D01*
X10288285Y-9478285D01*
X10398285Y-13028284D02*
X10398285Y-12971715D01*
X10341716Y-12971715D01*
X10341716Y-13028284D01*
X10398285Y-13028284D01*
X10418285Y-13658284D02*
X10418285Y-13601715D01*
X10361716Y-13601715D01*
X10361716Y-13658284D01*
X10418285Y-13658284D01*
X10523285Y-6488284D02*
X10523285Y-6431715D01*
X10466716Y-6431715D01*
X10466716Y-6488284D01*
X10523285Y-6488284D01*
X10548285Y-14778284D02*
X10548285Y-14721715D01*
X10491716Y-14721715D01*
X10491716Y-14778284D01*
X10548285Y-14778284D01*
X10598285Y-9078285D02*
X10598285Y-9021716D01*
X10541716Y-9021716D01*
X10541716Y-9078285D01*
X10598285Y-9078285D01*
X10718285Y-8618285D02*
X10718285Y-8561716D01*
X10661716Y-8561716D01*
X10661716Y-8618285D01*
X10718285Y-8618285D01*
X10888285Y-7088284D02*
X10888285Y-7031715D01*
X10831716Y-7031715D01*
X10831716Y-7088284D01*
X10888285Y-7088284D01*
X11028285Y-11718284D02*
X11028285Y-11661715D01*
X10971716Y-11661715D01*
X10971716Y-11718284D01*
X11028285Y-11718284D01*
X11108285Y-9078285D02*
X11108285Y-9021716D01*
X11051716Y-9021716D01*
X11051716Y-9078285D01*
X11108285Y-9078285D01*
X11178285Y-9598285D02*
X11178285Y-9541716D01*
X11121716Y-9541716D01*
X11121716Y-9598285D01*
X11178285Y-9598285D01*
X11458284Y-9428285D02*
X11458284Y-9371716D01*
X11401715Y-9371716D01*
X11401715Y-9428285D01*
X11458284Y-9428285D01*
X11808284Y-11688284D02*
X11808284Y-11631715D01*
X11751715Y-11631715D01*
X11751715Y-11688284D01*
X11808284Y-11688284D01*
X11918284Y-8608285D02*
X11918284Y-8551716D01*
X11861715Y-8551716D01*
X11861715Y-8608285D01*
X11918284Y-8608285D01*
X11933284Y-6768284D02*
X11933284Y-6711715D01*
X11876715Y-6711715D01*
X11876715Y-6768284D01*
X11933284Y-6768284D01*
X12048284Y-9198285D02*
X12048284Y-9141716D01*
X11991715Y-9141716D01*
X11991715Y-9198285D01*
X12048284Y-9198285D01*
X12088284Y-14538284D02*
X12088284Y-14481715D01*
X12031715Y-14481715D01*
X12031715Y-14538284D01*
X12088284Y-14538284D01*
X12432804Y-12756879D02*
X12432804Y-12700310D01*
X12376235Y-12700310D01*
X12376235Y-12756879D01*
X12432804Y-12756879D01*
X12488284Y-5568285D02*
X12488284Y-5511716D01*
X12431715Y-5511716D01*
X12431715Y-5568285D01*
X12488284Y-5568285D01*
X12702611Y-9950761D02*
X12702611Y-9894192D01*
X12646042Y-9894192D01*
X12646042Y-9950761D01*
X12702611Y-9950761D01*
X12728284Y-12038284D02*
X12728284Y-11981715D01*
X12671715Y-11981715D01*
X12671715Y-12038284D01*
X12728284Y-12038284D01*
X12738284Y-13868284D02*
X12738284Y-13811715D01*
X12681715Y-13811715D01*
X12681715Y-13868284D01*
X12738284Y-13868284D01*
X12753284Y-6888284D02*
X12753284Y-6831715D01*
X12696715Y-6831715D01*
X12696715Y-6888284D01*
X12753284Y-6888284D01*
X13078284Y-8088284D02*
X13078284Y-8031715D01*
X13021715Y-8031715D01*
X13021715Y-8088284D01*
X13078284Y-8088284D01*
X13228284Y-7488284D02*
X13228284Y-7431715D01*
X13171715Y-7431715D01*
X13171715Y-7488284D01*
X13228284Y-7488284D01*
X13308284Y-12708284D02*
X13308284Y-12651715D01*
X13251715Y-12651715D01*
X13251715Y-12708284D01*
X13308284Y-12708284D01*
X13498284Y-7628284D02*
X13498284Y-7571715D01*
X13441715Y-7571715D01*
X13441715Y-7628284D01*
X13498284Y-7628284D01*
X13758284Y-8968285D02*
X13758284Y-8911716D01*
X13701715Y-8911716D01*
X13701715Y-8968285D01*
X13758284Y-8968285D01*
X13868284Y-5528285D02*
X13868284Y-5471716D01*
X13811715Y-5471716D01*
X13811715Y-5528285D01*
X13868284Y-5528285D01*
X13908284Y-6338284D02*
X13908284Y-6281715D01*
X13851715Y-6281715D01*
X13851715Y-6338284D01*
X13908284Y-6338284D01*
X14453284Y-11093285D02*
X14453284Y-11036716D01*
X14396715Y-11036716D01*
X14396715Y-11093285D01*
X14453284Y-11093285D01*
X14498284Y-10038285D02*
X14498284Y-9981716D01*
X14441715Y-9981716D01*
X14441715Y-10038285D01*
X14498284Y-10038285D01*
X14593284Y-12143284D02*
X14593284Y-12086715D01*
X14536715Y-12086715D01*
X14536715Y-12143284D01*
X14593284Y-12143284D01*
X8430000Y-8230000D02*
X8470000Y-8190000D01*
X8430000Y-8150000D01*
X8390000Y-8190000D01*
X8430000Y-8230000D01*
X8430000Y-8705000D02*
X8470000Y-8665000D01*
X8430000Y-8625000D01*
X8390000Y-8665000D01*
X8430000Y-8705000D01*
X13740000Y-13970000D02*
X13780000Y-13930000D01*
X13740000Y-13890000D01*
X13700000Y-13930000D01*
X13740000Y-13970000D01*
X13740000Y-14470000D02*
X13780000Y-14430000D01*
X13740000Y-14390000D01*
X13700000Y-14430000D01*
X13740000Y-14470000D01*
X14140000Y-6670000D02*
X14180000Y-6630000D01*
X14140000Y-6590000D01*
X14100000Y-6630000D01*
X14140000Y-6670000D01*
X14150000Y-6230000D02*
X14190000Y-6190000D01*
X14150000Y-6150000D01*
X14110000Y-6190000D01*
X14150000Y-6230000D01*
X14600000Y-6230000D02*
X14640000Y-6190000D01*
X14600000Y-6150000D01*
X14560000Y-6190000D01*
X14600000Y-6230000D01*
X14600000Y-6670000D02*
X14640000Y-6630000D01*
X14600000Y-6590000D01*
X14560000Y-6630000D01*
X14600000Y-6670000D01*
X14600000Y-7050000D02*
X14640000Y-7010000D01*
X14600000Y-6970000D01*
X14560000Y-7010000D01*
X14600000Y-7050000D01*
X14600000Y-7430000D02*
X14640000Y-7390000D01*
X14600000Y-7350000D01*
X14560000Y-7390000D01*
X14600000Y-7430000D01*
X14600000Y-7790000D02*
X14640000Y-7750000D01*
X14600000Y-7710000D01*
X14560000Y-7750000D01*
X14600000Y-7790000D01*
X14600000Y-8230000D02*
X14640000Y-8190000D01*
X14600000Y-8150000D01*
X14560000Y-8190000D01*
X14600000Y-8230000D01*
D13*
X9002000Y-14504000D02*
X9154000Y-14656000D01*
X9154000Y-14504000D02*
X9002000Y-14656000D01*
X9154000Y-14580000D02*
G75*
G02*
X9002000Y-14580000I-76000J0D01*
G01*
X9002000Y-14580000D02*
G75*
G02*
X9154000Y-14580000I76000J0D01*
G01*
X10126000Y-14504000D02*
X10278000Y-14656000D01*
X10278000Y-14504000D02*
X10126000Y-14656000D01*
X10278000Y-14580000D02*
G75*
G02*
X10126000Y-14580000I-76000J0D01*
G01*
X10126000Y-14580000D02*
G75*
G02*
X10278000Y-14580000I76000J0D01*
G01*
D14*
X6200000Y-12230000D02*
X6380000Y-12410000D01*
X6380000Y-12230000D02*
X6200000Y-12410000D01*
X6290000Y-12230000D02*
X6290000Y-12410000D01*
X6200000Y-12320000D02*
X6380000Y-12320000D01*
X6212190Y-13245000D02*
X6392190Y-13425000D01*
X6392190Y-13245000D02*
X6212190Y-13425000D01*
X6302190Y-13245000D02*
X6302190Y-13425000D01*
X6212190Y-13335000D02*
X6392190Y-13335000D01*
X6237500Y-7790000D02*
X6417500Y-7970000D01*
X6417500Y-7790000D02*
X6237500Y-7970000D01*
X6327500Y-7790000D02*
X6327500Y-7970000D01*
X6237500Y-7880000D02*
X6417500Y-7880000D01*
X6237500Y-8570000D02*
X6417500Y-8750000D01*
X6417500Y-8570000D02*
X6237500Y-8750000D01*
X6327500Y-8570000D02*
X6327500Y-8750000D01*
X6237500Y-8660000D02*
X6417500Y-8660000D01*
X6750000Y-12230000D02*
X6930000Y-12410000D01*
X6930000Y-12230000D02*
X6750000Y-12410000D01*
X6840000Y-12230000D02*
X6840000Y-12410000D01*
X6750000Y-12320000D02*
X6930000Y-12320000D01*
X6762190Y-13245000D02*
X6942190Y-13425000D01*
X6942190Y-13245000D02*
X6762190Y-13425000D01*
X6852190Y-13245000D02*
X6852190Y-13425000D01*
X6762190Y-13335000D02*
X6942190Y-13335000D01*
X6787500Y-7790000D02*
X6967500Y-7970000D01*
X6967500Y-7790000D02*
X6787500Y-7970000D01*
X6877500Y-7790000D02*
X6877500Y-7970000D01*
X6787500Y-7880000D02*
X6967500Y-7880000D01*
X6787500Y-8570000D02*
X6967500Y-8750000D01*
X6967500Y-8570000D02*
X6787500Y-8750000D01*
X6877500Y-8570000D02*
X6877500Y-8750000D01*
X6787500Y-8660000D02*
X6967500Y-8660000D01*
X10981575Y-13152810D02*
X11161575Y-13332810D01*
X11161575Y-13152810D02*
X10981575Y-13332810D01*
X11071575Y-13152810D02*
X11071575Y-13332810D01*
X10981575Y-13242810D02*
X11161575Y-13242810D01*
X10981575Y-13702810D02*
X11161575Y-13882810D01*
X11161575Y-13702810D02*
X10981575Y-13882810D01*
X11071575Y-13702810D02*
X11071575Y-13882810D01*
X10981575Y-13792810D02*
X11161575Y-13792810D01*
X11401575Y-13152810D02*
X11581575Y-13332810D01*
X11581575Y-13152810D02*
X11401575Y-13332810D01*
X11491575Y-13152810D02*
X11491575Y-13332810D01*
X11401575Y-13242810D02*
X11581575Y-13242810D01*
X11401575Y-13702810D02*
X11581575Y-13882810D01*
X11581575Y-13702810D02*
X11401575Y-13882810D01*
X11491575Y-13702810D02*
X11491575Y-13882810D01*
X11401575Y-13792810D02*
X11581575Y-13792810D01*
X12857810Y-11423425D02*
X13037810Y-11603425D01*
X13037810Y-11423425D02*
X12857810Y-11603425D01*
X12947810Y-11423425D02*
X12947810Y-11603425D01*
X12857810Y-11513425D02*
X13037810Y-11513425D01*
X12857810Y-11843425D02*
X13037810Y-12023425D01*
X13037810Y-11843425D02*
X12857810Y-12023425D01*
X12947810Y-11843425D02*
X12947810Y-12023425D01*
X12857810Y-11933425D02*
X13037810Y-11933425D01*
X13407810Y-11423425D02*
X13587810Y-11603425D01*
X13587810Y-11423425D02*
X13407810Y-11603425D01*
X13497810Y-11423425D02*
X13497810Y-11603425D01*
X13407810Y-11513425D02*
X13587810Y-11513425D01*
X13407810Y-11843425D02*
X13587810Y-12023425D01*
X13587810Y-11843425D02*
X13407810Y-12023425D01*
X13497810Y-11843425D02*
X13497810Y-12023425D01*
X13407810Y-11933425D02*
X13587810Y-11933425D01*
X13426520Y-9486850D02*
X13606520Y-9666850D01*
X13606520Y-9486850D02*
X13426520Y-9666850D01*
X13516520Y-9486850D02*
X13516520Y-9666850D01*
X13426520Y-9576850D02*
X13606520Y-9576850D01*
X13426520Y-9906850D02*
X13606520Y-10086850D01*
X13606520Y-9906850D02*
X13426520Y-10086850D01*
X13516520Y-9906850D02*
X13516520Y-10086850D01*
X13426520Y-9996850D02*
X13606520Y-9996850D01*
X13426520Y-10326850D02*
X13606520Y-10506850D01*
X13606520Y-10326850D02*
X13426520Y-10506850D01*
X13516520Y-10326850D02*
X13516520Y-10506850D01*
X13426520Y-10416850D02*
X13606520Y-10416850D01*
D15*
X8983000Y-14885000D02*
X9173000Y-15075000D01*
X9173000Y-14885000D02*
X8983000Y-15075000D01*
X9145176Y-15047176D02*
X9145176Y-14912824D01*
X9010824Y-14912824D01*
X9010824Y-15047176D01*
X9145176Y-15047176D01*
X10107000Y-14885000D02*
X10297000Y-15075000D01*
X10297000Y-14885000D02*
X10107000Y-15075000D01*
X10269176Y-15047176D02*
X10269176Y-14912824D01*
X10134824Y-14912824D01*
X10134824Y-15047176D01*
X10269176Y-15047176D01*
D11*
X5158277Y-15493984D02*
X5158277Y-15293984D01*
X5158277Y-15293984D02*
X5205896Y-15293984D01*
X5205896Y-15293984D02*
X5234467Y-15303508D01*
X5234467Y-15303508D02*
X5253515Y-15322555D01*
X5253515Y-15322555D02*
X5263039Y-15341603D01*
X5263039Y-15341603D02*
X5272563Y-15379698D01*
X5272563Y-15379698D02*
X5272563Y-15408269D01*
X5272563Y-15408269D02*
X5263039Y-15446365D01*
X5263039Y-15446365D02*
X5253515Y-15465412D01*
X5253515Y-15465412D02*
X5234467Y-15484460D01*
X5234467Y-15484460D02*
X5205896Y-15493984D01*
X5205896Y-15493984D02*
X5158277Y-15493984D01*
X5358277Y-15493984D02*
X5358277Y-15360650D01*
X5358277Y-15398746D02*
X5367801Y-15379698D01*
X5367801Y-15379698D02*
X5377324Y-15370174D01*
X5377324Y-15370174D02*
X5396372Y-15360650D01*
X5396372Y-15360650D02*
X5415420Y-15360650D01*
X5482086Y-15493984D02*
X5482086Y-15360650D01*
X5482086Y-15293984D02*
X5472563Y-15303508D01*
X5472563Y-15303508D02*
X5482086Y-15313031D01*
X5482086Y-15313031D02*
X5491610Y-15303508D01*
X5491610Y-15303508D02*
X5482086Y-15293984D01*
X5482086Y-15293984D02*
X5482086Y-15313031D01*
X5605896Y-15493984D02*
X5586848Y-15484460D01*
X5586848Y-15484460D02*
X5577324Y-15465412D01*
X5577324Y-15465412D02*
X5577324Y-15293984D01*
X5710658Y-15493984D02*
X5691610Y-15484460D01*
X5691610Y-15484460D02*
X5682086Y-15465412D01*
X5682086Y-15465412D02*
X5682086Y-15293984D01*
X5939229Y-15493984D02*
X5939229Y-15293984D01*
X5939229Y-15293984D02*
X6005896Y-15436841D01*
X6005896Y-15436841D02*
X6072562Y-15293984D01*
X6072562Y-15293984D02*
X6072562Y-15493984D01*
X6253515Y-15493984D02*
X6253515Y-15389222D01*
X6253515Y-15389222D02*
X6243991Y-15370174D01*
X6243991Y-15370174D02*
X6224943Y-15360650D01*
X6224943Y-15360650D02*
X6186848Y-15360650D01*
X6186848Y-15360650D02*
X6167801Y-15370174D01*
X6253515Y-15484460D02*
X6234467Y-15493984D01*
X6234467Y-15493984D02*
X6186848Y-15493984D01*
X6186848Y-15493984D02*
X6167801Y-15484460D01*
X6167801Y-15484460D02*
X6158277Y-15465412D01*
X6158277Y-15465412D02*
X6158277Y-15446365D01*
X6158277Y-15446365D02*
X6167801Y-15427317D01*
X6167801Y-15427317D02*
X6186848Y-15417793D01*
X6186848Y-15417793D02*
X6234467Y-15417793D01*
X6234467Y-15417793D02*
X6253515Y-15408269D01*
X6348753Y-15360650D02*
X6348753Y-15560650D01*
X6348753Y-15370174D02*
X6367801Y-15360650D01*
X6367801Y-15360650D02*
X6405896Y-15360650D01*
X6405896Y-15360650D02*
X6424943Y-15370174D01*
X6424943Y-15370174D02*
X6434467Y-15379698D01*
X6434467Y-15379698D02*
X6443991Y-15398746D01*
X6443991Y-15398746D02*
X6443991Y-15455888D01*
X6443991Y-15455888D02*
X6434467Y-15474936D01*
X6434467Y-15474936D02*
X6424943Y-15484460D01*
X6424943Y-15484460D02*
X6405896Y-15493984D01*
X6405896Y-15493984D02*
X6367801Y-15493984D01*
X6367801Y-15493984D02*
X6348753Y-15484460D01*
X6529705Y-15474936D02*
X6539229Y-15484460D01*
X6539229Y-15484460D02*
X6529705Y-15493984D01*
X6529705Y-15493984D02*
X6520182Y-15484460D01*
X6520182Y-15484460D02*
X6529705Y-15474936D01*
X6529705Y-15474936D02*
X6529705Y-15493984D01*
X6529705Y-15370174D02*
X6539229Y-15379698D01*
X6539229Y-15379698D02*
X6529705Y-15389222D01*
X6529705Y-15389222D02*
X6520182Y-15379698D01*
X6520182Y-15379698D02*
X6529705Y-15370174D01*
X6529705Y-15370174D02*
X6529705Y-15389222D01*
D12*
X4867500Y-15807500D02*
X4897500Y-15837500D01*
X4897500Y-15807500D02*
X4867500Y-15837500D01*
D11*
X5196372Y-15713984D02*
X5215420Y-15713984D01*
X5215420Y-15713984D02*
X5234467Y-15723508D01*
X5234467Y-15723508D02*
X5243991Y-15733031D01*
X5243991Y-15733031D02*
X5253515Y-15752079D01*
X5253515Y-15752079D02*
X5263039Y-15790174D01*
X5263039Y-15790174D02*
X5263039Y-15837793D01*
X5263039Y-15837793D02*
X5253515Y-15875888D01*
X5253515Y-15875888D02*
X5243991Y-15894936D01*
X5243991Y-15894936D02*
X5234467Y-15904460D01*
X5234467Y-15904460D02*
X5215420Y-15913984D01*
X5215420Y-15913984D02*
X5196372Y-15913984D01*
X5196372Y-15913984D02*
X5177324Y-15904460D01*
X5177324Y-15904460D02*
X5167801Y-15894936D01*
X5167801Y-15894936D02*
X5158277Y-15875888D01*
X5158277Y-15875888D02*
X5148753Y-15837793D01*
X5148753Y-15837793D02*
X5148753Y-15790174D01*
X5148753Y-15790174D02*
X5158277Y-15752079D01*
X5158277Y-15752079D02*
X5167801Y-15733031D01*
X5167801Y-15733031D02*
X5177324Y-15723508D01*
X5177324Y-15723508D02*
X5196372Y-15713984D01*
X5348753Y-15894936D02*
X5358277Y-15904460D01*
X5358277Y-15904460D02*
X5348753Y-15913984D01*
X5348753Y-15913984D02*
X5339229Y-15904460D01*
X5339229Y-15904460D02*
X5348753Y-15894936D01*
X5348753Y-15894936D02*
X5348753Y-15913984D01*
X5424944Y-15713984D02*
X5548753Y-15713984D01*
X5548753Y-15713984D02*
X5482086Y-15790174D01*
X5482086Y-15790174D02*
X5510658Y-15790174D01*
X5510658Y-15790174D02*
X5529705Y-15799698D01*
X5529705Y-15799698D02*
X5539229Y-15809222D01*
X5539229Y-15809222D02*
X5548753Y-15828269D01*
X5548753Y-15828269D02*
X5548753Y-15875888D01*
X5548753Y-15875888D02*
X5539229Y-15894936D01*
X5539229Y-15894936D02*
X5529705Y-15904460D01*
X5529705Y-15904460D02*
X5510658Y-15913984D01*
X5510658Y-15913984D02*
X5453515Y-15913984D01*
X5453515Y-15913984D02*
X5434467Y-15904460D01*
X5434467Y-15904460D02*
X5424944Y-15894936D01*
X5672562Y-15713984D02*
X5691610Y-15713984D01*
X5691610Y-15713984D02*
X5710658Y-15723508D01*
X5710658Y-15723508D02*
X5720182Y-15733031D01*
X5720182Y-15733031D02*
X5729705Y-15752079D01*
X5729705Y-15752079D02*
X5739229Y-15790174D01*
X5739229Y-15790174D02*
X5739229Y-15837793D01*
X5739229Y-15837793D02*
X5729705Y-15875888D01*
X5729705Y-15875888D02*
X5720182Y-15894936D01*
X5720182Y-15894936D02*
X5710658Y-15904460D01*
X5710658Y-15904460D02*
X5691610Y-15913984D01*
X5691610Y-15913984D02*
X5672562Y-15913984D01*
X5672562Y-15913984D02*
X5653515Y-15904460D01*
X5653515Y-15904460D02*
X5643991Y-15894936D01*
X5643991Y-15894936D02*
X5634467Y-15875888D01*
X5634467Y-15875888D02*
X5624943Y-15837793D01*
X5624943Y-15837793D02*
X5624943Y-15790174D01*
X5624943Y-15790174D02*
X5634467Y-15752079D01*
X5634467Y-15752079D02*
X5643991Y-15733031D01*
X5643991Y-15733031D02*
X5653515Y-15723508D01*
X5653515Y-15723508D02*
X5672562Y-15713984D01*
X5863039Y-15713984D02*
X5882086Y-15713984D01*
X5882086Y-15713984D02*
X5901134Y-15723508D01*
X5901134Y-15723508D02*
X5910658Y-15733031D01*
X5910658Y-15733031D02*
X5920182Y-15752079D01*
X5920182Y-15752079D02*
X5929705Y-15790174D01*
X5929705Y-15790174D02*
X5929705Y-15837793D01*
X5929705Y-15837793D02*
X5920182Y-15875888D01*
X5920182Y-15875888D02*
X5910658Y-15894936D01*
X5910658Y-15894936D02*
X5901134Y-15904460D01*
X5901134Y-15904460D02*
X5882086Y-15913984D01*
X5882086Y-15913984D02*
X5863039Y-15913984D01*
X5863039Y-15913984D02*
X5843991Y-15904460D01*
X5843991Y-15904460D02*
X5834467Y-15894936D01*
X5834467Y-15894936D02*
X5824943Y-15875888D01*
X5824943Y-15875888D02*
X5815420Y-15837793D01*
X5815420Y-15837793D02*
X5815420Y-15790174D01*
X5815420Y-15790174D02*
X5824943Y-15752079D01*
X5824943Y-15752079D02*
X5834467Y-15733031D01*
X5834467Y-15733031D02*
X5843991Y-15723508D01*
X5843991Y-15723508D02*
X5863039Y-15713984D01*
X6015420Y-15913984D02*
X6015420Y-15780650D01*
X6015420Y-15799698D02*
X6024943Y-15790174D01*
X6024943Y-15790174D02*
X6043991Y-15780650D01*
X6043991Y-15780650D02*
X6072563Y-15780650D01*
X6072563Y-15780650D02*
X6091610Y-15790174D01*
X6091610Y-15790174D02*
X6101134Y-15809222D01*
X6101134Y-15809222D02*
X6101134Y-15913984D01*
X6101134Y-15809222D02*
X6110658Y-15790174D01*
X6110658Y-15790174D02*
X6129705Y-15780650D01*
X6129705Y-15780650D02*
X6158277Y-15780650D01*
X6158277Y-15780650D02*
X6177324Y-15790174D01*
X6177324Y-15790174D02*
X6186848Y-15809222D01*
X6186848Y-15809222D02*
X6186848Y-15913984D01*
X6282086Y-15913984D02*
X6282086Y-15780650D01*
X6282086Y-15799698D02*
X6291610Y-15790174D01*
X6291610Y-15790174D02*
X6310658Y-15780650D01*
X6310658Y-15780650D02*
X6339229Y-15780650D01*
X6339229Y-15780650D02*
X6358277Y-15790174D01*
X6358277Y-15790174D02*
X6367801Y-15809222D01*
X6367801Y-15809222D02*
X6367801Y-15913984D01*
X6367801Y-15809222D02*
X6377324Y-15790174D01*
X6377324Y-15790174D02*
X6396372Y-15780650D01*
X6396372Y-15780650D02*
X6424943Y-15780650D01*
X6424943Y-15780650D02*
X6443991Y-15790174D01*
X6443991Y-15790174D02*
X6453515Y-15809222D01*
X6453515Y-15809222D02*
X6453515Y-15913984D01*
X6843991Y-15704460D02*
X6672563Y-15961603D01*
X7101134Y-15713984D02*
X7120182Y-15713984D01*
X7120182Y-15713984D02*
X7139229Y-15723508D01*
X7139229Y-15723508D02*
X7148753Y-15733031D01*
X7148753Y-15733031D02*
X7158277Y-15752079D01*
X7158277Y-15752079D02*
X7167801Y-15790174D01*
X7167801Y-15790174D02*
X7167801Y-15837793D01*
X7167801Y-15837793D02*
X7158277Y-15875888D01*
X7158277Y-15875888D02*
X7148753Y-15894936D01*
X7148753Y-15894936D02*
X7139229Y-15904460D01*
X7139229Y-15904460D02*
X7120182Y-15913984D01*
X7120182Y-15913984D02*
X7101134Y-15913984D01*
X7101134Y-15913984D02*
X7082086Y-15904460D01*
X7082086Y-15904460D02*
X7072563Y-15894936D01*
X7072563Y-15894936D02*
X7063039Y-15875888D01*
X7063039Y-15875888D02*
X7053515Y-15837793D01*
X7053515Y-15837793D02*
X7053515Y-15790174D01*
X7053515Y-15790174D02*
X7063039Y-15752079D01*
X7063039Y-15752079D02*
X7072563Y-15733031D01*
X7072563Y-15733031D02*
X7082086Y-15723508D01*
X7082086Y-15723508D02*
X7101134Y-15713984D01*
X7253515Y-15894936D02*
X7263039Y-15904460D01*
X7263039Y-15904460D02*
X7253515Y-15913984D01*
X7253515Y-15913984D02*
X7243991Y-15904460D01*
X7243991Y-15904460D02*
X7253515Y-15894936D01*
X7253515Y-15894936D02*
X7253515Y-15913984D01*
X7386848Y-15713984D02*
X7405896Y-15713984D01*
X7405896Y-15713984D02*
X7424944Y-15723508D01*
X7424944Y-15723508D02*
X7434467Y-15733031D01*
X7434467Y-15733031D02*
X7443991Y-15752079D01*
X7443991Y-15752079D02*
X7453515Y-15790174D01*
X7453515Y-15790174D02*
X7453515Y-15837793D01*
X7453515Y-15837793D02*
X7443991Y-15875888D01*
X7443991Y-15875888D02*
X7434467Y-15894936D01*
X7434467Y-15894936D02*
X7424944Y-15904460D01*
X7424944Y-15904460D02*
X7405896Y-15913984D01*
X7405896Y-15913984D02*
X7386848Y-15913984D01*
X7386848Y-15913984D02*
X7367801Y-15904460D01*
X7367801Y-15904460D02*
X7358277Y-15894936D01*
X7358277Y-15894936D02*
X7348753Y-15875888D01*
X7348753Y-15875888D02*
X7339229Y-15837793D01*
X7339229Y-15837793D02*
X7339229Y-15790174D01*
X7339229Y-15790174D02*
X7348753Y-15752079D01*
X7348753Y-15752079D02*
X7358277Y-15733031D01*
X7358277Y-15733031D02*
X7367801Y-15723508D01*
X7367801Y-15723508D02*
X7386848Y-15713984D01*
X7643991Y-15913984D02*
X7529706Y-15913984D01*
X7586848Y-15913984D02*
X7586848Y-15713984D01*
X7586848Y-15713984D02*
X7567801Y-15742555D01*
X7567801Y-15742555D02*
X7548753Y-15761603D01*
X7548753Y-15761603D02*
X7529706Y-15771127D01*
X7834467Y-15913984D02*
X7720182Y-15913984D01*
X7777325Y-15913984D02*
X7777325Y-15713984D01*
X7777325Y-15713984D02*
X7758277Y-15742555D01*
X7758277Y-15742555D02*
X7739229Y-15761603D01*
X7739229Y-15761603D02*
X7720182Y-15771127D01*
X7948753Y-15799698D02*
X7929706Y-15790174D01*
X7929706Y-15790174D02*
X7920182Y-15780650D01*
X7920182Y-15780650D02*
X7910658Y-15761603D01*
X7910658Y-15761603D02*
X7910658Y-15752079D01*
X7910658Y-15752079D02*
X7920182Y-15733031D01*
X7920182Y-15733031D02*
X7929706Y-15723508D01*
X7929706Y-15723508D02*
X7948753Y-15713984D01*
X7948753Y-15713984D02*
X7986848Y-15713984D01*
X7986848Y-15713984D02*
X8005896Y-15723508D01*
X8005896Y-15723508D02*
X8015420Y-15733031D01*
X8015420Y-15733031D02*
X8024944Y-15752079D01*
X8024944Y-15752079D02*
X8024944Y-15761603D01*
X8024944Y-15761603D02*
X8015420Y-15780650D01*
X8015420Y-15780650D02*
X8005896Y-15790174D01*
X8005896Y-15790174D02*
X7986848Y-15799698D01*
X7986848Y-15799698D02*
X7948753Y-15799698D01*
X7948753Y-15799698D02*
X7929706Y-15809222D01*
X7929706Y-15809222D02*
X7920182Y-15818746D01*
X7920182Y-15818746D02*
X7910658Y-15837793D01*
X7910658Y-15837793D02*
X7910658Y-15875888D01*
X7910658Y-15875888D02*
X7920182Y-15894936D01*
X7920182Y-15894936D02*
X7929706Y-15904460D01*
X7929706Y-15904460D02*
X7948753Y-15913984D01*
X7948753Y-15913984D02*
X7986848Y-15913984D01*
X7986848Y-15913984D02*
X8005896Y-15904460D01*
X8005896Y-15904460D02*
X8015420Y-15894936D01*
X8015420Y-15894936D02*
X8024944Y-15875888D01*
X8024944Y-15875888D02*
X8024944Y-15837793D01*
X8024944Y-15837793D02*
X8015420Y-15818746D01*
X8015420Y-15818746D02*
X8005896Y-15809222D01*
X8005896Y-15809222D02*
X7986848Y-15799698D01*
X8101134Y-15713984D02*
X8101134Y-15752079D01*
X8177325Y-15713984D02*
X8177325Y-15752079D01*
X8472563Y-15990174D02*
X8463039Y-15980650D01*
X8463039Y-15980650D02*
X8443991Y-15952079D01*
X8443991Y-15952079D02*
X8434468Y-15933031D01*
X8434468Y-15933031D02*
X8424944Y-15904460D01*
X8424944Y-15904460D02*
X8415420Y-15856841D01*
X8415420Y-15856841D02*
X8415420Y-15818746D01*
X8415420Y-15818746D02*
X8424944Y-15771127D01*
X8424944Y-15771127D02*
X8434468Y-15742555D01*
X8434468Y-15742555D02*
X8443991Y-15723508D01*
X8443991Y-15723508D02*
X8463039Y-15694936D01*
X8463039Y-15694936D02*
X8472563Y-15685412D01*
X8653515Y-15913984D02*
X8539230Y-15913984D01*
X8596372Y-15913984D02*
X8596372Y-15713984D01*
X8596372Y-15713984D02*
X8577325Y-15742555D01*
X8577325Y-15742555D02*
X8558277Y-15761603D01*
X8558277Y-15761603D02*
X8539230Y-15771127D01*
X8777325Y-15713984D02*
X8796372Y-15713984D01*
X8796372Y-15713984D02*
X8815420Y-15723508D01*
X8815420Y-15723508D02*
X8824944Y-15733031D01*
X8824944Y-15733031D02*
X8834468Y-15752079D01*
X8834468Y-15752079D02*
X8843991Y-15790174D01*
X8843991Y-15790174D02*
X8843991Y-15837793D01*
X8843991Y-15837793D02*
X8834468Y-15875888D01*
X8834468Y-15875888D02*
X8824944Y-15894936D01*
X8824944Y-15894936D02*
X8815420Y-15904460D01*
X8815420Y-15904460D02*
X8796372Y-15913984D01*
X8796372Y-15913984D02*
X8777325Y-15913984D01*
X8777325Y-15913984D02*
X8758277Y-15904460D01*
X8758277Y-15904460D02*
X8748753Y-15894936D01*
X8748753Y-15894936D02*
X8739230Y-15875888D01*
X8739230Y-15875888D02*
X8729706Y-15837793D01*
X8729706Y-15837793D02*
X8729706Y-15790174D01*
X8729706Y-15790174D02*
X8739230Y-15752079D01*
X8739230Y-15752079D02*
X8748753Y-15733031D01*
X8748753Y-15733031D02*
X8758277Y-15723508D01*
X8758277Y-15723508D02*
X8777325Y-15713984D01*
X8910658Y-15713984D02*
X9034468Y-15713984D01*
X9034468Y-15713984D02*
X8967801Y-15790174D01*
X8967801Y-15790174D02*
X8996372Y-15790174D01*
X8996372Y-15790174D02*
X9015420Y-15799698D01*
X9015420Y-15799698D02*
X9024944Y-15809222D01*
X9024944Y-15809222D02*
X9034468Y-15828269D01*
X9034468Y-15828269D02*
X9034468Y-15875888D01*
X9034468Y-15875888D02*
X9024944Y-15894936D01*
X9024944Y-15894936D02*
X9015420Y-15904460D01*
X9015420Y-15904460D02*
X8996372Y-15913984D01*
X8996372Y-15913984D02*
X8939230Y-15913984D01*
X8939230Y-15913984D02*
X8920182Y-15904460D01*
X8920182Y-15904460D02*
X8910658Y-15894936D01*
X9272563Y-15913984D02*
X9272563Y-15713984D01*
X9358277Y-15913984D02*
X9358277Y-15809222D01*
X9358277Y-15809222D02*
X9348753Y-15790174D01*
X9348753Y-15790174D02*
X9329706Y-15780650D01*
X9329706Y-15780650D02*
X9301134Y-15780650D01*
X9301134Y-15780650D02*
X9282087Y-15790174D01*
X9282087Y-15790174D02*
X9272563Y-15799698D01*
X9482087Y-15913984D02*
X9463039Y-15904460D01*
X9463039Y-15904460D02*
X9453515Y-15894936D01*
X9453515Y-15894936D02*
X9443992Y-15875888D01*
X9443992Y-15875888D02*
X9443992Y-15818746D01*
X9443992Y-15818746D02*
X9453515Y-15799698D01*
X9453515Y-15799698D02*
X9463039Y-15790174D01*
X9463039Y-15790174D02*
X9482087Y-15780650D01*
X9482087Y-15780650D02*
X9510658Y-15780650D01*
X9510658Y-15780650D02*
X9529706Y-15790174D01*
X9529706Y-15790174D02*
X9539230Y-15799698D01*
X9539230Y-15799698D02*
X9548753Y-15818746D01*
X9548753Y-15818746D02*
X9548753Y-15875888D01*
X9548753Y-15875888D02*
X9539230Y-15894936D01*
X9539230Y-15894936D02*
X9529706Y-15904460D01*
X9529706Y-15904460D02*
X9510658Y-15913984D01*
X9510658Y-15913984D02*
X9482087Y-15913984D01*
X9663039Y-15913984D02*
X9643992Y-15904460D01*
X9643992Y-15904460D02*
X9634468Y-15885412D01*
X9634468Y-15885412D02*
X9634468Y-15713984D01*
X9815420Y-15904460D02*
X9796373Y-15913984D01*
X9796373Y-15913984D02*
X9758277Y-15913984D01*
X9758277Y-15913984D02*
X9739230Y-15904460D01*
X9739230Y-15904460D02*
X9729706Y-15885412D01*
X9729706Y-15885412D02*
X9729706Y-15809222D01*
X9729706Y-15809222D02*
X9739230Y-15790174D01*
X9739230Y-15790174D02*
X9758277Y-15780650D01*
X9758277Y-15780650D02*
X9796373Y-15780650D01*
X9796373Y-15780650D02*
X9815420Y-15790174D01*
X9815420Y-15790174D02*
X9824944Y-15809222D01*
X9824944Y-15809222D02*
X9824944Y-15828269D01*
X9824944Y-15828269D02*
X9729706Y-15847317D01*
X9901134Y-15904460D02*
X9920182Y-15913984D01*
X9920182Y-15913984D02*
X9958277Y-15913984D01*
X9958277Y-15913984D02*
X9977325Y-15904460D01*
X9977325Y-15904460D02*
X9986849Y-15885412D01*
X9986849Y-15885412D02*
X9986849Y-15875888D01*
X9986849Y-15875888D02*
X9977325Y-15856841D01*
X9977325Y-15856841D02*
X9958277Y-15847317D01*
X9958277Y-15847317D02*
X9929706Y-15847317D01*
X9929706Y-15847317D02*
X9910658Y-15837793D01*
X9910658Y-15837793D02*
X9901134Y-15818746D01*
X9901134Y-15818746D02*
X9901134Y-15809222D01*
X9901134Y-15809222D02*
X9910658Y-15790174D01*
X9910658Y-15790174D02*
X9929706Y-15780650D01*
X9929706Y-15780650D02*
X9958277Y-15780650D01*
X9958277Y-15780650D02*
X9977325Y-15790174D01*
X10053515Y-15990174D02*
X10063039Y-15980650D01*
X10063039Y-15980650D02*
X10082087Y-15952079D01*
X10082087Y-15952079D02*
X10091611Y-15933031D01*
X10091611Y-15933031D02*
X10101134Y-15904460D01*
X10101134Y-15904460D02*
X10110658Y-15856841D01*
X10110658Y-15856841D02*
X10110658Y-15818746D01*
X10110658Y-15818746D02*
X10101134Y-15771127D01*
X10101134Y-15771127D02*
X10091611Y-15742555D01*
X10091611Y-15742555D02*
X10082087Y-15723508D01*
X10082087Y-15723508D02*
X10063039Y-15694936D01*
X10063039Y-15694936D02*
X10053515Y-15685412D01*
D12*
X4897500Y-16086500D02*
G75*
G02*
X4867500Y-16086500I-15000J0D01*
G01*
X4867500Y-16086500D02*
G75*
G02*
X4897500Y-16086500I15000J0D01*
G01*
D11*
X5196372Y-15977984D02*
X5215420Y-15977984D01*
X5215420Y-15977984D02*
X5234467Y-15987508D01*
X5234467Y-15987508D02*
X5243991Y-15997031D01*
X5243991Y-15997031D02*
X5253515Y-16016079D01*
X5253515Y-16016079D02*
X5263039Y-16054174D01*
X5263039Y-16054174D02*
X5263039Y-16101793D01*
X5263039Y-16101793D02*
X5253515Y-16139888D01*
X5253515Y-16139888D02*
X5243991Y-16158936D01*
X5243991Y-16158936D02*
X5234467Y-16168460D01*
X5234467Y-16168460D02*
X5215420Y-16177984D01*
X5215420Y-16177984D02*
X5196372Y-16177984D01*
X5196372Y-16177984D02*
X5177324Y-16168460D01*
X5177324Y-16168460D02*
X5167801Y-16158936D01*
X5167801Y-16158936D02*
X5158277Y-16139888D01*
X5158277Y-16139888D02*
X5148753Y-16101793D01*
X5148753Y-16101793D02*
X5148753Y-16054174D01*
X5148753Y-16054174D02*
X5158277Y-16016079D01*
X5158277Y-16016079D02*
X5167801Y-15997031D01*
X5167801Y-15997031D02*
X5177324Y-15987508D01*
X5177324Y-15987508D02*
X5196372Y-15977984D01*
X5348753Y-16158936D02*
X5358277Y-16168460D01*
X5358277Y-16168460D02*
X5348753Y-16177984D01*
X5348753Y-16177984D02*
X5339229Y-16168460D01*
X5339229Y-16168460D02*
X5348753Y-16158936D01*
X5348753Y-16158936D02*
X5348753Y-16177984D01*
X5424944Y-15977984D02*
X5548753Y-15977984D01*
X5548753Y-15977984D02*
X5482086Y-16054174D01*
X5482086Y-16054174D02*
X5510658Y-16054174D01*
X5510658Y-16054174D02*
X5529705Y-16063698D01*
X5529705Y-16063698D02*
X5539229Y-16073222D01*
X5539229Y-16073222D02*
X5548753Y-16092269D01*
X5548753Y-16092269D02*
X5548753Y-16139888D01*
X5548753Y-16139888D02*
X5539229Y-16158936D01*
X5539229Y-16158936D02*
X5529705Y-16168460D01*
X5529705Y-16168460D02*
X5510658Y-16177984D01*
X5510658Y-16177984D02*
X5453515Y-16177984D01*
X5453515Y-16177984D02*
X5434467Y-16168460D01*
X5434467Y-16168460D02*
X5424944Y-16158936D01*
X5672562Y-15977984D02*
X5691610Y-15977984D01*
X5691610Y-15977984D02*
X5710658Y-15987508D01*
X5710658Y-15987508D02*
X5720182Y-15997031D01*
X5720182Y-15997031D02*
X5729705Y-16016079D01*
X5729705Y-16016079D02*
X5739229Y-16054174D01*
X5739229Y-16054174D02*
X5739229Y-16101793D01*
X5739229Y-16101793D02*
X5729705Y-16139888D01*
X5729705Y-16139888D02*
X5720182Y-16158936D01*
X5720182Y-16158936D02*
X5710658Y-16168460D01*
X5710658Y-16168460D02*
X5691610Y-16177984D01*
X5691610Y-16177984D02*
X5672562Y-16177984D01*
X5672562Y-16177984D02*
X5653515Y-16168460D01*
X5653515Y-16168460D02*
X5643991Y-16158936D01*
X5643991Y-16158936D02*
X5634467Y-16139888D01*
X5634467Y-16139888D02*
X5624943Y-16101793D01*
X5624943Y-16101793D02*
X5624943Y-16054174D01*
X5624943Y-16054174D02*
X5634467Y-16016079D01*
X5634467Y-16016079D02*
X5643991Y-15997031D01*
X5643991Y-15997031D02*
X5653515Y-15987508D01*
X5653515Y-15987508D02*
X5672562Y-15977984D01*
X5863039Y-15977984D02*
X5882086Y-15977984D01*
X5882086Y-15977984D02*
X5901134Y-15987508D01*
X5901134Y-15987508D02*
X5910658Y-15997031D01*
X5910658Y-15997031D02*
X5920182Y-16016079D01*
X5920182Y-16016079D02*
X5929705Y-16054174D01*
X5929705Y-16054174D02*
X5929705Y-16101793D01*
X5929705Y-16101793D02*
X5920182Y-16139888D01*
X5920182Y-16139888D02*
X5910658Y-16158936D01*
X5910658Y-16158936D02*
X5901134Y-16168460D01*
X5901134Y-16168460D02*
X5882086Y-16177984D01*
X5882086Y-16177984D02*
X5863039Y-16177984D01*
X5863039Y-16177984D02*
X5843991Y-16168460D01*
X5843991Y-16168460D02*
X5834467Y-16158936D01*
X5834467Y-16158936D02*
X5824943Y-16139888D01*
X5824943Y-16139888D02*
X5815420Y-16101793D01*
X5815420Y-16101793D02*
X5815420Y-16054174D01*
X5815420Y-16054174D02*
X5824943Y-16016079D01*
X5824943Y-16016079D02*
X5834467Y-15997031D01*
X5834467Y-15997031D02*
X5843991Y-15987508D01*
X5843991Y-15987508D02*
X5863039Y-15977984D01*
X6015420Y-16177984D02*
X6015420Y-16044650D01*
X6015420Y-16063698D02*
X6024943Y-16054174D01*
X6024943Y-16054174D02*
X6043991Y-16044650D01*
X6043991Y-16044650D02*
X6072563Y-16044650D01*
X6072563Y-16044650D02*
X6091610Y-16054174D01*
X6091610Y-16054174D02*
X6101134Y-16073222D01*
X6101134Y-16073222D02*
X6101134Y-16177984D01*
X6101134Y-16073222D02*
X6110658Y-16054174D01*
X6110658Y-16054174D02*
X6129705Y-16044650D01*
X6129705Y-16044650D02*
X6158277Y-16044650D01*
X6158277Y-16044650D02*
X6177324Y-16054174D01*
X6177324Y-16054174D02*
X6186848Y-16073222D01*
X6186848Y-16073222D02*
X6186848Y-16177984D01*
X6282086Y-16177984D02*
X6282086Y-16044650D01*
X6282086Y-16063698D02*
X6291610Y-16054174D01*
X6291610Y-16054174D02*
X6310658Y-16044650D01*
X6310658Y-16044650D02*
X6339229Y-16044650D01*
X6339229Y-16044650D02*
X6358277Y-16054174D01*
X6358277Y-16054174D02*
X6367801Y-16073222D01*
X6367801Y-16073222D02*
X6367801Y-16177984D01*
X6367801Y-16073222D02*
X6377324Y-16054174D01*
X6377324Y-16054174D02*
X6396372Y-16044650D01*
X6396372Y-16044650D02*
X6424943Y-16044650D01*
X6424943Y-16044650D02*
X6443991Y-16054174D01*
X6443991Y-16054174D02*
X6453515Y-16073222D01*
X6453515Y-16073222D02*
X6453515Y-16177984D01*
X6843991Y-15968460D02*
X6672563Y-16225603D01*
X7101134Y-15977984D02*
X7120182Y-15977984D01*
X7120182Y-15977984D02*
X7139229Y-15987508D01*
X7139229Y-15987508D02*
X7148753Y-15997031D01*
X7148753Y-15997031D02*
X7158277Y-16016079D01*
X7158277Y-16016079D02*
X7167801Y-16054174D01*
X7167801Y-16054174D02*
X7167801Y-16101793D01*
X7167801Y-16101793D02*
X7158277Y-16139888D01*
X7158277Y-16139888D02*
X7148753Y-16158936D01*
X7148753Y-16158936D02*
X7139229Y-16168460D01*
X7139229Y-16168460D02*
X7120182Y-16177984D01*
X7120182Y-16177984D02*
X7101134Y-16177984D01*
X7101134Y-16177984D02*
X7082086Y-16168460D01*
X7082086Y-16168460D02*
X7072563Y-16158936D01*
X7072563Y-16158936D02*
X7063039Y-16139888D01*
X7063039Y-16139888D02*
X7053515Y-16101793D01*
X7053515Y-16101793D02*
X7053515Y-16054174D01*
X7053515Y-16054174D02*
X7063039Y-16016079D01*
X7063039Y-16016079D02*
X7072563Y-15997031D01*
X7072563Y-15997031D02*
X7082086Y-15987508D01*
X7082086Y-15987508D02*
X7101134Y-15977984D01*
X7253515Y-16158936D02*
X7263039Y-16168460D01*
X7263039Y-16168460D02*
X7253515Y-16177984D01*
X7253515Y-16177984D02*
X7243991Y-16168460D01*
X7243991Y-16168460D02*
X7253515Y-16158936D01*
X7253515Y-16158936D02*
X7253515Y-16177984D01*
X7386848Y-15977984D02*
X7405896Y-15977984D01*
X7405896Y-15977984D02*
X7424944Y-15987508D01*
X7424944Y-15987508D02*
X7434467Y-15997031D01*
X7434467Y-15997031D02*
X7443991Y-16016079D01*
X7443991Y-16016079D02*
X7453515Y-16054174D01*
X7453515Y-16054174D02*
X7453515Y-16101793D01*
X7453515Y-16101793D02*
X7443991Y-16139888D01*
X7443991Y-16139888D02*
X7434467Y-16158936D01*
X7434467Y-16158936D02*
X7424944Y-16168460D01*
X7424944Y-16168460D02*
X7405896Y-16177984D01*
X7405896Y-16177984D02*
X7386848Y-16177984D01*
X7386848Y-16177984D02*
X7367801Y-16168460D01*
X7367801Y-16168460D02*
X7358277Y-16158936D01*
X7358277Y-16158936D02*
X7348753Y-16139888D01*
X7348753Y-16139888D02*
X7339229Y-16101793D01*
X7339229Y-16101793D02*
X7339229Y-16054174D01*
X7339229Y-16054174D02*
X7348753Y-16016079D01*
X7348753Y-16016079D02*
X7358277Y-15997031D01*
X7358277Y-15997031D02*
X7367801Y-15987508D01*
X7367801Y-15987508D02*
X7386848Y-15977984D01*
X7643991Y-16177984D02*
X7529706Y-16177984D01*
X7586848Y-16177984D02*
X7586848Y-15977984D01*
X7586848Y-15977984D02*
X7567801Y-16006555D01*
X7567801Y-16006555D02*
X7548753Y-16025603D01*
X7548753Y-16025603D02*
X7529706Y-16035127D01*
X7834467Y-16177984D02*
X7720182Y-16177984D01*
X7777325Y-16177984D02*
X7777325Y-15977984D01*
X7777325Y-15977984D02*
X7758277Y-16006555D01*
X7758277Y-16006555D02*
X7739229Y-16025603D01*
X7739229Y-16025603D02*
X7720182Y-16035127D01*
X7948753Y-16063698D02*
X7929706Y-16054174D01*
X7929706Y-16054174D02*
X7920182Y-16044650D01*
X7920182Y-16044650D02*
X7910658Y-16025603D01*
X7910658Y-16025603D02*
X7910658Y-16016079D01*
X7910658Y-16016079D02*
X7920182Y-15997031D01*
X7920182Y-15997031D02*
X7929706Y-15987508D01*
X7929706Y-15987508D02*
X7948753Y-15977984D01*
X7948753Y-15977984D02*
X7986848Y-15977984D01*
X7986848Y-15977984D02*
X8005896Y-15987508D01*
X8005896Y-15987508D02*
X8015420Y-15997031D01*
X8015420Y-15997031D02*
X8024944Y-16016079D01*
X8024944Y-16016079D02*
X8024944Y-16025603D01*
X8024944Y-16025603D02*
X8015420Y-16044650D01*
X8015420Y-16044650D02*
X8005896Y-16054174D01*
X8005896Y-16054174D02*
X7986848Y-16063698D01*
X7986848Y-16063698D02*
X7948753Y-16063698D01*
X7948753Y-16063698D02*
X7929706Y-16073222D01*
X7929706Y-16073222D02*
X7920182Y-16082746D01*
X7920182Y-16082746D02*
X7910658Y-16101793D01*
X7910658Y-16101793D02*
X7910658Y-16139888D01*
X7910658Y-16139888D02*
X7920182Y-16158936D01*
X7920182Y-16158936D02*
X7929706Y-16168460D01*
X7929706Y-16168460D02*
X7948753Y-16177984D01*
X7948753Y-16177984D02*
X7986848Y-16177984D01*
X7986848Y-16177984D02*
X8005896Y-16168460D01*
X8005896Y-16168460D02*
X8015420Y-16158936D01*
X8015420Y-16158936D02*
X8024944Y-16139888D01*
X8024944Y-16139888D02*
X8024944Y-16101793D01*
X8024944Y-16101793D02*
X8015420Y-16082746D01*
X8015420Y-16082746D02*
X8005896Y-16073222D01*
X8005896Y-16073222D02*
X7986848Y-16063698D01*
X8101134Y-15977984D02*
X8101134Y-16016079D01*
X8177325Y-15977984D02*
X8177325Y-16016079D01*
X8472563Y-16254174D02*
X8463039Y-16244650D01*
X8463039Y-16244650D02*
X8443991Y-16216079D01*
X8443991Y-16216079D02*
X8434468Y-16197031D01*
X8434468Y-16197031D02*
X8424944Y-16168460D01*
X8424944Y-16168460D02*
X8415420Y-16120841D01*
X8415420Y-16120841D02*
X8415420Y-16082746D01*
X8415420Y-16082746D02*
X8424944Y-16035127D01*
X8424944Y-16035127D02*
X8434468Y-16006555D01*
X8434468Y-16006555D02*
X8443991Y-15987508D01*
X8443991Y-15987508D02*
X8463039Y-15958936D01*
X8463039Y-15958936D02*
X8472563Y-15949412D01*
X8653515Y-16177984D02*
X8539230Y-16177984D01*
X8596372Y-16177984D02*
X8596372Y-15977984D01*
X8596372Y-15977984D02*
X8577325Y-16006555D01*
X8577325Y-16006555D02*
X8558277Y-16025603D01*
X8558277Y-16025603D02*
X8539230Y-16035127D01*
X8834468Y-15977984D02*
X8739230Y-15977984D01*
X8739230Y-15977984D02*
X8729706Y-16073222D01*
X8729706Y-16073222D02*
X8739230Y-16063698D01*
X8739230Y-16063698D02*
X8758277Y-16054174D01*
X8758277Y-16054174D02*
X8805896Y-16054174D01*
X8805896Y-16054174D02*
X8824944Y-16063698D01*
X8824944Y-16063698D02*
X8834468Y-16073222D01*
X8834468Y-16073222D02*
X8843991Y-16092269D01*
X8843991Y-16092269D02*
X8843991Y-16139888D01*
X8843991Y-16139888D02*
X8834468Y-16158936D01*
X8834468Y-16158936D02*
X8824944Y-16168460D01*
X8824944Y-16168460D02*
X8805896Y-16177984D01*
X8805896Y-16177984D02*
X8758277Y-16177984D01*
X8758277Y-16177984D02*
X8739230Y-16168460D01*
X8739230Y-16168460D02*
X8729706Y-16158936D01*
X9082087Y-16177984D02*
X9082087Y-15977984D01*
X9167801Y-16177984D02*
X9167801Y-16073222D01*
X9167801Y-16073222D02*
X9158277Y-16054174D01*
X9158277Y-16054174D02*
X9139230Y-16044650D01*
X9139230Y-16044650D02*
X9110658Y-16044650D01*
X9110658Y-16044650D02*
X9091611Y-16054174D01*
X9091611Y-16054174D02*
X9082087Y-16063698D01*
X9291611Y-16177984D02*
X9272563Y-16168460D01*
X9272563Y-16168460D02*
X9263039Y-16158936D01*
X9263039Y-16158936D02*
X9253515Y-16139888D01*
X9253515Y-16139888D02*
X9253515Y-16082746D01*
X9253515Y-16082746D02*
X9263039Y-16063698D01*
X9263039Y-16063698D02*
X9272563Y-16054174D01*
X9272563Y-16054174D02*
X9291611Y-16044650D01*
X9291611Y-16044650D02*
X9320182Y-16044650D01*
X9320182Y-16044650D02*
X9339230Y-16054174D01*
X9339230Y-16054174D02*
X9348753Y-16063698D01*
X9348753Y-16063698D02*
X9358277Y-16082746D01*
X9358277Y-16082746D02*
X9358277Y-16139888D01*
X9358277Y-16139888D02*
X9348753Y-16158936D01*
X9348753Y-16158936D02*
X9339230Y-16168460D01*
X9339230Y-16168460D02*
X9320182Y-16177984D01*
X9320182Y-16177984D02*
X9291611Y-16177984D01*
X9472563Y-16177984D02*
X9453515Y-16168460D01*
X9453515Y-16168460D02*
X9443992Y-16149412D01*
X9443992Y-16149412D02*
X9443992Y-15977984D01*
X9624944Y-16168460D02*
X9605896Y-16177984D01*
X9605896Y-16177984D02*
X9567801Y-16177984D01*
X9567801Y-16177984D02*
X9548753Y-16168460D01*
X9548753Y-16168460D02*
X9539230Y-16149412D01*
X9539230Y-16149412D02*
X9539230Y-16073222D01*
X9539230Y-16073222D02*
X9548753Y-16054174D01*
X9548753Y-16054174D02*
X9567801Y-16044650D01*
X9567801Y-16044650D02*
X9605896Y-16044650D01*
X9605896Y-16044650D02*
X9624944Y-16054174D01*
X9624944Y-16054174D02*
X9634468Y-16073222D01*
X9634468Y-16073222D02*
X9634468Y-16092269D01*
X9634468Y-16092269D02*
X9539230Y-16111317D01*
X9710658Y-16168460D02*
X9729706Y-16177984D01*
X9729706Y-16177984D02*
X9767801Y-16177984D01*
X9767801Y-16177984D02*
X9786849Y-16168460D01*
X9786849Y-16168460D02*
X9796373Y-16149412D01*
X9796373Y-16149412D02*
X9796373Y-16139888D01*
X9796373Y-16139888D02*
X9786849Y-16120841D01*
X9786849Y-16120841D02*
X9767801Y-16111317D01*
X9767801Y-16111317D02*
X9739230Y-16111317D01*
X9739230Y-16111317D02*
X9720182Y-16101793D01*
X9720182Y-16101793D02*
X9710658Y-16082746D01*
X9710658Y-16082746D02*
X9710658Y-16073222D01*
X9710658Y-16073222D02*
X9720182Y-16054174D01*
X9720182Y-16054174D02*
X9739230Y-16044650D01*
X9739230Y-16044650D02*
X9767801Y-16044650D01*
X9767801Y-16044650D02*
X9786849Y-16054174D01*
X9863039Y-16254174D02*
X9872563Y-16244650D01*
X9872563Y-16244650D02*
X9891611Y-16216079D01*
X9891611Y-16216079D02*
X9901134Y-16197031D01*
X9901134Y-16197031D02*
X9910658Y-16168460D01*
X9910658Y-16168460D02*
X9920182Y-16120841D01*
X9920182Y-16120841D02*
X9920182Y-16082746D01*
X9920182Y-16082746D02*
X9910658Y-16035127D01*
X9910658Y-16035127D02*
X9901134Y-16006555D01*
X9901134Y-16006555D02*
X9891611Y-15987508D01*
X9891611Y-15987508D02*
X9872563Y-15958936D01*
X9872563Y-15958936D02*
X9863039Y-15949412D01*
D12*
X4858500Y-16311500D02*
X4858500Y-16389500D01*
X4819500Y-16350500D02*
X4897500Y-16350500D01*
D11*
X5196372Y-16241984D02*
X5215420Y-16241984D01*
X5215420Y-16241984D02*
X5234467Y-16251508D01*
X5234467Y-16251508D02*
X5243991Y-16261031D01*
X5243991Y-16261031D02*
X5253515Y-16280079D01*
X5253515Y-16280079D02*
X5263039Y-16318174D01*
X5263039Y-16318174D02*
X5263039Y-16365793D01*
X5263039Y-16365793D02*
X5253515Y-16403888D01*
X5253515Y-16403888D02*
X5243991Y-16422936D01*
X5243991Y-16422936D02*
X5234467Y-16432460D01*
X5234467Y-16432460D02*
X5215420Y-16441984D01*
X5215420Y-16441984D02*
X5196372Y-16441984D01*
X5196372Y-16441984D02*
X5177324Y-16432460D01*
X5177324Y-16432460D02*
X5167801Y-16422936D01*
X5167801Y-16422936D02*
X5158277Y-16403888D01*
X5158277Y-16403888D02*
X5148753Y-16365793D01*
X5148753Y-16365793D02*
X5148753Y-16318174D01*
X5148753Y-16318174D02*
X5158277Y-16280079D01*
X5158277Y-16280079D02*
X5167801Y-16261031D01*
X5167801Y-16261031D02*
X5177324Y-16251508D01*
X5177324Y-16251508D02*
X5196372Y-16241984D01*
X5348753Y-16422936D02*
X5358277Y-16432460D01*
X5358277Y-16432460D02*
X5348753Y-16441984D01*
X5348753Y-16441984D02*
X5339229Y-16432460D01*
X5339229Y-16432460D02*
X5348753Y-16422936D01*
X5348753Y-16422936D02*
X5348753Y-16441984D01*
X5424944Y-16241984D02*
X5558277Y-16241984D01*
X5558277Y-16241984D02*
X5472563Y-16441984D01*
X5663039Y-16327698D02*
X5643991Y-16318174D01*
X5643991Y-16318174D02*
X5634467Y-16308650D01*
X5634467Y-16308650D02*
X5624943Y-16289603D01*
X5624943Y-16289603D02*
X5624943Y-16280079D01*
X5624943Y-16280079D02*
X5634467Y-16261031D01*
X5634467Y-16261031D02*
X5643991Y-16251508D01*
X5643991Y-16251508D02*
X5663039Y-16241984D01*
X5663039Y-16241984D02*
X5701134Y-16241984D01*
X5701134Y-16241984D02*
X5720182Y-16251508D01*
X5720182Y-16251508D02*
X5729705Y-16261031D01*
X5729705Y-16261031D02*
X5739229Y-16280079D01*
X5739229Y-16280079D02*
X5739229Y-16289603D01*
X5739229Y-16289603D02*
X5729705Y-16308650D01*
X5729705Y-16308650D02*
X5720182Y-16318174D01*
X5720182Y-16318174D02*
X5701134Y-16327698D01*
X5701134Y-16327698D02*
X5663039Y-16327698D01*
X5663039Y-16327698D02*
X5643991Y-16337222D01*
X5643991Y-16337222D02*
X5634467Y-16346746D01*
X5634467Y-16346746D02*
X5624943Y-16365793D01*
X5624943Y-16365793D02*
X5624943Y-16403888D01*
X5624943Y-16403888D02*
X5634467Y-16422936D01*
X5634467Y-16422936D02*
X5643991Y-16432460D01*
X5643991Y-16432460D02*
X5663039Y-16441984D01*
X5663039Y-16441984D02*
X5701134Y-16441984D01*
X5701134Y-16441984D02*
X5720182Y-16432460D01*
X5720182Y-16432460D02*
X5729705Y-16422936D01*
X5729705Y-16422936D02*
X5739229Y-16403888D01*
X5739229Y-16403888D02*
X5739229Y-16365793D01*
X5739229Y-16365793D02*
X5729705Y-16346746D01*
X5729705Y-16346746D02*
X5720182Y-16337222D01*
X5720182Y-16337222D02*
X5701134Y-16327698D01*
X5863039Y-16241984D02*
X5882086Y-16241984D01*
X5882086Y-16241984D02*
X5901134Y-16251508D01*
X5901134Y-16251508D02*
X5910658Y-16261031D01*
X5910658Y-16261031D02*
X5920182Y-16280079D01*
X5920182Y-16280079D02*
X5929705Y-16318174D01*
X5929705Y-16318174D02*
X5929705Y-16365793D01*
X5929705Y-16365793D02*
X5920182Y-16403888D01*
X5920182Y-16403888D02*
X5910658Y-16422936D01*
X5910658Y-16422936D02*
X5901134Y-16432460D01*
X5901134Y-16432460D02*
X5882086Y-16441984D01*
X5882086Y-16441984D02*
X5863039Y-16441984D01*
X5863039Y-16441984D02*
X5843991Y-16432460D01*
X5843991Y-16432460D02*
X5834467Y-16422936D01*
X5834467Y-16422936D02*
X5824943Y-16403888D01*
X5824943Y-16403888D02*
X5815420Y-16365793D01*
X5815420Y-16365793D02*
X5815420Y-16318174D01*
X5815420Y-16318174D02*
X5824943Y-16280079D01*
X5824943Y-16280079D02*
X5834467Y-16261031D01*
X5834467Y-16261031D02*
X5843991Y-16251508D01*
X5843991Y-16251508D02*
X5863039Y-16241984D01*
X6015420Y-16441984D02*
X6015420Y-16308650D01*
X6015420Y-16327698D02*
X6024943Y-16318174D01*
X6024943Y-16318174D02*
X6043991Y-16308650D01*
X6043991Y-16308650D02*
X6072563Y-16308650D01*
X6072563Y-16308650D02*
X6091610Y-16318174D01*
X6091610Y-16318174D02*
X6101134Y-16337222D01*
X6101134Y-16337222D02*
X6101134Y-16441984D01*
X6101134Y-16337222D02*
X6110658Y-16318174D01*
X6110658Y-16318174D02*
X6129705Y-16308650D01*
X6129705Y-16308650D02*
X6158277Y-16308650D01*
X6158277Y-16308650D02*
X6177324Y-16318174D01*
X6177324Y-16318174D02*
X6186848Y-16337222D01*
X6186848Y-16337222D02*
X6186848Y-16441984D01*
X6282086Y-16441984D02*
X6282086Y-16308650D01*
X6282086Y-16327698D02*
X6291610Y-16318174D01*
X6291610Y-16318174D02*
X6310658Y-16308650D01*
X6310658Y-16308650D02*
X6339229Y-16308650D01*
X6339229Y-16308650D02*
X6358277Y-16318174D01*
X6358277Y-16318174D02*
X6367801Y-16337222D01*
X6367801Y-16337222D02*
X6367801Y-16441984D01*
X6367801Y-16337222D02*
X6377324Y-16318174D01*
X6377324Y-16318174D02*
X6396372Y-16308650D01*
X6396372Y-16308650D02*
X6424943Y-16308650D01*
X6424943Y-16308650D02*
X6443991Y-16318174D01*
X6443991Y-16318174D02*
X6453515Y-16337222D01*
X6453515Y-16337222D02*
X6453515Y-16441984D01*
X6843991Y-16232460D02*
X6672563Y-16489603D01*
X7101134Y-16241984D02*
X7120182Y-16241984D01*
X7120182Y-16241984D02*
X7139229Y-16251508D01*
X7139229Y-16251508D02*
X7148753Y-16261031D01*
X7148753Y-16261031D02*
X7158277Y-16280079D01*
X7158277Y-16280079D02*
X7167801Y-16318174D01*
X7167801Y-16318174D02*
X7167801Y-16365793D01*
X7167801Y-16365793D02*
X7158277Y-16403888D01*
X7158277Y-16403888D02*
X7148753Y-16422936D01*
X7148753Y-16422936D02*
X7139229Y-16432460D01*
X7139229Y-16432460D02*
X7120182Y-16441984D01*
X7120182Y-16441984D02*
X7101134Y-16441984D01*
X7101134Y-16441984D02*
X7082086Y-16432460D01*
X7082086Y-16432460D02*
X7072563Y-16422936D01*
X7072563Y-16422936D02*
X7063039Y-16403888D01*
X7063039Y-16403888D02*
X7053515Y-16365793D01*
X7053515Y-16365793D02*
X7053515Y-16318174D01*
X7053515Y-16318174D02*
X7063039Y-16280079D01*
X7063039Y-16280079D02*
X7072563Y-16261031D01*
X7072563Y-16261031D02*
X7082086Y-16251508D01*
X7082086Y-16251508D02*
X7101134Y-16241984D01*
X7253515Y-16422936D02*
X7263039Y-16432460D01*
X7263039Y-16432460D02*
X7253515Y-16441984D01*
X7253515Y-16441984D02*
X7243991Y-16432460D01*
X7243991Y-16432460D02*
X7253515Y-16422936D01*
X7253515Y-16422936D02*
X7253515Y-16441984D01*
X7386848Y-16241984D02*
X7405896Y-16241984D01*
X7405896Y-16241984D02*
X7424944Y-16251508D01*
X7424944Y-16251508D02*
X7434467Y-16261031D01*
X7434467Y-16261031D02*
X7443991Y-16280079D01*
X7443991Y-16280079D02*
X7453515Y-16318174D01*
X7453515Y-16318174D02*
X7453515Y-16365793D01*
X7453515Y-16365793D02*
X7443991Y-16403888D01*
X7443991Y-16403888D02*
X7434467Y-16422936D01*
X7434467Y-16422936D02*
X7424944Y-16432460D01*
X7424944Y-16432460D02*
X7405896Y-16441984D01*
X7405896Y-16441984D02*
X7386848Y-16441984D01*
X7386848Y-16441984D02*
X7367801Y-16432460D01*
X7367801Y-16432460D02*
X7358277Y-16422936D01*
X7358277Y-16422936D02*
X7348753Y-16403888D01*
X7348753Y-16403888D02*
X7339229Y-16365793D01*
X7339229Y-16365793D02*
X7339229Y-16318174D01*
X7339229Y-16318174D02*
X7348753Y-16280079D01*
X7348753Y-16280079D02*
X7358277Y-16261031D01*
X7358277Y-16261031D02*
X7367801Y-16251508D01*
X7367801Y-16251508D02*
X7386848Y-16241984D01*
X7520182Y-16241984D02*
X7643991Y-16241984D01*
X7643991Y-16241984D02*
X7577325Y-16318174D01*
X7577325Y-16318174D02*
X7605896Y-16318174D01*
X7605896Y-16318174D02*
X7624944Y-16327698D01*
X7624944Y-16327698D02*
X7634467Y-16337222D01*
X7634467Y-16337222D02*
X7643991Y-16356269D01*
X7643991Y-16356269D02*
X7643991Y-16403888D01*
X7643991Y-16403888D02*
X7634467Y-16422936D01*
X7634467Y-16422936D02*
X7624944Y-16432460D01*
X7624944Y-16432460D02*
X7605896Y-16441984D01*
X7605896Y-16441984D02*
X7548753Y-16441984D01*
X7548753Y-16441984D02*
X7529706Y-16432460D01*
X7529706Y-16432460D02*
X7520182Y-16422936D01*
X7767801Y-16241984D02*
X7786848Y-16241984D01*
X7786848Y-16241984D02*
X7805896Y-16251508D01*
X7805896Y-16251508D02*
X7815420Y-16261031D01*
X7815420Y-16261031D02*
X7824944Y-16280079D01*
X7824944Y-16280079D02*
X7834467Y-16318174D01*
X7834467Y-16318174D02*
X7834467Y-16365793D01*
X7834467Y-16365793D02*
X7824944Y-16403888D01*
X7824944Y-16403888D02*
X7815420Y-16422936D01*
X7815420Y-16422936D02*
X7805896Y-16432460D01*
X7805896Y-16432460D02*
X7786848Y-16441984D01*
X7786848Y-16441984D02*
X7767801Y-16441984D01*
X7767801Y-16441984D02*
X7748753Y-16432460D01*
X7748753Y-16432460D02*
X7739229Y-16422936D01*
X7739229Y-16422936D02*
X7729706Y-16403888D01*
X7729706Y-16403888D02*
X7720182Y-16365793D01*
X7720182Y-16365793D02*
X7720182Y-16318174D01*
X7720182Y-16318174D02*
X7729706Y-16280079D01*
X7729706Y-16280079D02*
X7739229Y-16261031D01*
X7739229Y-16261031D02*
X7748753Y-16251508D01*
X7748753Y-16251508D02*
X7767801Y-16241984D01*
X7901134Y-16241984D02*
X8034467Y-16241984D01*
X8034467Y-16241984D02*
X7948753Y-16441984D01*
X8101134Y-16241984D02*
X8101134Y-16280079D01*
X8177325Y-16241984D02*
X8177325Y-16280079D01*
X8472563Y-16518174D02*
X8463039Y-16508650D01*
X8463039Y-16508650D02*
X8443991Y-16480079D01*
X8443991Y-16480079D02*
X8434468Y-16461031D01*
X8434468Y-16461031D02*
X8424944Y-16432460D01*
X8424944Y-16432460D02*
X8415420Y-16384841D01*
X8415420Y-16384841D02*
X8415420Y-16346746D01*
X8415420Y-16346746D02*
X8424944Y-16299127D01*
X8424944Y-16299127D02*
X8434468Y-16270555D01*
X8434468Y-16270555D02*
X8443991Y-16251508D01*
X8443991Y-16251508D02*
X8463039Y-16222936D01*
X8463039Y-16222936D02*
X8472563Y-16213412D01*
X8529706Y-16241984D02*
X8653515Y-16241984D01*
X8653515Y-16241984D02*
X8586849Y-16318174D01*
X8586849Y-16318174D02*
X8615420Y-16318174D01*
X8615420Y-16318174D02*
X8634468Y-16327698D01*
X8634468Y-16327698D02*
X8643991Y-16337222D01*
X8643991Y-16337222D02*
X8653515Y-16356269D01*
X8653515Y-16356269D02*
X8653515Y-16403888D01*
X8653515Y-16403888D02*
X8643991Y-16422936D01*
X8643991Y-16422936D02*
X8634468Y-16432460D01*
X8634468Y-16432460D02*
X8615420Y-16441984D01*
X8615420Y-16441984D02*
X8558277Y-16441984D01*
X8558277Y-16441984D02*
X8539230Y-16432460D01*
X8539230Y-16432460D02*
X8529706Y-16422936D01*
X8891611Y-16441984D02*
X8891611Y-16241984D01*
X8977325Y-16441984D02*
X8977325Y-16337222D01*
X8977325Y-16337222D02*
X8967801Y-16318174D01*
X8967801Y-16318174D02*
X8948753Y-16308650D01*
X8948753Y-16308650D02*
X8920182Y-16308650D01*
X8920182Y-16308650D02*
X8901134Y-16318174D01*
X8901134Y-16318174D02*
X8891611Y-16327698D01*
X9101134Y-16441984D02*
X9082087Y-16432460D01*
X9082087Y-16432460D02*
X9072563Y-16422936D01*
X9072563Y-16422936D02*
X9063039Y-16403888D01*
X9063039Y-16403888D02*
X9063039Y-16346746D01*
X9063039Y-16346746D02*
X9072563Y-16327698D01*
X9072563Y-16327698D02*
X9082087Y-16318174D01*
X9082087Y-16318174D02*
X9101134Y-16308650D01*
X9101134Y-16308650D02*
X9129706Y-16308650D01*
X9129706Y-16308650D02*
X9148753Y-16318174D01*
X9148753Y-16318174D02*
X9158277Y-16327698D01*
X9158277Y-16327698D02*
X9167801Y-16346746D01*
X9167801Y-16346746D02*
X9167801Y-16403888D01*
X9167801Y-16403888D02*
X9158277Y-16422936D01*
X9158277Y-16422936D02*
X9148753Y-16432460D01*
X9148753Y-16432460D02*
X9129706Y-16441984D01*
X9129706Y-16441984D02*
X9101134Y-16441984D01*
X9282087Y-16441984D02*
X9263039Y-16432460D01*
X9263039Y-16432460D02*
X9253515Y-16413412D01*
X9253515Y-16413412D02*
X9253515Y-16241984D01*
X9434468Y-16432460D02*
X9415420Y-16441984D01*
X9415420Y-16441984D02*
X9377325Y-16441984D01*
X9377325Y-16441984D02*
X9358277Y-16432460D01*
X9358277Y-16432460D02*
X9348753Y-16413412D01*
X9348753Y-16413412D02*
X9348753Y-16337222D01*
X9348753Y-16337222D02*
X9358277Y-16318174D01*
X9358277Y-16318174D02*
X9377325Y-16308650D01*
X9377325Y-16308650D02*
X9415420Y-16308650D01*
X9415420Y-16308650D02*
X9434468Y-16318174D01*
X9434468Y-16318174D02*
X9443992Y-16337222D01*
X9443992Y-16337222D02*
X9443992Y-16356269D01*
X9443992Y-16356269D02*
X9348753Y-16375317D01*
X9520182Y-16432460D02*
X9539230Y-16441984D01*
X9539230Y-16441984D02*
X9577325Y-16441984D01*
X9577325Y-16441984D02*
X9596373Y-16432460D01*
X9596373Y-16432460D02*
X9605896Y-16413412D01*
X9605896Y-16413412D02*
X9605896Y-16403888D01*
X9605896Y-16403888D02*
X9596373Y-16384841D01*
X9596373Y-16384841D02*
X9577325Y-16375317D01*
X9577325Y-16375317D02*
X9548753Y-16375317D01*
X9548753Y-16375317D02*
X9529706Y-16365793D01*
X9529706Y-16365793D02*
X9520182Y-16346746D01*
X9520182Y-16346746D02*
X9520182Y-16337222D01*
X9520182Y-16337222D02*
X9529706Y-16318174D01*
X9529706Y-16318174D02*
X9548753Y-16308650D01*
X9548753Y-16308650D02*
X9577325Y-16308650D01*
X9577325Y-16308650D02*
X9596373Y-16318174D01*
X9672563Y-16518174D02*
X9682087Y-16508650D01*
X9682087Y-16508650D02*
X9701134Y-16480079D01*
X9701134Y-16480079D02*
X9710658Y-16461031D01*
X9710658Y-16461031D02*
X9720182Y-16432460D01*
X9720182Y-16432460D02*
X9729706Y-16384841D01*
X9729706Y-16384841D02*
X9729706Y-16346746D01*
X9729706Y-16346746D02*
X9720182Y-16299127D01*
X9720182Y-16299127D02*
X9710658Y-16270555D01*
X9710658Y-16270555D02*
X9701134Y-16251508D01*
X9701134Y-16251508D02*
X9682087Y-16222936D01*
X9682087Y-16222936D02*
X9672563Y-16213412D01*
D12*
X4885785Y-16642784D02*
X4885785Y-16586215D01*
X4829216Y-16586215D01*
X4829216Y-16642784D01*
X4885785Y-16642784D01*
D11*
X5196372Y-16505984D02*
X5215420Y-16505984D01*
X5215420Y-16505984D02*
X5234467Y-16515508D01*
X5234467Y-16515508D02*
X5243991Y-16525031D01*
X5243991Y-16525031D02*
X5253515Y-16544079D01*
X5253515Y-16544079D02*
X5263039Y-16582174D01*
X5263039Y-16582174D02*
X5263039Y-16629793D01*
X5263039Y-16629793D02*
X5253515Y-16667888D01*
X5253515Y-16667888D02*
X5243991Y-16686936D01*
X5243991Y-16686936D02*
X5234467Y-16696460D01*
X5234467Y-16696460D02*
X5215420Y-16705984D01*
X5215420Y-16705984D02*
X5196372Y-16705984D01*
X5196372Y-16705984D02*
X5177324Y-16696460D01*
X5177324Y-16696460D02*
X5167801Y-16686936D01*
X5167801Y-16686936D02*
X5158277Y-16667888D01*
X5158277Y-16667888D02*
X5148753Y-16629793D01*
X5148753Y-16629793D02*
X5148753Y-16582174D01*
X5148753Y-16582174D02*
X5158277Y-16544079D01*
X5158277Y-16544079D02*
X5167801Y-16525031D01*
X5167801Y-16525031D02*
X5177324Y-16515508D01*
X5177324Y-16515508D02*
X5196372Y-16505984D01*
X5348753Y-16686936D02*
X5358277Y-16696460D01*
X5358277Y-16696460D02*
X5348753Y-16705984D01*
X5348753Y-16705984D02*
X5339229Y-16696460D01*
X5339229Y-16696460D02*
X5348753Y-16686936D01*
X5348753Y-16686936D02*
X5348753Y-16705984D01*
X5472563Y-16591698D02*
X5453515Y-16582174D01*
X5453515Y-16582174D02*
X5443991Y-16572650D01*
X5443991Y-16572650D02*
X5434467Y-16553603D01*
X5434467Y-16553603D02*
X5434467Y-16544079D01*
X5434467Y-16544079D02*
X5443991Y-16525031D01*
X5443991Y-16525031D02*
X5453515Y-16515508D01*
X5453515Y-16515508D02*
X5472563Y-16505984D01*
X5472563Y-16505984D02*
X5510658Y-16505984D01*
X5510658Y-16505984D02*
X5529705Y-16515508D01*
X5529705Y-16515508D02*
X5539229Y-16525031D01*
X5539229Y-16525031D02*
X5548753Y-16544079D01*
X5548753Y-16544079D02*
X5548753Y-16553603D01*
X5548753Y-16553603D02*
X5539229Y-16572650D01*
X5539229Y-16572650D02*
X5529705Y-16582174D01*
X5529705Y-16582174D02*
X5510658Y-16591698D01*
X5510658Y-16591698D02*
X5472563Y-16591698D01*
X5472563Y-16591698D02*
X5453515Y-16601222D01*
X5453515Y-16601222D02*
X5443991Y-16610746D01*
X5443991Y-16610746D02*
X5434467Y-16629793D01*
X5434467Y-16629793D02*
X5434467Y-16667888D01*
X5434467Y-16667888D02*
X5443991Y-16686936D01*
X5443991Y-16686936D02*
X5453515Y-16696460D01*
X5453515Y-16696460D02*
X5472563Y-16705984D01*
X5472563Y-16705984D02*
X5510658Y-16705984D01*
X5510658Y-16705984D02*
X5529705Y-16696460D01*
X5529705Y-16696460D02*
X5539229Y-16686936D01*
X5539229Y-16686936D02*
X5548753Y-16667888D01*
X5548753Y-16667888D02*
X5548753Y-16629793D01*
X5548753Y-16629793D02*
X5539229Y-16610746D01*
X5539229Y-16610746D02*
X5529705Y-16601222D01*
X5529705Y-16601222D02*
X5510658Y-16591698D01*
X5672562Y-16505984D02*
X5691610Y-16505984D01*
X5691610Y-16505984D02*
X5710658Y-16515508D01*
X5710658Y-16515508D02*
X5720182Y-16525031D01*
X5720182Y-16525031D02*
X5729705Y-16544079D01*
X5729705Y-16544079D02*
X5739229Y-16582174D01*
X5739229Y-16582174D02*
X5739229Y-16629793D01*
X5739229Y-16629793D02*
X5729705Y-16667888D01*
X5729705Y-16667888D02*
X5720182Y-16686936D01*
X5720182Y-16686936D02*
X5710658Y-16696460D01*
X5710658Y-16696460D02*
X5691610Y-16705984D01*
X5691610Y-16705984D02*
X5672562Y-16705984D01*
X5672562Y-16705984D02*
X5653515Y-16696460D01*
X5653515Y-16696460D02*
X5643991Y-16686936D01*
X5643991Y-16686936D02*
X5634467Y-16667888D01*
X5634467Y-16667888D02*
X5624943Y-16629793D01*
X5624943Y-16629793D02*
X5624943Y-16582174D01*
X5624943Y-16582174D02*
X5634467Y-16544079D01*
X5634467Y-16544079D02*
X5643991Y-16525031D01*
X5643991Y-16525031D02*
X5653515Y-16515508D01*
X5653515Y-16515508D02*
X5672562Y-16505984D01*
X5863039Y-16505984D02*
X5882086Y-16505984D01*
X5882086Y-16505984D02*
X5901134Y-16515508D01*
X5901134Y-16515508D02*
X5910658Y-16525031D01*
X5910658Y-16525031D02*
X5920182Y-16544079D01*
X5920182Y-16544079D02*
X5929705Y-16582174D01*
X5929705Y-16582174D02*
X5929705Y-16629793D01*
X5929705Y-16629793D02*
X5920182Y-16667888D01*
X5920182Y-16667888D02*
X5910658Y-16686936D01*
X5910658Y-16686936D02*
X5901134Y-16696460D01*
X5901134Y-16696460D02*
X5882086Y-16705984D01*
X5882086Y-16705984D02*
X5863039Y-16705984D01*
X5863039Y-16705984D02*
X5843991Y-16696460D01*
X5843991Y-16696460D02*
X5834467Y-16686936D01*
X5834467Y-16686936D02*
X5824943Y-16667888D01*
X5824943Y-16667888D02*
X5815420Y-16629793D01*
X5815420Y-16629793D02*
X5815420Y-16582174D01*
X5815420Y-16582174D02*
X5824943Y-16544079D01*
X5824943Y-16544079D02*
X5834467Y-16525031D01*
X5834467Y-16525031D02*
X5843991Y-16515508D01*
X5843991Y-16515508D02*
X5863039Y-16505984D01*
X6015420Y-16705984D02*
X6015420Y-16572650D01*
X6015420Y-16591698D02*
X6024943Y-16582174D01*
X6024943Y-16582174D02*
X6043991Y-16572650D01*
X6043991Y-16572650D02*
X6072563Y-16572650D01*
X6072563Y-16572650D02*
X6091610Y-16582174D01*
X6091610Y-16582174D02*
X6101134Y-16601222D01*
X6101134Y-16601222D02*
X6101134Y-16705984D01*
X6101134Y-16601222D02*
X6110658Y-16582174D01*
X6110658Y-16582174D02*
X6129705Y-16572650D01*
X6129705Y-16572650D02*
X6158277Y-16572650D01*
X6158277Y-16572650D02*
X6177324Y-16582174D01*
X6177324Y-16582174D02*
X6186848Y-16601222D01*
X6186848Y-16601222D02*
X6186848Y-16705984D01*
X6282086Y-16705984D02*
X6282086Y-16572650D01*
X6282086Y-16591698D02*
X6291610Y-16582174D01*
X6291610Y-16582174D02*
X6310658Y-16572650D01*
X6310658Y-16572650D02*
X6339229Y-16572650D01*
X6339229Y-16572650D02*
X6358277Y-16582174D01*
X6358277Y-16582174D02*
X6367801Y-16601222D01*
X6367801Y-16601222D02*
X6367801Y-16705984D01*
X6367801Y-16601222D02*
X6377324Y-16582174D01*
X6377324Y-16582174D02*
X6396372Y-16572650D01*
X6396372Y-16572650D02*
X6424943Y-16572650D01*
X6424943Y-16572650D02*
X6443991Y-16582174D01*
X6443991Y-16582174D02*
X6453515Y-16601222D01*
X6453515Y-16601222D02*
X6453515Y-16705984D01*
X6843991Y-16496460D02*
X6672563Y-16753603D01*
X7101134Y-16505984D02*
X7120182Y-16505984D01*
X7120182Y-16505984D02*
X7139229Y-16515508D01*
X7139229Y-16515508D02*
X7148753Y-16525031D01*
X7148753Y-16525031D02*
X7158277Y-16544079D01*
X7158277Y-16544079D02*
X7167801Y-16582174D01*
X7167801Y-16582174D02*
X7167801Y-16629793D01*
X7167801Y-16629793D02*
X7158277Y-16667888D01*
X7158277Y-16667888D02*
X7148753Y-16686936D01*
X7148753Y-16686936D02*
X7139229Y-16696460D01*
X7139229Y-16696460D02*
X7120182Y-16705984D01*
X7120182Y-16705984D02*
X7101134Y-16705984D01*
X7101134Y-16705984D02*
X7082086Y-16696460D01*
X7082086Y-16696460D02*
X7072563Y-16686936D01*
X7072563Y-16686936D02*
X7063039Y-16667888D01*
X7063039Y-16667888D02*
X7053515Y-16629793D01*
X7053515Y-16629793D02*
X7053515Y-16582174D01*
X7053515Y-16582174D02*
X7063039Y-16544079D01*
X7063039Y-16544079D02*
X7072563Y-16525031D01*
X7072563Y-16525031D02*
X7082086Y-16515508D01*
X7082086Y-16515508D02*
X7101134Y-16505984D01*
X7253515Y-16686936D02*
X7263039Y-16696460D01*
X7263039Y-16696460D02*
X7253515Y-16705984D01*
X7253515Y-16705984D02*
X7243991Y-16696460D01*
X7243991Y-16696460D02*
X7253515Y-16686936D01*
X7253515Y-16686936D02*
X7253515Y-16705984D01*
X7386848Y-16505984D02*
X7405896Y-16505984D01*
X7405896Y-16505984D02*
X7424944Y-16515508D01*
X7424944Y-16515508D02*
X7434467Y-16525031D01*
X7434467Y-16525031D02*
X7443991Y-16544079D01*
X7443991Y-16544079D02*
X7453515Y-16582174D01*
X7453515Y-16582174D02*
X7453515Y-16629793D01*
X7453515Y-16629793D02*
X7443991Y-16667888D01*
X7443991Y-16667888D02*
X7434467Y-16686936D01*
X7434467Y-16686936D02*
X7424944Y-16696460D01*
X7424944Y-16696460D02*
X7405896Y-16705984D01*
X7405896Y-16705984D02*
X7386848Y-16705984D01*
X7386848Y-16705984D02*
X7367801Y-16696460D01*
X7367801Y-16696460D02*
X7358277Y-16686936D01*
X7358277Y-16686936D02*
X7348753Y-16667888D01*
X7348753Y-16667888D02*
X7339229Y-16629793D01*
X7339229Y-16629793D02*
X7339229Y-16582174D01*
X7339229Y-16582174D02*
X7348753Y-16544079D01*
X7348753Y-16544079D02*
X7358277Y-16525031D01*
X7358277Y-16525031D02*
X7367801Y-16515508D01*
X7367801Y-16515508D02*
X7386848Y-16505984D01*
X7520182Y-16505984D02*
X7643991Y-16505984D01*
X7643991Y-16505984D02*
X7577325Y-16582174D01*
X7577325Y-16582174D02*
X7605896Y-16582174D01*
X7605896Y-16582174D02*
X7624944Y-16591698D01*
X7624944Y-16591698D02*
X7634467Y-16601222D01*
X7634467Y-16601222D02*
X7643991Y-16620269D01*
X7643991Y-16620269D02*
X7643991Y-16667888D01*
X7643991Y-16667888D02*
X7634467Y-16686936D01*
X7634467Y-16686936D02*
X7624944Y-16696460D01*
X7624944Y-16696460D02*
X7605896Y-16705984D01*
X7605896Y-16705984D02*
X7548753Y-16705984D01*
X7548753Y-16705984D02*
X7529706Y-16696460D01*
X7529706Y-16696460D02*
X7520182Y-16686936D01*
X7834467Y-16705984D02*
X7720182Y-16705984D01*
X7777325Y-16705984D02*
X7777325Y-16505984D01*
X7777325Y-16505984D02*
X7758277Y-16534555D01*
X7758277Y-16534555D02*
X7739229Y-16553603D01*
X7739229Y-16553603D02*
X7720182Y-16563127D01*
X8015420Y-16505984D02*
X7920182Y-16505984D01*
X7920182Y-16505984D02*
X7910658Y-16601222D01*
X7910658Y-16601222D02*
X7920182Y-16591698D01*
X7920182Y-16591698D02*
X7939229Y-16582174D01*
X7939229Y-16582174D02*
X7986848Y-16582174D01*
X7986848Y-16582174D02*
X8005896Y-16591698D01*
X8005896Y-16591698D02*
X8015420Y-16601222D01*
X8015420Y-16601222D02*
X8024944Y-16620269D01*
X8024944Y-16620269D02*
X8024944Y-16667888D01*
X8024944Y-16667888D02*
X8015420Y-16686936D01*
X8015420Y-16686936D02*
X8005896Y-16696460D01*
X8005896Y-16696460D02*
X7986848Y-16705984D01*
X7986848Y-16705984D02*
X7939229Y-16705984D01*
X7939229Y-16705984D02*
X7920182Y-16696460D01*
X7920182Y-16696460D02*
X7910658Y-16686936D01*
X8101134Y-16505984D02*
X8101134Y-16544079D01*
X8177325Y-16505984D02*
X8177325Y-16544079D01*
X8472563Y-16782174D02*
X8463039Y-16772650D01*
X8463039Y-16772650D02*
X8443991Y-16744079D01*
X8443991Y-16744079D02*
X8434468Y-16725031D01*
X8434468Y-16725031D02*
X8424944Y-16696460D01*
X8424944Y-16696460D02*
X8415420Y-16648841D01*
X8415420Y-16648841D02*
X8415420Y-16610746D01*
X8415420Y-16610746D02*
X8424944Y-16563127D01*
X8424944Y-16563127D02*
X8434468Y-16534555D01*
X8434468Y-16534555D02*
X8443991Y-16515508D01*
X8443991Y-16515508D02*
X8463039Y-16486936D01*
X8463039Y-16486936D02*
X8472563Y-16477412D01*
X8529706Y-16505984D02*
X8663039Y-16505984D01*
X8663039Y-16505984D02*
X8577325Y-16705984D01*
X8777325Y-16505984D02*
X8796372Y-16505984D01*
X8796372Y-16505984D02*
X8815420Y-16515508D01*
X8815420Y-16515508D02*
X8824944Y-16525031D01*
X8824944Y-16525031D02*
X8834468Y-16544079D01*
X8834468Y-16544079D02*
X8843991Y-16582174D01*
X8843991Y-16582174D02*
X8843991Y-16629793D01*
X8843991Y-16629793D02*
X8834468Y-16667888D01*
X8834468Y-16667888D02*
X8824944Y-16686936D01*
X8824944Y-16686936D02*
X8815420Y-16696460D01*
X8815420Y-16696460D02*
X8796372Y-16705984D01*
X8796372Y-16705984D02*
X8777325Y-16705984D01*
X8777325Y-16705984D02*
X8758277Y-16696460D01*
X8758277Y-16696460D02*
X8748753Y-16686936D01*
X8748753Y-16686936D02*
X8739230Y-16667888D01*
X8739230Y-16667888D02*
X8729706Y-16629793D01*
X8729706Y-16629793D02*
X8729706Y-16582174D01*
X8729706Y-16582174D02*
X8739230Y-16544079D01*
X8739230Y-16544079D02*
X8748753Y-16525031D01*
X8748753Y-16525031D02*
X8758277Y-16515508D01*
X8758277Y-16515508D02*
X8777325Y-16505984D01*
X9082087Y-16705984D02*
X9082087Y-16505984D01*
X9167801Y-16705984D02*
X9167801Y-16601222D01*
X9167801Y-16601222D02*
X9158277Y-16582174D01*
X9158277Y-16582174D02*
X9139230Y-16572650D01*
X9139230Y-16572650D02*
X9110658Y-16572650D01*
X9110658Y-16572650D02*
X9091611Y-16582174D01*
X9091611Y-16582174D02*
X9082087Y-16591698D01*
X9291611Y-16705984D02*
X9272563Y-16696460D01*
X9272563Y-16696460D02*
X9263039Y-16686936D01*
X9263039Y-16686936D02*
X9253515Y-16667888D01*
X9253515Y-16667888D02*
X9253515Y-16610746D01*
X9253515Y-16610746D02*
X9263039Y-16591698D01*
X9263039Y-16591698D02*
X9272563Y-16582174D01*
X9272563Y-16582174D02*
X9291611Y-16572650D01*
X9291611Y-16572650D02*
X9320182Y-16572650D01*
X9320182Y-16572650D02*
X9339230Y-16582174D01*
X9339230Y-16582174D02*
X9348753Y-16591698D01*
X9348753Y-16591698D02*
X9358277Y-16610746D01*
X9358277Y-16610746D02*
X9358277Y-16667888D01*
X9358277Y-16667888D02*
X9348753Y-16686936D01*
X9348753Y-16686936D02*
X9339230Y-16696460D01*
X9339230Y-16696460D02*
X9320182Y-16705984D01*
X9320182Y-16705984D02*
X9291611Y-16705984D01*
X9472563Y-16705984D02*
X9453515Y-16696460D01*
X9453515Y-16696460D02*
X9443992Y-16677412D01*
X9443992Y-16677412D02*
X9443992Y-16505984D01*
X9624944Y-16696460D02*
X9605896Y-16705984D01*
X9605896Y-16705984D02*
X9567801Y-16705984D01*
X9567801Y-16705984D02*
X9548753Y-16696460D01*
X9548753Y-16696460D02*
X9539230Y-16677412D01*
X9539230Y-16677412D02*
X9539230Y-16601222D01*
X9539230Y-16601222D02*
X9548753Y-16582174D01*
X9548753Y-16582174D02*
X9567801Y-16572650D01*
X9567801Y-16572650D02*
X9605896Y-16572650D01*
X9605896Y-16572650D02*
X9624944Y-16582174D01*
X9624944Y-16582174D02*
X9634468Y-16601222D01*
X9634468Y-16601222D02*
X9634468Y-16620269D01*
X9634468Y-16620269D02*
X9539230Y-16639317D01*
X9710658Y-16696460D02*
X9729706Y-16705984D01*
X9729706Y-16705984D02*
X9767801Y-16705984D01*
X9767801Y-16705984D02*
X9786849Y-16696460D01*
X9786849Y-16696460D02*
X9796373Y-16677412D01*
X9796373Y-16677412D02*
X9796373Y-16667888D01*
X9796373Y-16667888D02*
X9786849Y-16648841D01*
X9786849Y-16648841D02*
X9767801Y-16639317D01*
X9767801Y-16639317D02*
X9739230Y-16639317D01*
X9739230Y-16639317D02*
X9720182Y-16629793D01*
X9720182Y-16629793D02*
X9710658Y-16610746D01*
X9710658Y-16610746D02*
X9710658Y-16601222D01*
X9710658Y-16601222D02*
X9720182Y-16582174D01*
X9720182Y-16582174D02*
X9739230Y-16572650D01*
X9739230Y-16572650D02*
X9767801Y-16572650D01*
X9767801Y-16572650D02*
X9786849Y-16582174D01*
X9863039Y-16782174D02*
X9872563Y-16772650D01*
X9872563Y-16772650D02*
X9891611Y-16744079D01*
X9891611Y-16744079D02*
X9901134Y-16725031D01*
X9901134Y-16725031D02*
X9910658Y-16696460D01*
X9910658Y-16696460D02*
X9920182Y-16648841D01*
X9920182Y-16648841D02*
X9920182Y-16610746D01*
X9920182Y-16610746D02*
X9910658Y-16563127D01*
X9910658Y-16563127D02*
X9901134Y-16534555D01*
X9901134Y-16534555D02*
X9891611Y-16515508D01*
X9891611Y-16515508D02*
X9872563Y-16486936D01*
X9872563Y-16486936D02*
X9863039Y-16477412D01*
D12*
X4857500Y-16918500D02*
X4897500Y-16878500D01*
X4857500Y-16838500D01*
X4817500Y-16878500D01*
X4857500Y-16918500D01*
D11*
X5196372Y-16769984D02*
X5215420Y-16769984D01*
X5215420Y-16769984D02*
X5234467Y-16779508D01*
X5234467Y-16779508D02*
X5243991Y-16789031D01*
X5243991Y-16789031D02*
X5253515Y-16808079D01*
X5253515Y-16808079D02*
X5263039Y-16846174D01*
X5263039Y-16846174D02*
X5263039Y-16893793D01*
X5263039Y-16893793D02*
X5253515Y-16931889D01*
X5253515Y-16931889D02*
X5243991Y-16950936D01*
X5243991Y-16950936D02*
X5234467Y-16960460D01*
X5234467Y-16960460D02*
X5215420Y-16969984D01*
X5215420Y-16969984D02*
X5196372Y-16969984D01*
X5196372Y-16969984D02*
X5177324Y-16960460D01*
X5177324Y-16960460D02*
X5167801Y-16950936D01*
X5167801Y-16950936D02*
X5158277Y-16931889D01*
X5158277Y-16931889D02*
X5148753Y-16893793D01*
X5148753Y-16893793D02*
X5148753Y-16846174D01*
X5148753Y-16846174D02*
X5158277Y-16808079D01*
X5158277Y-16808079D02*
X5167801Y-16789031D01*
X5167801Y-16789031D02*
X5177324Y-16779508D01*
X5177324Y-16779508D02*
X5196372Y-16769984D01*
X5348753Y-16950936D02*
X5358277Y-16960460D01*
X5358277Y-16960460D02*
X5348753Y-16969984D01*
X5348753Y-16969984D02*
X5339229Y-16960460D01*
X5339229Y-16960460D02*
X5348753Y-16950936D01*
X5348753Y-16950936D02*
X5348753Y-16969984D01*
X5472563Y-16855698D02*
X5453515Y-16846174D01*
X5453515Y-16846174D02*
X5443991Y-16836650D01*
X5443991Y-16836650D02*
X5434467Y-16817603D01*
X5434467Y-16817603D02*
X5434467Y-16808079D01*
X5434467Y-16808079D02*
X5443991Y-16789031D01*
X5443991Y-16789031D02*
X5453515Y-16779508D01*
X5453515Y-16779508D02*
X5472563Y-16769984D01*
X5472563Y-16769984D02*
X5510658Y-16769984D01*
X5510658Y-16769984D02*
X5529705Y-16779508D01*
X5529705Y-16779508D02*
X5539229Y-16789031D01*
X5539229Y-16789031D02*
X5548753Y-16808079D01*
X5548753Y-16808079D02*
X5548753Y-16817603D01*
X5548753Y-16817603D02*
X5539229Y-16836650D01*
X5539229Y-16836650D02*
X5529705Y-16846174D01*
X5529705Y-16846174D02*
X5510658Y-16855698D01*
X5510658Y-16855698D02*
X5472563Y-16855698D01*
X5472563Y-16855698D02*
X5453515Y-16865222D01*
X5453515Y-16865222D02*
X5443991Y-16874746D01*
X5443991Y-16874746D02*
X5434467Y-16893793D01*
X5434467Y-16893793D02*
X5434467Y-16931889D01*
X5434467Y-16931889D02*
X5443991Y-16950936D01*
X5443991Y-16950936D02*
X5453515Y-16960460D01*
X5453515Y-16960460D02*
X5472563Y-16969984D01*
X5472563Y-16969984D02*
X5510658Y-16969984D01*
X5510658Y-16969984D02*
X5529705Y-16960460D01*
X5529705Y-16960460D02*
X5539229Y-16950936D01*
X5539229Y-16950936D02*
X5548753Y-16931889D01*
X5548753Y-16931889D02*
X5548753Y-16893793D01*
X5548753Y-16893793D02*
X5539229Y-16874746D01*
X5539229Y-16874746D02*
X5529705Y-16865222D01*
X5529705Y-16865222D02*
X5510658Y-16855698D01*
X5672562Y-16769984D02*
X5691610Y-16769984D01*
X5691610Y-16769984D02*
X5710658Y-16779508D01*
X5710658Y-16779508D02*
X5720182Y-16789031D01*
X5720182Y-16789031D02*
X5729705Y-16808079D01*
X5729705Y-16808079D02*
X5739229Y-16846174D01*
X5739229Y-16846174D02*
X5739229Y-16893793D01*
X5739229Y-16893793D02*
X5729705Y-16931889D01*
X5729705Y-16931889D02*
X5720182Y-16950936D01*
X5720182Y-16950936D02*
X5710658Y-16960460D01*
X5710658Y-16960460D02*
X5691610Y-16969984D01*
X5691610Y-16969984D02*
X5672562Y-16969984D01*
X5672562Y-16969984D02*
X5653515Y-16960460D01*
X5653515Y-16960460D02*
X5643991Y-16950936D01*
X5643991Y-16950936D02*
X5634467Y-16931889D01*
X5634467Y-16931889D02*
X5624943Y-16893793D01*
X5624943Y-16893793D02*
X5624943Y-16846174D01*
X5624943Y-16846174D02*
X5634467Y-16808079D01*
X5634467Y-16808079D02*
X5643991Y-16789031D01*
X5643991Y-16789031D02*
X5653515Y-16779508D01*
X5653515Y-16779508D02*
X5672562Y-16769984D01*
X5863039Y-16769984D02*
X5882086Y-16769984D01*
X5882086Y-16769984D02*
X5901134Y-16779508D01*
X5901134Y-16779508D02*
X5910658Y-16789031D01*
X5910658Y-16789031D02*
X5920182Y-16808079D01*
X5920182Y-16808079D02*
X5929705Y-16846174D01*
X5929705Y-16846174D02*
X5929705Y-16893793D01*
X5929705Y-16893793D02*
X5920182Y-16931889D01*
X5920182Y-16931889D02*
X5910658Y-16950936D01*
X5910658Y-16950936D02*
X5901134Y-16960460D01*
X5901134Y-16960460D02*
X5882086Y-16969984D01*
X5882086Y-16969984D02*
X5863039Y-16969984D01*
X5863039Y-16969984D02*
X5843991Y-16960460D01*
X5843991Y-16960460D02*
X5834467Y-16950936D01*
X5834467Y-16950936D02*
X5824943Y-16931889D01*
X5824943Y-16931889D02*
X5815420Y-16893793D01*
X5815420Y-16893793D02*
X5815420Y-16846174D01*
X5815420Y-16846174D02*
X5824943Y-16808079D01*
X5824943Y-16808079D02*
X5834467Y-16789031D01*
X5834467Y-16789031D02*
X5843991Y-16779508D01*
X5843991Y-16779508D02*
X5863039Y-16769984D01*
X6015420Y-16969984D02*
X6015420Y-16836650D01*
X6015420Y-16855698D02*
X6024943Y-16846174D01*
X6024943Y-16846174D02*
X6043991Y-16836650D01*
X6043991Y-16836650D02*
X6072563Y-16836650D01*
X6072563Y-16836650D02*
X6091610Y-16846174D01*
X6091610Y-16846174D02*
X6101134Y-16865222D01*
X6101134Y-16865222D02*
X6101134Y-16969984D01*
X6101134Y-16865222D02*
X6110658Y-16846174D01*
X6110658Y-16846174D02*
X6129705Y-16836650D01*
X6129705Y-16836650D02*
X6158277Y-16836650D01*
X6158277Y-16836650D02*
X6177324Y-16846174D01*
X6177324Y-16846174D02*
X6186848Y-16865222D01*
X6186848Y-16865222D02*
X6186848Y-16969984D01*
X6282086Y-16969984D02*
X6282086Y-16836650D01*
X6282086Y-16855698D02*
X6291610Y-16846174D01*
X6291610Y-16846174D02*
X6310658Y-16836650D01*
X6310658Y-16836650D02*
X6339229Y-16836650D01*
X6339229Y-16836650D02*
X6358277Y-16846174D01*
X6358277Y-16846174D02*
X6367801Y-16865222D01*
X6367801Y-16865222D02*
X6367801Y-16969984D01*
X6367801Y-16865222D02*
X6377324Y-16846174D01*
X6377324Y-16846174D02*
X6396372Y-16836650D01*
X6396372Y-16836650D02*
X6424943Y-16836650D01*
X6424943Y-16836650D02*
X6443991Y-16846174D01*
X6443991Y-16846174D02*
X6453515Y-16865222D01*
X6453515Y-16865222D02*
X6453515Y-16969984D01*
X6843991Y-16760460D02*
X6672563Y-17017603D01*
X7101134Y-16769984D02*
X7120182Y-16769984D01*
X7120182Y-16769984D02*
X7139229Y-16779508D01*
X7139229Y-16779508D02*
X7148753Y-16789031D01*
X7148753Y-16789031D02*
X7158277Y-16808079D01*
X7158277Y-16808079D02*
X7167801Y-16846174D01*
X7167801Y-16846174D02*
X7167801Y-16893793D01*
X7167801Y-16893793D02*
X7158277Y-16931889D01*
X7158277Y-16931889D02*
X7148753Y-16950936D01*
X7148753Y-16950936D02*
X7139229Y-16960460D01*
X7139229Y-16960460D02*
X7120182Y-16969984D01*
X7120182Y-16969984D02*
X7101134Y-16969984D01*
X7101134Y-16969984D02*
X7082086Y-16960460D01*
X7082086Y-16960460D02*
X7072563Y-16950936D01*
X7072563Y-16950936D02*
X7063039Y-16931889D01*
X7063039Y-16931889D02*
X7053515Y-16893793D01*
X7053515Y-16893793D02*
X7053515Y-16846174D01*
X7053515Y-16846174D02*
X7063039Y-16808079D01*
X7063039Y-16808079D02*
X7072563Y-16789031D01*
X7072563Y-16789031D02*
X7082086Y-16779508D01*
X7082086Y-16779508D02*
X7101134Y-16769984D01*
X7253515Y-16950936D02*
X7263039Y-16960460D01*
X7263039Y-16960460D02*
X7253515Y-16969984D01*
X7253515Y-16969984D02*
X7243991Y-16960460D01*
X7243991Y-16960460D02*
X7253515Y-16950936D01*
X7253515Y-16950936D02*
X7253515Y-16969984D01*
X7386848Y-16769984D02*
X7405896Y-16769984D01*
X7405896Y-16769984D02*
X7424944Y-16779508D01*
X7424944Y-16779508D02*
X7434467Y-16789031D01*
X7434467Y-16789031D02*
X7443991Y-16808079D01*
X7443991Y-16808079D02*
X7453515Y-16846174D01*
X7453515Y-16846174D02*
X7453515Y-16893793D01*
X7453515Y-16893793D02*
X7443991Y-16931889D01*
X7443991Y-16931889D02*
X7434467Y-16950936D01*
X7434467Y-16950936D02*
X7424944Y-16960460D01*
X7424944Y-16960460D02*
X7405896Y-16969984D01*
X7405896Y-16969984D02*
X7386848Y-16969984D01*
X7386848Y-16969984D02*
X7367801Y-16960460D01*
X7367801Y-16960460D02*
X7358277Y-16950936D01*
X7358277Y-16950936D02*
X7348753Y-16931889D01*
X7348753Y-16931889D02*
X7339229Y-16893793D01*
X7339229Y-16893793D02*
X7339229Y-16846174D01*
X7339229Y-16846174D02*
X7348753Y-16808079D01*
X7348753Y-16808079D02*
X7358277Y-16789031D01*
X7358277Y-16789031D02*
X7367801Y-16779508D01*
X7367801Y-16779508D02*
X7386848Y-16769984D01*
X7520182Y-16769984D02*
X7643991Y-16769984D01*
X7643991Y-16769984D02*
X7577325Y-16846174D01*
X7577325Y-16846174D02*
X7605896Y-16846174D01*
X7605896Y-16846174D02*
X7624944Y-16855698D01*
X7624944Y-16855698D02*
X7634467Y-16865222D01*
X7634467Y-16865222D02*
X7643991Y-16884270D01*
X7643991Y-16884270D02*
X7643991Y-16931889D01*
X7643991Y-16931889D02*
X7634467Y-16950936D01*
X7634467Y-16950936D02*
X7624944Y-16960460D01*
X7624944Y-16960460D02*
X7605896Y-16969984D01*
X7605896Y-16969984D02*
X7548753Y-16969984D01*
X7548753Y-16969984D02*
X7529706Y-16960460D01*
X7529706Y-16960460D02*
X7520182Y-16950936D01*
X7834467Y-16969984D02*
X7720182Y-16969984D01*
X7777325Y-16969984D02*
X7777325Y-16769984D01*
X7777325Y-16769984D02*
X7758277Y-16798555D01*
X7758277Y-16798555D02*
X7739229Y-16817603D01*
X7739229Y-16817603D02*
X7720182Y-16827127D01*
X8015420Y-16769984D02*
X7920182Y-16769984D01*
X7920182Y-16769984D02*
X7910658Y-16865222D01*
X7910658Y-16865222D02*
X7920182Y-16855698D01*
X7920182Y-16855698D02*
X7939229Y-16846174D01*
X7939229Y-16846174D02*
X7986848Y-16846174D01*
X7986848Y-16846174D02*
X8005896Y-16855698D01*
X8005896Y-16855698D02*
X8015420Y-16865222D01*
X8015420Y-16865222D02*
X8024944Y-16884270D01*
X8024944Y-16884270D02*
X8024944Y-16931889D01*
X8024944Y-16931889D02*
X8015420Y-16950936D01*
X8015420Y-16950936D02*
X8005896Y-16960460D01*
X8005896Y-16960460D02*
X7986848Y-16969984D01*
X7986848Y-16969984D02*
X7939229Y-16969984D01*
X7939229Y-16969984D02*
X7920182Y-16960460D01*
X7920182Y-16960460D02*
X7910658Y-16950936D01*
X8101134Y-16769984D02*
X8101134Y-16808079D01*
X8177325Y-16769984D02*
X8177325Y-16808079D01*
X8472563Y-17046174D02*
X8463039Y-17036650D01*
X8463039Y-17036650D02*
X8443991Y-17008079D01*
X8443991Y-17008079D02*
X8434468Y-16989031D01*
X8434468Y-16989031D02*
X8424944Y-16960460D01*
X8424944Y-16960460D02*
X8415420Y-16912841D01*
X8415420Y-16912841D02*
X8415420Y-16874746D01*
X8415420Y-16874746D02*
X8424944Y-16827127D01*
X8424944Y-16827127D02*
X8434468Y-16798555D01*
X8434468Y-16798555D02*
X8443991Y-16779508D01*
X8443991Y-16779508D02*
X8463039Y-16750936D01*
X8463039Y-16750936D02*
X8472563Y-16741412D01*
X8653515Y-16969984D02*
X8539230Y-16969984D01*
X8596372Y-16969984D02*
X8596372Y-16769984D01*
X8596372Y-16769984D02*
X8577325Y-16798555D01*
X8577325Y-16798555D02*
X8558277Y-16817603D01*
X8558277Y-16817603D02*
X8539230Y-16827127D01*
X8729706Y-16789031D02*
X8739230Y-16779508D01*
X8739230Y-16779508D02*
X8758277Y-16769984D01*
X8758277Y-16769984D02*
X8805896Y-16769984D01*
X8805896Y-16769984D02*
X8824944Y-16779508D01*
X8824944Y-16779508D02*
X8834468Y-16789031D01*
X8834468Y-16789031D02*
X8843991Y-16808079D01*
X8843991Y-16808079D02*
X8843991Y-16827127D01*
X8843991Y-16827127D02*
X8834468Y-16855698D01*
X8834468Y-16855698D02*
X8720182Y-16969984D01*
X8720182Y-16969984D02*
X8843991Y-16969984D01*
X9082087Y-16969984D02*
X9082087Y-16769984D01*
X9167801Y-16969984D02*
X9167801Y-16865222D01*
X9167801Y-16865222D02*
X9158277Y-16846174D01*
X9158277Y-16846174D02*
X9139230Y-16836650D01*
X9139230Y-16836650D02*
X9110658Y-16836650D01*
X9110658Y-16836650D02*
X9091611Y-16846174D01*
X9091611Y-16846174D02*
X9082087Y-16855698D01*
X9291611Y-16969984D02*
X9272563Y-16960460D01*
X9272563Y-16960460D02*
X9263039Y-16950936D01*
X9263039Y-16950936D02*
X9253515Y-16931889D01*
X9253515Y-16931889D02*
X9253515Y-16874746D01*
X9253515Y-16874746D02*
X9263039Y-16855698D01*
X9263039Y-16855698D02*
X9272563Y-16846174D01*
X9272563Y-16846174D02*
X9291611Y-16836650D01*
X9291611Y-16836650D02*
X9320182Y-16836650D01*
X9320182Y-16836650D02*
X9339230Y-16846174D01*
X9339230Y-16846174D02*
X9348753Y-16855698D01*
X9348753Y-16855698D02*
X9358277Y-16874746D01*
X9358277Y-16874746D02*
X9358277Y-16931889D01*
X9358277Y-16931889D02*
X9348753Y-16950936D01*
X9348753Y-16950936D02*
X9339230Y-16960460D01*
X9339230Y-16960460D02*
X9320182Y-16969984D01*
X9320182Y-16969984D02*
X9291611Y-16969984D01*
X9472563Y-16969984D02*
X9453515Y-16960460D01*
X9453515Y-16960460D02*
X9443992Y-16941412D01*
X9443992Y-16941412D02*
X9443992Y-16769984D01*
X9624944Y-16960460D02*
X9605896Y-16969984D01*
X9605896Y-16969984D02*
X9567801Y-16969984D01*
X9567801Y-16969984D02*
X9548753Y-16960460D01*
X9548753Y-16960460D02*
X9539230Y-16941412D01*
X9539230Y-16941412D02*
X9539230Y-16865222D01*
X9539230Y-16865222D02*
X9548753Y-16846174D01*
X9548753Y-16846174D02*
X9567801Y-16836650D01*
X9567801Y-16836650D02*
X9605896Y-16836650D01*
X9605896Y-16836650D02*
X9624944Y-16846174D01*
X9624944Y-16846174D02*
X9634468Y-16865222D01*
X9634468Y-16865222D02*
X9634468Y-16884270D01*
X9634468Y-16884270D02*
X9539230Y-16903317D01*
X9710658Y-16960460D02*
X9729706Y-16969984D01*
X9729706Y-16969984D02*
X9767801Y-16969984D01*
X9767801Y-16969984D02*
X9786849Y-16960460D01*
X9786849Y-16960460D02*
X9796373Y-16941412D01*
X9796373Y-16941412D02*
X9796373Y-16931889D01*
X9796373Y-16931889D02*
X9786849Y-16912841D01*
X9786849Y-16912841D02*
X9767801Y-16903317D01*
X9767801Y-16903317D02*
X9739230Y-16903317D01*
X9739230Y-16903317D02*
X9720182Y-16893793D01*
X9720182Y-16893793D02*
X9710658Y-16874746D01*
X9710658Y-16874746D02*
X9710658Y-16865222D01*
X9710658Y-16865222D02*
X9720182Y-16846174D01*
X9720182Y-16846174D02*
X9739230Y-16836650D01*
X9739230Y-16836650D02*
X9767801Y-16836650D01*
X9767801Y-16836650D02*
X9786849Y-16846174D01*
X9863039Y-17046174D02*
X9872563Y-17036650D01*
X9872563Y-17036650D02*
X9891611Y-17008079D01*
X9891611Y-17008079D02*
X9901134Y-16989031D01*
X9901134Y-16989031D02*
X9910658Y-16960460D01*
X9910658Y-16960460D02*
X9920182Y-16912841D01*
X9920182Y-16912841D02*
X9920182Y-16874746D01*
X9920182Y-16874746D02*
X9910658Y-16827127D01*
X9910658Y-16827127D02*
X9901134Y-16798555D01*
X9901134Y-16798555D02*
X9891611Y-16779508D01*
X9891611Y-16779508D02*
X9872563Y-16750936D01*
X9872563Y-16750936D02*
X9863039Y-16741412D01*
D13*
X4745500Y-17066500D02*
X4897500Y-17218500D01*
X4897500Y-17066500D02*
X4745500Y-17218500D01*
X4897500Y-17142500D02*
G75*
G02*
X4745500Y-17142500I-76000J0D01*
G01*
X4745500Y-17142500D02*
G75*
G02*
X4897500Y-17142500I76000J0D01*
G01*
D11*
X5263039Y-17233984D02*
X5148753Y-17233984D01*
X5205896Y-17233984D02*
X5205896Y-17033984D01*
X5205896Y-17033984D02*
X5186848Y-17062555D01*
X5186848Y-17062555D02*
X5167801Y-17081603D01*
X5167801Y-17081603D02*
X5148753Y-17091127D01*
X5348753Y-17214936D02*
X5358277Y-17224460D01*
X5358277Y-17224460D02*
X5348753Y-17233984D01*
X5348753Y-17233984D02*
X5339229Y-17224460D01*
X5339229Y-17224460D02*
X5348753Y-17214936D01*
X5348753Y-17214936D02*
X5348753Y-17233984D01*
X5539229Y-17033984D02*
X5443991Y-17033984D01*
X5443991Y-17033984D02*
X5434467Y-17129222D01*
X5434467Y-17129222D02*
X5443991Y-17119698D01*
X5443991Y-17119698D02*
X5463039Y-17110174D01*
X5463039Y-17110174D02*
X5510658Y-17110174D01*
X5510658Y-17110174D02*
X5529705Y-17119698D01*
X5529705Y-17119698D02*
X5539229Y-17129222D01*
X5539229Y-17129222D02*
X5548753Y-17148270D01*
X5548753Y-17148270D02*
X5548753Y-17195889D01*
X5548753Y-17195889D02*
X5539229Y-17214936D01*
X5539229Y-17214936D02*
X5529705Y-17224460D01*
X5529705Y-17224460D02*
X5510658Y-17233984D01*
X5510658Y-17233984D02*
X5463039Y-17233984D01*
X5463039Y-17233984D02*
X5443991Y-17224460D01*
X5443991Y-17224460D02*
X5434467Y-17214936D01*
X5624943Y-17053031D02*
X5634467Y-17043508D01*
X5634467Y-17043508D02*
X5653515Y-17033984D01*
X5653515Y-17033984D02*
X5701134Y-17033984D01*
X5701134Y-17033984D02*
X5720182Y-17043508D01*
X5720182Y-17043508D02*
X5729705Y-17053031D01*
X5729705Y-17053031D02*
X5739229Y-17072079D01*
X5739229Y-17072079D02*
X5739229Y-17091127D01*
X5739229Y-17091127D02*
X5729705Y-17119698D01*
X5729705Y-17119698D02*
X5615420Y-17233984D01*
X5615420Y-17233984D02*
X5739229Y-17233984D01*
X5863039Y-17033984D02*
X5882086Y-17033984D01*
X5882086Y-17033984D02*
X5901134Y-17043508D01*
X5901134Y-17043508D02*
X5910658Y-17053031D01*
X5910658Y-17053031D02*
X5920182Y-17072079D01*
X5920182Y-17072079D02*
X5929705Y-17110174D01*
X5929705Y-17110174D02*
X5929705Y-17157793D01*
X5929705Y-17157793D02*
X5920182Y-17195889D01*
X5920182Y-17195889D02*
X5910658Y-17214936D01*
X5910658Y-17214936D02*
X5901134Y-17224460D01*
X5901134Y-17224460D02*
X5882086Y-17233984D01*
X5882086Y-17233984D02*
X5863039Y-17233984D01*
X5863039Y-17233984D02*
X5843991Y-17224460D01*
X5843991Y-17224460D02*
X5834467Y-17214936D01*
X5834467Y-17214936D02*
X5824943Y-17195889D01*
X5824943Y-17195889D02*
X5815420Y-17157793D01*
X5815420Y-17157793D02*
X5815420Y-17110174D01*
X5815420Y-17110174D02*
X5824943Y-17072079D01*
X5824943Y-17072079D02*
X5834467Y-17053031D01*
X5834467Y-17053031D02*
X5843991Y-17043508D01*
X5843991Y-17043508D02*
X5863039Y-17033984D01*
X6015420Y-17233984D02*
X6015420Y-17100650D01*
X6015420Y-17119698D02*
X6024943Y-17110174D01*
X6024943Y-17110174D02*
X6043991Y-17100650D01*
X6043991Y-17100650D02*
X6072563Y-17100650D01*
X6072563Y-17100650D02*
X6091610Y-17110174D01*
X6091610Y-17110174D02*
X6101134Y-17129222D01*
X6101134Y-17129222D02*
X6101134Y-17233984D01*
X6101134Y-17129222D02*
X6110658Y-17110174D01*
X6110658Y-17110174D02*
X6129705Y-17100650D01*
X6129705Y-17100650D02*
X6158277Y-17100650D01*
X6158277Y-17100650D02*
X6177324Y-17110174D01*
X6177324Y-17110174D02*
X6186848Y-17129222D01*
X6186848Y-17129222D02*
X6186848Y-17233984D01*
X6282086Y-17233984D02*
X6282086Y-17100650D01*
X6282086Y-17119698D02*
X6291610Y-17110174D01*
X6291610Y-17110174D02*
X6310658Y-17100650D01*
X6310658Y-17100650D02*
X6339229Y-17100650D01*
X6339229Y-17100650D02*
X6358277Y-17110174D01*
X6358277Y-17110174D02*
X6367801Y-17129222D01*
X6367801Y-17129222D02*
X6367801Y-17233984D01*
X6367801Y-17129222D02*
X6377324Y-17110174D01*
X6377324Y-17110174D02*
X6396372Y-17100650D01*
X6396372Y-17100650D02*
X6424943Y-17100650D01*
X6424943Y-17100650D02*
X6443991Y-17110174D01*
X6443991Y-17110174D02*
X6453515Y-17129222D01*
X6453515Y-17129222D02*
X6453515Y-17233984D01*
X6843991Y-17024460D02*
X6672563Y-17281603D01*
X7101134Y-17033984D02*
X7120182Y-17033984D01*
X7120182Y-17033984D02*
X7139229Y-17043508D01*
X7139229Y-17043508D02*
X7148753Y-17053031D01*
X7148753Y-17053031D02*
X7158277Y-17072079D01*
X7158277Y-17072079D02*
X7167801Y-17110174D01*
X7167801Y-17110174D02*
X7167801Y-17157793D01*
X7167801Y-17157793D02*
X7158277Y-17195889D01*
X7158277Y-17195889D02*
X7148753Y-17214936D01*
X7148753Y-17214936D02*
X7139229Y-17224460D01*
X7139229Y-17224460D02*
X7120182Y-17233984D01*
X7120182Y-17233984D02*
X7101134Y-17233984D01*
X7101134Y-17233984D02*
X7082086Y-17224460D01*
X7082086Y-17224460D02*
X7072563Y-17214936D01*
X7072563Y-17214936D02*
X7063039Y-17195889D01*
X7063039Y-17195889D02*
X7053515Y-17157793D01*
X7053515Y-17157793D02*
X7053515Y-17110174D01*
X7053515Y-17110174D02*
X7063039Y-17072079D01*
X7063039Y-17072079D02*
X7072563Y-17053031D01*
X7072563Y-17053031D02*
X7082086Y-17043508D01*
X7082086Y-17043508D02*
X7101134Y-17033984D01*
X7253515Y-17214936D02*
X7263039Y-17224460D01*
X7263039Y-17224460D02*
X7253515Y-17233984D01*
X7253515Y-17233984D02*
X7243991Y-17224460D01*
X7243991Y-17224460D02*
X7253515Y-17214936D01*
X7253515Y-17214936D02*
X7253515Y-17233984D01*
X7386848Y-17033984D02*
X7405896Y-17033984D01*
X7405896Y-17033984D02*
X7424944Y-17043508D01*
X7424944Y-17043508D02*
X7434467Y-17053031D01*
X7434467Y-17053031D02*
X7443991Y-17072079D01*
X7443991Y-17072079D02*
X7453515Y-17110174D01*
X7453515Y-17110174D02*
X7453515Y-17157793D01*
X7453515Y-17157793D02*
X7443991Y-17195889D01*
X7443991Y-17195889D02*
X7434467Y-17214936D01*
X7434467Y-17214936D02*
X7424944Y-17224460D01*
X7424944Y-17224460D02*
X7405896Y-17233984D01*
X7405896Y-17233984D02*
X7386848Y-17233984D01*
X7386848Y-17233984D02*
X7367801Y-17224460D01*
X7367801Y-17224460D02*
X7358277Y-17214936D01*
X7358277Y-17214936D02*
X7348753Y-17195889D01*
X7348753Y-17195889D02*
X7339229Y-17157793D01*
X7339229Y-17157793D02*
X7339229Y-17110174D01*
X7339229Y-17110174D02*
X7348753Y-17072079D01*
X7348753Y-17072079D02*
X7358277Y-17053031D01*
X7358277Y-17053031D02*
X7367801Y-17043508D01*
X7367801Y-17043508D02*
X7386848Y-17033984D01*
X7634467Y-17033984D02*
X7539229Y-17033984D01*
X7539229Y-17033984D02*
X7529706Y-17129222D01*
X7529706Y-17129222D02*
X7539229Y-17119698D01*
X7539229Y-17119698D02*
X7558277Y-17110174D01*
X7558277Y-17110174D02*
X7605896Y-17110174D01*
X7605896Y-17110174D02*
X7624944Y-17119698D01*
X7624944Y-17119698D02*
X7634467Y-17129222D01*
X7634467Y-17129222D02*
X7643991Y-17148270D01*
X7643991Y-17148270D02*
X7643991Y-17195889D01*
X7643991Y-17195889D02*
X7634467Y-17214936D01*
X7634467Y-17214936D02*
X7624944Y-17224460D01*
X7624944Y-17224460D02*
X7605896Y-17233984D01*
X7605896Y-17233984D02*
X7558277Y-17233984D01*
X7558277Y-17233984D02*
X7539229Y-17224460D01*
X7539229Y-17224460D02*
X7529706Y-17214936D01*
X7739229Y-17233984D02*
X7777325Y-17233984D01*
X7777325Y-17233984D02*
X7796372Y-17224460D01*
X7796372Y-17224460D02*
X7805896Y-17214936D01*
X7805896Y-17214936D02*
X7824944Y-17186365D01*
X7824944Y-17186365D02*
X7834467Y-17148270D01*
X7834467Y-17148270D02*
X7834467Y-17072079D01*
X7834467Y-17072079D02*
X7824944Y-17053031D01*
X7824944Y-17053031D02*
X7815420Y-17043508D01*
X7815420Y-17043508D02*
X7796372Y-17033984D01*
X7796372Y-17033984D02*
X7758277Y-17033984D01*
X7758277Y-17033984D02*
X7739229Y-17043508D01*
X7739229Y-17043508D02*
X7729706Y-17053031D01*
X7729706Y-17053031D02*
X7720182Y-17072079D01*
X7720182Y-17072079D02*
X7720182Y-17119698D01*
X7720182Y-17119698D02*
X7729706Y-17138746D01*
X7729706Y-17138746D02*
X7739229Y-17148270D01*
X7739229Y-17148270D02*
X7758277Y-17157793D01*
X7758277Y-17157793D02*
X7796372Y-17157793D01*
X7796372Y-17157793D02*
X7815420Y-17148270D01*
X7815420Y-17148270D02*
X7824944Y-17138746D01*
X7824944Y-17138746D02*
X7834467Y-17119698D01*
X7948753Y-17119698D02*
X7929706Y-17110174D01*
X7929706Y-17110174D02*
X7920182Y-17100650D01*
X7920182Y-17100650D02*
X7910658Y-17081603D01*
X7910658Y-17081603D02*
X7910658Y-17072079D01*
X7910658Y-17072079D02*
X7920182Y-17053031D01*
X7920182Y-17053031D02*
X7929706Y-17043508D01*
X7929706Y-17043508D02*
X7948753Y-17033984D01*
X7948753Y-17033984D02*
X7986848Y-17033984D01*
X7986848Y-17033984D02*
X8005896Y-17043508D01*
X8005896Y-17043508D02*
X8015420Y-17053031D01*
X8015420Y-17053031D02*
X8024944Y-17072079D01*
X8024944Y-17072079D02*
X8024944Y-17081603D01*
X8024944Y-17081603D02*
X8015420Y-17100650D01*
X8015420Y-17100650D02*
X8005896Y-17110174D01*
X8005896Y-17110174D02*
X7986848Y-17119698D01*
X7986848Y-17119698D02*
X7948753Y-17119698D01*
X7948753Y-17119698D02*
X7929706Y-17129222D01*
X7929706Y-17129222D02*
X7920182Y-17138746D01*
X7920182Y-17138746D02*
X7910658Y-17157793D01*
X7910658Y-17157793D02*
X7910658Y-17195889D01*
X7910658Y-17195889D02*
X7920182Y-17214936D01*
X7920182Y-17214936D02*
X7929706Y-17224460D01*
X7929706Y-17224460D02*
X7948753Y-17233984D01*
X7948753Y-17233984D02*
X7986848Y-17233984D01*
X7986848Y-17233984D02*
X8005896Y-17224460D01*
X8005896Y-17224460D02*
X8015420Y-17214936D01*
X8015420Y-17214936D02*
X8024944Y-17195889D01*
X8024944Y-17195889D02*
X8024944Y-17157793D01*
X8024944Y-17157793D02*
X8015420Y-17138746D01*
X8015420Y-17138746D02*
X8005896Y-17129222D01*
X8005896Y-17129222D02*
X7986848Y-17119698D01*
X8101134Y-17033984D02*
X8101134Y-17072079D01*
X8177325Y-17033984D02*
X8177325Y-17072079D01*
X8472563Y-17310174D02*
X8463039Y-17300650D01*
X8463039Y-17300650D02*
X8443991Y-17272079D01*
X8443991Y-17272079D02*
X8434468Y-17253031D01*
X8434468Y-17253031D02*
X8424944Y-17224460D01*
X8424944Y-17224460D02*
X8415420Y-17176841D01*
X8415420Y-17176841D02*
X8415420Y-17138746D01*
X8415420Y-17138746D02*
X8424944Y-17091127D01*
X8424944Y-17091127D02*
X8434468Y-17062555D01*
X8434468Y-17062555D02*
X8443991Y-17043508D01*
X8443991Y-17043508D02*
X8463039Y-17014936D01*
X8463039Y-17014936D02*
X8472563Y-17005412D01*
X8539230Y-17053031D02*
X8548753Y-17043508D01*
X8548753Y-17043508D02*
X8567801Y-17033984D01*
X8567801Y-17033984D02*
X8615420Y-17033984D01*
X8615420Y-17033984D02*
X8634468Y-17043508D01*
X8634468Y-17043508D02*
X8643991Y-17053031D01*
X8643991Y-17053031D02*
X8653515Y-17072079D01*
X8653515Y-17072079D02*
X8653515Y-17091127D01*
X8653515Y-17091127D02*
X8643991Y-17119698D01*
X8643991Y-17119698D02*
X8529706Y-17233984D01*
X8529706Y-17233984D02*
X8653515Y-17233984D01*
X8891611Y-17233984D02*
X8891611Y-17033984D01*
X8977325Y-17233984D02*
X8977325Y-17129222D01*
X8977325Y-17129222D02*
X8967801Y-17110174D01*
X8967801Y-17110174D02*
X8948753Y-17100650D01*
X8948753Y-17100650D02*
X8920182Y-17100650D01*
X8920182Y-17100650D02*
X8901134Y-17110174D01*
X8901134Y-17110174D02*
X8891611Y-17119698D01*
X9101134Y-17233984D02*
X9082087Y-17224460D01*
X9082087Y-17224460D02*
X9072563Y-17214936D01*
X9072563Y-17214936D02*
X9063039Y-17195889D01*
X9063039Y-17195889D02*
X9063039Y-17138746D01*
X9063039Y-17138746D02*
X9072563Y-17119698D01*
X9072563Y-17119698D02*
X9082087Y-17110174D01*
X9082087Y-17110174D02*
X9101134Y-17100650D01*
X9101134Y-17100650D02*
X9129706Y-17100650D01*
X9129706Y-17100650D02*
X9148753Y-17110174D01*
X9148753Y-17110174D02*
X9158277Y-17119698D01*
X9158277Y-17119698D02*
X9167801Y-17138746D01*
X9167801Y-17138746D02*
X9167801Y-17195889D01*
X9167801Y-17195889D02*
X9158277Y-17214936D01*
X9158277Y-17214936D02*
X9148753Y-17224460D01*
X9148753Y-17224460D02*
X9129706Y-17233984D01*
X9129706Y-17233984D02*
X9101134Y-17233984D01*
X9282087Y-17233984D02*
X9263039Y-17224460D01*
X9263039Y-17224460D02*
X9253515Y-17205412D01*
X9253515Y-17205412D02*
X9253515Y-17033984D01*
X9434468Y-17224460D02*
X9415420Y-17233984D01*
X9415420Y-17233984D02*
X9377325Y-17233984D01*
X9377325Y-17233984D02*
X9358277Y-17224460D01*
X9358277Y-17224460D02*
X9348753Y-17205412D01*
X9348753Y-17205412D02*
X9348753Y-17129222D01*
X9348753Y-17129222D02*
X9358277Y-17110174D01*
X9358277Y-17110174D02*
X9377325Y-17100650D01*
X9377325Y-17100650D02*
X9415420Y-17100650D01*
X9415420Y-17100650D02*
X9434468Y-17110174D01*
X9434468Y-17110174D02*
X9443992Y-17129222D01*
X9443992Y-17129222D02*
X9443992Y-17148270D01*
X9443992Y-17148270D02*
X9348753Y-17167317D01*
X9520182Y-17224460D02*
X9539230Y-17233984D01*
X9539230Y-17233984D02*
X9577325Y-17233984D01*
X9577325Y-17233984D02*
X9596373Y-17224460D01*
X9596373Y-17224460D02*
X9605896Y-17205412D01*
X9605896Y-17205412D02*
X9605896Y-17195889D01*
X9605896Y-17195889D02*
X9596373Y-17176841D01*
X9596373Y-17176841D02*
X9577325Y-17167317D01*
X9577325Y-17167317D02*
X9548753Y-17167317D01*
X9548753Y-17167317D02*
X9529706Y-17157793D01*
X9529706Y-17157793D02*
X9520182Y-17138746D01*
X9520182Y-17138746D02*
X9520182Y-17129222D01*
X9520182Y-17129222D02*
X9529706Y-17110174D01*
X9529706Y-17110174D02*
X9548753Y-17100650D01*
X9548753Y-17100650D02*
X9577325Y-17100650D01*
X9577325Y-17100650D02*
X9596373Y-17110174D01*
X9672563Y-17310174D02*
X9682087Y-17300650D01*
X9682087Y-17300650D02*
X9701134Y-17272079D01*
X9701134Y-17272079D02*
X9710658Y-17253031D01*
X9710658Y-17253031D02*
X9720182Y-17224460D01*
X9720182Y-17224460D02*
X9729706Y-17176841D01*
X9729706Y-17176841D02*
X9729706Y-17138746D01*
X9729706Y-17138746D02*
X9720182Y-17091127D01*
X9720182Y-17091127D02*
X9710658Y-17062555D01*
X9710658Y-17062555D02*
X9701134Y-17043508D01*
X9701134Y-17043508D02*
X9682087Y-17014936D01*
X9682087Y-17014936D02*
X9672563Y-17005412D01*
D14*
X4717500Y-17324500D02*
X4897500Y-17504500D01*
X4897500Y-17324500D02*
X4717500Y-17504500D01*
X4807500Y-17324500D02*
X4807500Y-17504500D01*
X4717500Y-17414500D02*
X4897500Y-17414500D01*
D11*
X5263039Y-17505984D02*
X5148753Y-17505984D01*
X5205896Y-17505984D02*
X5205896Y-17305984D01*
X5205896Y-17305984D02*
X5186848Y-17334555D01*
X5186848Y-17334555D02*
X5167801Y-17353603D01*
X5167801Y-17353603D02*
X5148753Y-17363127D01*
X5348753Y-17486936D02*
X5358277Y-17496460D01*
X5358277Y-17496460D02*
X5348753Y-17505984D01*
X5348753Y-17505984D02*
X5339229Y-17496460D01*
X5339229Y-17496460D02*
X5348753Y-17486936D01*
X5348753Y-17486936D02*
X5348753Y-17505984D01*
X5472563Y-17391698D02*
X5453515Y-17382174D01*
X5453515Y-17382174D02*
X5443991Y-17372650D01*
X5443991Y-17372650D02*
X5434467Y-17353603D01*
X5434467Y-17353603D02*
X5434467Y-17344079D01*
X5434467Y-17344079D02*
X5443991Y-17325031D01*
X5443991Y-17325031D02*
X5453515Y-17315508D01*
X5453515Y-17315508D02*
X5472563Y-17305984D01*
X5472563Y-17305984D02*
X5510658Y-17305984D01*
X5510658Y-17305984D02*
X5529705Y-17315508D01*
X5529705Y-17315508D02*
X5539229Y-17325031D01*
X5539229Y-17325031D02*
X5548753Y-17344079D01*
X5548753Y-17344079D02*
X5548753Y-17353603D01*
X5548753Y-17353603D02*
X5539229Y-17372650D01*
X5539229Y-17372650D02*
X5529705Y-17382174D01*
X5529705Y-17382174D02*
X5510658Y-17391698D01*
X5510658Y-17391698D02*
X5472563Y-17391698D01*
X5472563Y-17391698D02*
X5453515Y-17401222D01*
X5453515Y-17401222D02*
X5443991Y-17410746D01*
X5443991Y-17410746D02*
X5434467Y-17429793D01*
X5434467Y-17429793D02*
X5434467Y-17467889D01*
X5434467Y-17467889D02*
X5443991Y-17486936D01*
X5443991Y-17486936D02*
X5453515Y-17496460D01*
X5453515Y-17496460D02*
X5472563Y-17505984D01*
X5472563Y-17505984D02*
X5510658Y-17505984D01*
X5510658Y-17505984D02*
X5529705Y-17496460D01*
X5529705Y-17496460D02*
X5539229Y-17486936D01*
X5539229Y-17486936D02*
X5548753Y-17467889D01*
X5548753Y-17467889D02*
X5548753Y-17429793D01*
X5548753Y-17429793D02*
X5539229Y-17410746D01*
X5539229Y-17410746D02*
X5529705Y-17401222D01*
X5529705Y-17401222D02*
X5510658Y-17391698D01*
X5672562Y-17305984D02*
X5691610Y-17305984D01*
X5691610Y-17305984D02*
X5710658Y-17315508D01*
X5710658Y-17315508D02*
X5720182Y-17325031D01*
X5720182Y-17325031D02*
X5729705Y-17344079D01*
X5729705Y-17344079D02*
X5739229Y-17382174D01*
X5739229Y-17382174D02*
X5739229Y-17429793D01*
X5739229Y-17429793D02*
X5729705Y-17467889D01*
X5729705Y-17467889D02*
X5720182Y-17486936D01*
X5720182Y-17486936D02*
X5710658Y-17496460D01*
X5710658Y-17496460D02*
X5691610Y-17505984D01*
X5691610Y-17505984D02*
X5672562Y-17505984D01*
X5672562Y-17505984D02*
X5653515Y-17496460D01*
X5653515Y-17496460D02*
X5643991Y-17486936D01*
X5643991Y-17486936D02*
X5634467Y-17467889D01*
X5634467Y-17467889D02*
X5624943Y-17429793D01*
X5624943Y-17429793D02*
X5624943Y-17382174D01*
X5624943Y-17382174D02*
X5634467Y-17344079D01*
X5634467Y-17344079D02*
X5643991Y-17325031D01*
X5643991Y-17325031D02*
X5653515Y-17315508D01*
X5653515Y-17315508D02*
X5672562Y-17305984D01*
X5863039Y-17305984D02*
X5882086Y-17305984D01*
X5882086Y-17305984D02*
X5901134Y-17315508D01*
X5901134Y-17315508D02*
X5910658Y-17325031D01*
X5910658Y-17325031D02*
X5920182Y-17344079D01*
X5920182Y-17344079D02*
X5929705Y-17382174D01*
X5929705Y-17382174D02*
X5929705Y-17429793D01*
X5929705Y-17429793D02*
X5920182Y-17467889D01*
X5920182Y-17467889D02*
X5910658Y-17486936D01*
X5910658Y-17486936D02*
X5901134Y-17496460D01*
X5901134Y-17496460D02*
X5882086Y-17505984D01*
X5882086Y-17505984D02*
X5863039Y-17505984D01*
X5863039Y-17505984D02*
X5843991Y-17496460D01*
X5843991Y-17496460D02*
X5834467Y-17486936D01*
X5834467Y-17486936D02*
X5824943Y-17467889D01*
X5824943Y-17467889D02*
X5815420Y-17429793D01*
X5815420Y-17429793D02*
X5815420Y-17382174D01*
X5815420Y-17382174D02*
X5824943Y-17344079D01*
X5824943Y-17344079D02*
X5834467Y-17325031D01*
X5834467Y-17325031D02*
X5843991Y-17315508D01*
X5843991Y-17315508D02*
X5863039Y-17305984D01*
X6015420Y-17505984D02*
X6015420Y-17372650D01*
X6015420Y-17391698D02*
X6024943Y-17382174D01*
X6024943Y-17382174D02*
X6043991Y-17372650D01*
X6043991Y-17372650D02*
X6072563Y-17372650D01*
X6072563Y-17372650D02*
X6091610Y-17382174D01*
X6091610Y-17382174D02*
X6101134Y-17401222D01*
X6101134Y-17401222D02*
X6101134Y-17505984D01*
X6101134Y-17401222D02*
X6110658Y-17382174D01*
X6110658Y-17382174D02*
X6129705Y-17372650D01*
X6129705Y-17372650D02*
X6158277Y-17372650D01*
X6158277Y-17372650D02*
X6177324Y-17382174D01*
X6177324Y-17382174D02*
X6186848Y-17401222D01*
X6186848Y-17401222D02*
X6186848Y-17505984D01*
X6282086Y-17505984D02*
X6282086Y-17372650D01*
X6282086Y-17391698D02*
X6291610Y-17382174D01*
X6291610Y-17382174D02*
X6310658Y-17372650D01*
X6310658Y-17372650D02*
X6339229Y-17372650D01*
X6339229Y-17372650D02*
X6358277Y-17382174D01*
X6358277Y-17382174D02*
X6367801Y-17401222D01*
X6367801Y-17401222D02*
X6367801Y-17505984D01*
X6367801Y-17401222D02*
X6377324Y-17382174D01*
X6377324Y-17382174D02*
X6396372Y-17372650D01*
X6396372Y-17372650D02*
X6424943Y-17372650D01*
X6424943Y-17372650D02*
X6443991Y-17382174D01*
X6443991Y-17382174D02*
X6453515Y-17401222D01*
X6453515Y-17401222D02*
X6453515Y-17505984D01*
X6843991Y-17296460D02*
X6672563Y-17553603D01*
X7101134Y-17305984D02*
X7120182Y-17305984D01*
X7120182Y-17305984D02*
X7139229Y-17315508D01*
X7139229Y-17315508D02*
X7148753Y-17325031D01*
X7148753Y-17325031D02*
X7158277Y-17344079D01*
X7158277Y-17344079D02*
X7167801Y-17382174D01*
X7167801Y-17382174D02*
X7167801Y-17429793D01*
X7167801Y-17429793D02*
X7158277Y-17467889D01*
X7158277Y-17467889D02*
X7148753Y-17486936D01*
X7148753Y-17486936D02*
X7139229Y-17496460D01*
X7139229Y-17496460D02*
X7120182Y-17505984D01*
X7120182Y-17505984D02*
X7101134Y-17505984D01*
X7101134Y-17505984D02*
X7082086Y-17496460D01*
X7082086Y-17496460D02*
X7072563Y-17486936D01*
X7072563Y-17486936D02*
X7063039Y-17467889D01*
X7063039Y-17467889D02*
X7053515Y-17429793D01*
X7053515Y-17429793D02*
X7053515Y-17382174D01*
X7053515Y-17382174D02*
X7063039Y-17344079D01*
X7063039Y-17344079D02*
X7072563Y-17325031D01*
X7072563Y-17325031D02*
X7082086Y-17315508D01*
X7082086Y-17315508D02*
X7101134Y-17305984D01*
X7253515Y-17486936D02*
X7263039Y-17496460D01*
X7263039Y-17496460D02*
X7253515Y-17505984D01*
X7253515Y-17505984D02*
X7243991Y-17496460D01*
X7243991Y-17496460D02*
X7253515Y-17486936D01*
X7253515Y-17486936D02*
X7253515Y-17505984D01*
X7386848Y-17305984D02*
X7405896Y-17305984D01*
X7405896Y-17305984D02*
X7424944Y-17315508D01*
X7424944Y-17315508D02*
X7434467Y-17325031D01*
X7434467Y-17325031D02*
X7443991Y-17344079D01*
X7443991Y-17344079D02*
X7453515Y-17382174D01*
X7453515Y-17382174D02*
X7453515Y-17429793D01*
X7453515Y-17429793D02*
X7443991Y-17467889D01*
X7443991Y-17467889D02*
X7434467Y-17486936D01*
X7434467Y-17486936D02*
X7424944Y-17496460D01*
X7424944Y-17496460D02*
X7405896Y-17505984D01*
X7405896Y-17505984D02*
X7386848Y-17505984D01*
X7386848Y-17505984D02*
X7367801Y-17496460D01*
X7367801Y-17496460D02*
X7358277Y-17486936D01*
X7358277Y-17486936D02*
X7348753Y-17467889D01*
X7348753Y-17467889D02*
X7339229Y-17429793D01*
X7339229Y-17429793D02*
X7339229Y-17382174D01*
X7339229Y-17382174D02*
X7348753Y-17344079D01*
X7348753Y-17344079D02*
X7358277Y-17325031D01*
X7358277Y-17325031D02*
X7367801Y-17315508D01*
X7367801Y-17315508D02*
X7386848Y-17305984D01*
X7520182Y-17305984D02*
X7653515Y-17305984D01*
X7653515Y-17305984D02*
X7567801Y-17505984D01*
X7767801Y-17305984D02*
X7786848Y-17305984D01*
X7786848Y-17305984D02*
X7805896Y-17315508D01*
X7805896Y-17315508D02*
X7815420Y-17325031D01*
X7815420Y-17325031D02*
X7824944Y-17344079D01*
X7824944Y-17344079D02*
X7834467Y-17382174D01*
X7834467Y-17382174D02*
X7834467Y-17429793D01*
X7834467Y-17429793D02*
X7824944Y-17467889D01*
X7824944Y-17467889D02*
X7815420Y-17486936D01*
X7815420Y-17486936D02*
X7805896Y-17496460D01*
X7805896Y-17496460D02*
X7786848Y-17505984D01*
X7786848Y-17505984D02*
X7767801Y-17505984D01*
X7767801Y-17505984D02*
X7748753Y-17496460D01*
X7748753Y-17496460D02*
X7739229Y-17486936D01*
X7739229Y-17486936D02*
X7729706Y-17467889D01*
X7729706Y-17467889D02*
X7720182Y-17429793D01*
X7720182Y-17429793D02*
X7720182Y-17382174D01*
X7720182Y-17382174D02*
X7729706Y-17344079D01*
X7729706Y-17344079D02*
X7739229Y-17325031D01*
X7739229Y-17325031D02*
X7748753Y-17315508D01*
X7748753Y-17315508D02*
X7767801Y-17305984D01*
X7929706Y-17505984D02*
X7967801Y-17505984D01*
X7967801Y-17505984D02*
X7986848Y-17496460D01*
X7986848Y-17496460D02*
X7996372Y-17486936D01*
X7996372Y-17486936D02*
X8015420Y-17458365D01*
X8015420Y-17458365D02*
X8024944Y-17420270D01*
X8024944Y-17420270D02*
X8024944Y-17344079D01*
X8024944Y-17344079D02*
X8015420Y-17325031D01*
X8015420Y-17325031D02*
X8005896Y-17315508D01*
X8005896Y-17315508D02*
X7986848Y-17305984D01*
X7986848Y-17305984D02*
X7948753Y-17305984D01*
X7948753Y-17305984D02*
X7929706Y-17315508D01*
X7929706Y-17315508D02*
X7920182Y-17325031D01*
X7920182Y-17325031D02*
X7910658Y-17344079D01*
X7910658Y-17344079D02*
X7910658Y-17391698D01*
X7910658Y-17391698D02*
X7920182Y-17410746D01*
X7920182Y-17410746D02*
X7929706Y-17420270D01*
X7929706Y-17420270D02*
X7948753Y-17429793D01*
X7948753Y-17429793D02*
X7986848Y-17429793D01*
X7986848Y-17429793D02*
X8005896Y-17420270D01*
X8005896Y-17420270D02*
X8015420Y-17410746D01*
X8015420Y-17410746D02*
X8024944Y-17391698D01*
X8101134Y-17305984D02*
X8101134Y-17344079D01*
X8177325Y-17305984D02*
X8177325Y-17344079D01*
X8472563Y-17582174D02*
X8463039Y-17572650D01*
X8463039Y-17572650D02*
X8443991Y-17544079D01*
X8443991Y-17544079D02*
X8434468Y-17525031D01*
X8434468Y-17525031D02*
X8424944Y-17496460D01*
X8424944Y-17496460D02*
X8415420Y-17448841D01*
X8415420Y-17448841D02*
X8415420Y-17410746D01*
X8415420Y-17410746D02*
X8424944Y-17363127D01*
X8424944Y-17363127D02*
X8434468Y-17334555D01*
X8434468Y-17334555D02*
X8443991Y-17315508D01*
X8443991Y-17315508D02*
X8463039Y-17286936D01*
X8463039Y-17286936D02*
X8472563Y-17277412D01*
X8653515Y-17505984D02*
X8539230Y-17505984D01*
X8596372Y-17505984D02*
X8596372Y-17305984D01*
X8596372Y-17305984D02*
X8577325Y-17334555D01*
X8577325Y-17334555D02*
X8558277Y-17353603D01*
X8558277Y-17353603D02*
X8539230Y-17363127D01*
X8748753Y-17505984D02*
X8786849Y-17505984D01*
X8786849Y-17505984D02*
X8805896Y-17496460D01*
X8805896Y-17496460D02*
X8815420Y-17486936D01*
X8815420Y-17486936D02*
X8834468Y-17458365D01*
X8834468Y-17458365D02*
X8843991Y-17420270D01*
X8843991Y-17420270D02*
X8843991Y-17344079D01*
X8843991Y-17344079D02*
X8834468Y-17325031D01*
X8834468Y-17325031D02*
X8824944Y-17315508D01*
X8824944Y-17315508D02*
X8805896Y-17305984D01*
X8805896Y-17305984D02*
X8767801Y-17305984D01*
X8767801Y-17305984D02*
X8748753Y-17315508D01*
X8748753Y-17315508D02*
X8739230Y-17325031D01*
X8739230Y-17325031D02*
X8729706Y-17344079D01*
X8729706Y-17344079D02*
X8729706Y-17391698D01*
X8729706Y-17391698D02*
X8739230Y-17410746D01*
X8739230Y-17410746D02*
X8748753Y-17420270D01*
X8748753Y-17420270D02*
X8767801Y-17429793D01*
X8767801Y-17429793D02*
X8805896Y-17429793D01*
X8805896Y-17429793D02*
X8824944Y-17420270D01*
X8824944Y-17420270D02*
X8834468Y-17410746D01*
X8834468Y-17410746D02*
X8843991Y-17391698D01*
X9082087Y-17505984D02*
X9082087Y-17305984D01*
X9167801Y-17505984D02*
X9167801Y-17401222D01*
X9167801Y-17401222D02*
X9158277Y-17382174D01*
X9158277Y-17382174D02*
X9139230Y-17372650D01*
X9139230Y-17372650D02*
X9110658Y-17372650D01*
X9110658Y-17372650D02*
X9091611Y-17382174D01*
X9091611Y-17382174D02*
X9082087Y-17391698D01*
X9291611Y-17505984D02*
X9272563Y-17496460D01*
X9272563Y-17496460D02*
X9263039Y-17486936D01*
X9263039Y-17486936D02*
X9253515Y-17467889D01*
X9253515Y-17467889D02*
X9253515Y-17410746D01*
X9253515Y-17410746D02*
X9263039Y-17391698D01*
X9263039Y-17391698D02*
X9272563Y-17382174D01*
X9272563Y-17382174D02*
X9291611Y-17372650D01*
X9291611Y-17372650D02*
X9320182Y-17372650D01*
X9320182Y-17372650D02*
X9339230Y-17382174D01*
X9339230Y-17382174D02*
X9348753Y-17391698D01*
X9348753Y-17391698D02*
X9358277Y-17410746D01*
X9358277Y-17410746D02*
X9358277Y-17467889D01*
X9358277Y-17467889D02*
X9348753Y-17486936D01*
X9348753Y-17486936D02*
X9339230Y-17496460D01*
X9339230Y-17496460D02*
X9320182Y-17505984D01*
X9320182Y-17505984D02*
X9291611Y-17505984D01*
X9472563Y-17505984D02*
X9453515Y-17496460D01*
X9453515Y-17496460D02*
X9443992Y-17477412D01*
X9443992Y-17477412D02*
X9443992Y-17305984D01*
X9624944Y-17496460D02*
X9605896Y-17505984D01*
X9605896Y-17505984D02*
X9567801Y-17505984D01*
X9567801Y-17505984D02*
X9548753Y-17496460D01*
X9548753Y-17496460D02*
X9539230Y-17477412D01*
X9539230Y-17477412D02*
X9539230Y-17401222D01*
X9539230Y-17401222D02*
X9548753Y-17382174D01*
X9548753Y-17382174D02*
X9567801Y-17372650D01*
X9567801Y-17372650D02*
X9605896Y-17372650D01*
X9605896Y-17372650D02*
X9624944Y-17382174D01*
X9624944Y-17382174D02*
X9634468Y-17401222D01*
X9634468Y-17401222D02*
X9634468Y-17420270D01*
X9634468Y-17420270D02*
X9539230Y-17439317D01*
X9710658Y-17496460D02*
X9729706Y-17505984D01*
X9729706Y-17505984D02*
X9767801Y-17505984D01*
X9767801Y-17505984D02*
X9786849Y-17496460D01*
X9786849Y-17496460D02*
X9796373Y-17477412D01*
X9796373Y-17477412D02*
X9796373Y-17467889D01*
X9796373Y-17467889D02*
X9786849Y-17448841D01*
X9786849Y-17448841D02*
X9767801Y-17439317D01*
X9767801Y-17439317D02*
X9739230Y-17439317D01*
X9739230Y-17439317D02*
X9720182Y-17429793D01*
X9720182Y-17429793D02*
X9710658Y-17410746D01*
X9710658Y-17410746D02*
X9710658Y-17401222D01*
X9710658Y-17401222D02*
X9720182Y-17382174D01*
X9720182Y-17382174D02*
X9739230Y-17372650D01*
X9739230Y-17372650D02*
X9767801Y-17372650D01*
X9767801Y-17372650D02*
X9786849Y-17382174D01*
X9863039Y-17582174D02*
X9872563Y-17572650D01*
X9872563Y-17572650D02*
X9891611Y-17544079D01*
X9891611Y-17544079D02*
X9901134Y-17525031D01*
X9901134Y-17525031D02*
X9910658Y-17496460D01*
X9910658Y-17496460D02*
X9920182Y-17448841D01*
X9920182Y-17448841D02*
X9920182Y-17410746D01*
X9920182Y-17410746D02*
X9910658Y-17363127D01*
X9910658Y-17363127D02*
X9901134Y-17334555D01*
X9901134Y-17334555D02*
X9891611Y-17315508D01*
X9891611Y-17315508D02*
X9872563Y-17286936D01*
X9872563Y-17286936D02*
X9863039Y-17277412D01*
D15*
X4707500Y-17619500D02*
X4897500Y-17809500D01*
X4897500Y-17619500D02*
X4707500Y-17809500D01*
X4869676Y-17781676D02*
X4869676Y-17647324D01*
X4735324Y-17647324D01*
X4735324Y-17781676D01*
X4869676Y-17781676D01*
D11*
X5263039Y-17805984D02*
X5148753Y-17805984D01*
X5205896Y-17805984D02*
X5205896Y-17605984D01*
X5205896Y-17605984D02*
X5186848Y-17634555D01*
X5186848Y-17634555D02*
X5167801Y-17653603D01*
X5167801Y-17653603D02*
X5148753Y-17663127D01*
X5348753Y-17786936D02*
X5358277Y-17796460D01*
X5358277Y-17796460D02*
X5348753Y-17805984D01*
X5348753Y-17805984D02*
X5339229Y-17796460D01*
X5339229Y-17796460D02*
X5348753Y-17786936D01*
X5348753Y-17786936D02*
X5348753Y-17805984D01*
X5453515Y-17805984D02*
X5491610Y-17805984D01*
X5491610Y-17805984D02*
X5510658Y-17796460D01*
X5510658Y-17796460D02*
X5520182Y-17786936D01*
X5520182Y-17786936D02*
X5539229Y-17758365D01*
X5539229Y-17758365D02*
X5548753Y-17720270D01*
X5548753Y-17720270D02*
X5548753Y-17644079D01*
X5548753Y-17644079D02*
X5539229Y-17625031D01*
X5539229Y-17625031D02*
X5529705Y-17615508D01*
X5529705Y-17615508D02*
X5510658Y-17605984D01*
X5510658Y-17605984D02*
X5472563Y-17605984D01*
X5472563Y-17605984D02*
X5453515Y-17615508D01*
X5453515Y-17615508D02*
X5443991Y-17625031D01*
X5443991Y-17625031D02*
X5434467Y-17644079D01*
X5434467Y-17644079D02*
X5434467Y-17691698D01*
X5434467Y-17691698D02*
X5443991Y-17710746D01*
X5443991Y-17710746D02*
X5453515Y-17720270D01*
X5453515Y-17720270D02*
X5472563Y-17729793D01*
X5472563Y-17729793D02*
X5510658Y-17729793D01*
X5510658Y-17729793D02*
X5529705Y-17720270D01*
X5529705Y-17720270D02*
X5539229Y-17710746D01*
X5539229Y-17710746D02*
X5548753Y-17691698D01*
X5672562Y-17605984D02*
X5691610Y-17605984D01*
X5691610Y-17605984D02*
X5710658Y-17615508D01*
X5710658Y-17615508D02*
X5720182Y-17625031D01*
X5720182Y-17625031D02*
X5729705Y-17644079D01*
X5729705Y-17644079D02*
X5739229Y-17682174D01*
X5739229Y-17682174D02*
X5739229Y-17729793D01*
X5739229Y-17729793D02*
X5729705Y-17767889D01*
X5729705Y-17767889D02*
X5720182Y-17786936D01*
X5720182Y-17786936D02*
X5710658Y-17796460D01*
X5710658Y-17796460D02*
X5691610Y-17805984D01*
X5691610Y-17805984D02*
X5672562Y-17805984D01*
X5672562Y-17805984D02*
X5653515Y-17796460D01*
X5653515Y-17796460D02*
X5643991Y-17786936D01*
X5643991Y-17786936D02*
X5634467Y-17767889D01*
X5634467Y-17767889D02*
X5624943Y-17729793D01*
X5624943Y-17729793D02*
X5624943Y-17682174D01*
X5624943Y-17682174D02*
X5634467Y-17644079D01*
X5634467Y-17644079D02*
X5643991Y-17625031D01*
X5643991Y-17625031D02*
X5653515Y-17615508D01*
X5653515Y-17615508D02*
X5672562Y-17605984D01*
X5863039Y-17605984D02*
X5882086Y-17605984D01*
X5882086Y-17605984D02*
X5901134Y-17615508D01*
X5901134Y-17615508D02*
X5910658Y-17625031D01*
X5910658Y-17625031D02*
X5920182Y-17644079D01*
X5920182Y-17644079D02*
X5929705Y-17682174D01*
X5929705Y-17682174D02*
X5929705Y-17729793D01*
X5929705Y-17729793D02*
X5920182Y-17767889D01*
X5920182Y-17767889D02*
X5910658Y-17786936D01*
X5910658Y-17786936D02*
X5901134Y-17796460D01*
X5901134Y-17796460D02*
X5882086Y-17805984D01*
X5882086Y-17805984D02*
X5863039Y-17805984D01*
X5863039Y-17805984D02*
X5843991Y-17796460D01*
X5843991Y-17796460D02*
X5834467Y-17786936D01*
X5834467Y-17786936D02*
X5824943Y-17767889D01*
X5824943Y-17767889D02*
X5815420Y-17729793D01*
X5815420Y-17729793D02*
X5815420Y-17682174D01*
X5815420Y-17682174D02*
X5824943Y-17644079D01*
X5824943Y-17644079D02*
X5834467Y-17625031D01*
X5834467Y-17625031D02*
X5843991Y-17615508D01*
X5843991Y-17615508D02*
X5863039Y-17605984D01*
X6015420Y-17805984D02*
X6015420Y-17672650D01*
X6015420Y-17691698D02*
X6024943Y-17682174D01*
X6024943Y-17682174D02*
X6043991Y-17672650D01*
X6043991Y-17672650D02*
X6072563Y-17672650D01*
X6072563Y-17672650D02*
X6091610Y-17682174D01*
X6091610Y-17682174D02*
X6101134Y-17701222D01*
X6101134Y-17701222D02*
X6101134Y-17805984D01*
X6101134Y-17701222D02*
X6110658Y-17682174D01*
X6110658Y-17682174D02*
X6129705Y-17672650D01*
X6129705Y-17672650D02*
X6158277Y-17672650D01*
X6158277Y-17672650D02*
X6177324Y-17682174D01*
X6177324Y-17682174D02*
X6186848Y-17701222D01*
X6186848Y-17701222D02*
X6186848Y-17805984D01*
X6282086Y-17805984D02*
X6282086Y-17672650D01*
X6282086Y-17691698D02*
X6291610Y-17682174D01*
X6291610Y-17682174D02*
X6310658Y-17672650D01*
X6310658Y-17672650D02*
X6339229Y-17672650D01*
X6339229Y-17672650D02*
X6358277Y-17682174D01*
X6358277Y-17682174D02*
X6367801Y-17701222D01*
X6367801Y-17701222D02*
X6367801Y-17805984D01*
X6367801Y-17701222D02*
X6377324Y-17682174D01*
X6377324Y-17682174D02*
X6396372Y-17672650D01*
X6396372Y-17672650D02*
X6424943Y-17672650D01*
X6424943Y-17672650D02*
X6443991Y-17682174D01*
X6443991Y-17682174D02*
X6453515Y-17701222D01*
X6453515Y-17701222D02*
X6453515Y-17805984D01*
X6843991Y-17596460D02*
X6672563Y-17853603D01*
X7101134Y-17605984D02*
X7120182Y-17605984D01*
X7120182Y-17605984D02*
X7139229Y-17615508D01*
X7139229Y-17615508D02*
X7148753Y-17625031D01*
X7148753Y-17625031D02*
X7158277Y-17644079D01*
X7158277Y-17644079D02*
X7167801Y-17682174D01*
X7167801Y-17682174D02*
X7167801Y-17729793D01*
X7167801Y-17729793D02*
X7158277Y-17767889D01*
X7158277Y-17767889D02*
X7148753Y-17786936D01*
X7148753Y-17786936D02*
X7139229Y-17796460D01*
X7139229Y-17796460D02*
X7120182Y-17805984D01*
X7120182Y-17805984D02*
X7101134Y-17805984D01*
X7101134Y-17805984D02*
X7082086Y-17796460D01*
X7082086Y-17796460D02*
X7072563Y-17786936D01*
X7072563Y-17786936D02*
X7063039Y-17767889D01*
X7063039Y-17767889D02*
X7053515Y-17729793D01*
X7053515Y-17729793D02*
X7053515Y-17682174D01*
X7053515Y-17682174D02*
X7063039Y-17644079D01*
X7063039Y-17644079D02*
X7072563Y-17625031D01*
X7072563Y-17625031D02*
X7082086Y-17615508D01*
X7082086Y-17615508D02*
X7101134Y-17605984D01*
X7253515Y-17786936D02*
X7263039Y-17796460D01*
X7263039Y-17796460D02*
X7253515Y-17805984D01*
X7253515Y-17805984D02*
X7243991Y-17796460D01*
X7243991Y-17796460D02*
X7253515Y-17786936D01*
X7253515Y-17786936D02*
X7253515Y-17805984D01*
X7386848Y-17605984D02*
X7405896Y-17605984D01*
X7405896Y-17605984D02*
X7424944Y-17615508D01*
X7424944Y-17615508D02*
X7434467Y-17625031D01*
X7434467Y-17625031D02*
X7443991Y-17644079D01*
X7443991Y-17644079D02*
X7453515Y-17682174D01*
X7453515Y-17682174D02*
X7453515Y-17729793D01*
X7453515Y-17729793D02*
X7443991Y-17767889D01*
X7443991Y-17767889D02*
X7434467Y-17786936D01*
X7434467Y-17786936D02*
X7424944Y-17796460D01*
X7424944Y-17796460D02*
X7405896Y-17805984D01*
X7405896Y-17805984D02*
X7386848Y-17805984D01*
X7386848Y-17805984D02*
X7367801Y-17796460D01*
X7367801Y-17796460D02*
X7358277Y-17786936D01*
X7358277Y-17786936D02*
X7348753Y-17767889D01*
X7348753Y-17767889D02*
X7339229Y-17729793D01*
X7339229Y-17729793D02*
X7339229Y-17682174D01*
X7339229Y-17682174D02*
X7348753Y-17644079D01*
X7348753Y-17644079D02*
X7358277Y-17625031D01*
X7358277Y-17625031D02*
X7367801Y-17615508D01*
X7367801Y-17615508D02*
X7386848Y-17605984D01*
X7520182Y-17605984D02*
X7653515Y-17605984D01*
X7653515Y-17605984D02*
X7567801Y-17805984D01*
X7815420Y-17672650D02*
X7815420Y-17805984D01*
X7767801Y-17596460D02*
X7720182Y-17739317D01*
X7720182Y-17739317D02*
X7843991Y-17739317D01*
X7948753Y-17691698D02*
X7929706Y-17682174D01*
X7929706Y-17682174D02*
X7920182Y-17672650D01*
X7920182Y-17672650D02*
X7910658Y-17653603D01*
X7910658Y-17653603D02*
X7910658Y-17644079D01*
X7910658Y-17644079D02*
X7920182Y-17625031D01*
X7920182Y-17625031D02*
X7929706Y-17615508D01*
X7929706Y-17615508D02*
X7948753Y-17605984D01*
X7948753Y-17605984D02*
X7986848Y-17605984D01*
X7986848Y-17605984D02*
X8005896Y-17615508D01*
X8005896Y-17615508D02*
X8015420Y-17625031D01*
X8015420Y-17625031D02*
X8024944Y-17644079D01*
X8024944Y-17644079D02*
X8024944Y-17653603D01*
X8024944Y-17653603D02*
X8015420Y-17672650D01*
X8015420Y-17672650D02*
X8005896Y-17682174D01*
X8005896Y-17682174D02*
X7986848Y-17691698D01*
X7986848Y-17691698D02*
X7948753Y-17691698D01*
X7948753Y-17691698D02*
X7929706Y-17701222D01*
X7929706Y-17701222D02*
X7920182Y-17710746D01*
X7920182Y-17710746D02*
X7910658Y-17729793D01*
X7910658Y-17729793D02*
X7910658Y-17767889D01*
X7910658Y-17767889D02*
X7920182Y-17786936D01*
X7920182Y-17786936D02*
X7929706Y-17796460D01*
X7929706Y-17796460D02*
X7948753Y-17805984D01*
X7948753Y-17805984D02*
X7986848Y-17805984D01*
X7986848Y-17805984D02*
X8005896Y-17796460D01*
X8005896Y-17796460D02*
X8015420Y-17786936D01*
X8015420Y-17786936D02*
X8024944Y-17767889D01*
X8024944Y-17767889D02*
X8024944Y-17729793D01*
X8024944Y-17729793D02*
X8015420Y-17710746D01*
X8015420Y-17710746D02*
X8005896Y-17701222D01*
X8005896Y-17701222D02*
X7986848Y-17691698D01*
X8101134Y-17605984D02*
X8101134Y-17644079D01*
X8177325Y-17605984D02*
X8177325Y-17644079D01*
X8472563Y-17882174D02*
X8463039Y-17872650D01*
X8463039Y-17872650D02*
X8443991Y-17844079D01*
X8443991Y-17844079D02*
X8434468Y-17825031D01*
X8434468Y-17825031D02*
X8424944Y-17796460D01*
X8424944Y-17796460D02*
X8415420Y-17748841D01*
X8415420Y-17748841D02*
X8415420Y-17710746D01*
X8415420Y-17710746D02*
X8424944Y-17663127D01*
X8424944Y-17663127D02*
X8434468Y-17634555D01*
X8434468Y-17634555D02*
X8443991Y-17615508D01*
X8443991Y-17615508D02*
X8463039Y-17586936D01*
X8463039Y-17586936D02*
X8472563Y-17577412D01*
X8539230Y-17625031D02*
X8548753Y-17615508D01*
X8548753Y-17615508D02*
X8567801Y-17605984D01*
X8567801Y-17605984D02*
X8615420Y-17605984D01*
X8615420Y-17605984D02*
X8634468Y-17615508D01*
X8634468Y-17615508D02*
X8643991Y-17625031D01*
X8643991Y-17625031D02*
X8653515Y-17644079D01*
X8653515Y-17644079D02*
X8653515Y-17663127D01*
X8653515Y-17663127D02*
X8643991Y-17691698D01*
X8643991Y-17691698D02*
X8529706Y-17805984D01*
X8529706Y-17805984D02*
X8653515Y-17805984D01*
X8891611Y-17805984D02*
X8891611Y-17605984D01*
X8977325Y-17805984D02*
X8977325Y-17701222D01*
X8977325Y-17701222D02*
X8967801Y-17682174D01*
X8967801Y-17682174D02*
X8948753Y-17672650D01*
X8948753Y-17672650D02*
X8920182Y-17672650D01*
X8920182Y-17672650D02*
X8901134Y-17682174D01*
X8901134Y-17682174D02*
X8891611Y-17691698D01*
X9101134Y-17805984D02*
X9082087Y-17796460D01*
X9082087Y-17796460D02*
X9072563Y-17786936D01*
X9072563Y-17786936D02*
X9063039Y-17767889D01*
X9063039Y-17767889D02*
X9063039Y-17710746D01*
X9063039Y-17710746D02*
X9072563Y-17691698D01*
X9072563Y-17691698D02*
X9082087Y-17682174D01*
X9082087Y-17682174D02*
X9101134Y-17672650D01*
X9101134Y-17672650D02*
X9129706Y-17672650D01*
X9129706Y-17672650D02*
X9148753Y-17682174D01*
X9148753Y-17682174D02*
X9158277Y-17691698D01*
X9158277Y-17691698D02*
X9167801Y-17710746D01*
X9167801Y-17710746D02*
X9167801Y-17767889D01*
X9167801Y-17767889D02*
X9158277Y-17786936D01*
X9158277Y-17786936D02*
X9148753Y-17796460D01*
X9148753Y-17796460D02*
X9129706Y-17805984D01*
X9129706Y-17805984D02*
X9101134Y-17805984D01*
X9282087Y-17805984D02*
X9263039Y-17796460D01*
X9263039Y-17796460D02*
X9253515Y-17777412D01*
X9253515Y-17777412D02*
X9253515Y-17605984D01*
X9434468Y-17796460D02*
X9415420Y-17805984D01*
X9415420Y-17805984D02*
X9377325Y-17805984D01*
X9377325Y-17805984D02*
X9358277Y-17796460D01*
X9358277Y-17796460D02*
X9348753Y-17777412D01*
X9348753Y-17777412D02*
X9348753Y-17701222D01*
X9348753Y-17701222D02*
X9358277Y-17682174D01*
X9358277Y-17682174D02*
X9377325Y-17672650D01*
X9377325Y-17672650D02*
X9415420Y-17672650D01*
X9415420Y-17672650D02*
X9434468Y-17682174D01*
X9434468Y-17682174D02*
X9443992Y-17701222D01*
X9443992Y-17701222D02*
X9443992Y-17720270D01*
X9443992Y-17720270D02*
X9348753Y-17739317D01*
X9520182Y-17796460D02*
X9539230Y-17805984D01*
X9539230Y-17805984D02*
X9577325Y-17805984D01*
X9577325Y-17805984D02*
X9596373Y-17796460D01*
X9596373Y-17796460D02*
X9605896Y-17777412D01*
X9605896Y-17777412D02*
X9605896Y-17767889D01*
X9605896Y-17767889D02*
X9596373Y-17748841D01*
X9596373Y-17748841D02*
X9577325Y-17739317D01*
X9577325Y-17739317D02*
X9548753Y-17739317D01*
X9548753Y-17739317D02*
X9529706Y-17729793D01*
X9529706Y-17729793D02*
X9520182Y-17710746D01*
X9520182Y-17710746D02*
X9520182Y-17701222D01*
X9520182Y-17701222D02*
X9529706Y-17682174D01*
X9529706Y-17682174D02*
X9548753Y-17672650D01*
X9548753Y-17672650D02*
X9577325Y-17672650D01*
X9577325Y-17672650D02*
X9596373Y-17682174D01*
X9672563Y-17882174D02*
X9682087Y-17872650D01*
X9682087Y-17872650D02*
X9701134Y-17844079D01*
X9701134Y-17844079D02*
X9710658Y-17825031D01*
X9710658Y-17825031D02*
X9720182Y-17796460D01*
X9720182Y-17796460D02*
X9729706Y-17748841D01*
X9729706Y-17748841D02*
X9729706Y-17710746D01*
X9729706Y-17710746D02*
X9720182Y-17663127D01*
X9720182Y-17663127D02*
X9710658Y-17634555D01*
X9710658Y-17634555D02*
X9701134Y-17615508D01*
X9701134Y-17615508D02*
X9682087Y-17586936D01*
X9682087Y-17586936D02*
X9672563Y-17577412D01*
M02*
