%TF.GenerationSoftware,KiCad,Pcbnew,8.0.0*%
%TF.CreationDate,2024-03-30T13:43:14+01:00*%
%TF.ProjectId,schematic-main_HCU,73636865-6d61-4746-9963-2d6d61696e5f,rev?*%
%TF.SameCoordinates,Original*%
%TF.FileFunction,Legend,Bot*%
%TF.FilePolarity,Positive*%
%FSLAX46Y46*%
G04 Gerber Fmt 4.6, Leading zero omitted, Abs format (unit mm)*
G04 Created by KiCad (PCBNEW 8.0.0) date 2024-03-30 13:43:14*
%MOMM*%
%LPD*%
G01*
G04 APERTURE LIST*
%ADD10C,0.000000*%
%ADD11C,0.150000*%
%ADD12C,0.400000*%
%ADD13C,0.125000*%
G04 APERTURE END LIST*
D10*
G36*
X129521731Y-56462165D02*
G01*
X129537485Y-56463649D01*
X129552973Y-56466091D01*
X129568178Y-56469469D01*
X129583082Y-56473757D01*
X129597669Y-56478932D01*
X129611922Y-56484969D01*
X129625823Y-56491845D01*
X129639356Y-56499534D01*
X129652504Y-56508013D01*
X129665250Y-56517257D01*
X129677577Y-56527243D01*
X129689468Y-56537946D01*
X129700906Y-56549341D01*
X129711873Y-56561405D01*
X129722354Y-56574113D01*
X129732332Y-56587442D01*
X129741788Y-56601366D01*
X129750707Y-56615862D01*
X129759071Y-56630906D01*
X129766863Y-56646472D01*
X129774066Y-56662538D01*
X129780664Y-56679079D01*
X129786640Y-56696070D01*
X129791976Y-56713487D01*
X129796656Y-56731307D01*
X129800662Y-56749504D01*
X129803977Y-56768055D01*
X129806586Y-56786935D01*
X129808470Y-56806121D01*
X129809613Y-56825588D01*
X129809998Y-56845311D01*
X129862915Y-57189270D01*
X129868644Y-57213903D01*
X129875886Y-57238130D01*
X129884599Y-57261852D01*
X129894747Y-57284974D01*
X129906291Y-57307399D01*
X129919190Y-57329028D01*
X129933408Y-57349767D01*
X129948904Y-57369517D01*
X129965641Y-57388182D01*
X129983579Y-57405665D01*
X130002680Y-57421868D01*
X130022905Y-57436696D01*
X130044215Y-57450051D01*
X130066572Y-57461837D01*
X130089936Y-57471956D01*
X130101984Y-57476360D01*
X130114269Y-57480311D01*
X130262451Y-57521911D01*
X130409238Y-57567541D01*
X130554475Y-57617512D01*
X130698006Y-57672134D01*
X130839677Y-57731717D01*
X130979333Y-57796571D01*
X131116818Y-57867006D01*
X131184698Y-57904413D01*
X131251978Y-57943332D01*
X131274744Y-57954807D01*
X131298306Y-57964442D01*
X131322526Y-57972255D01*
X131347269Y-57978265D01*
X131372400Y-57982493D01*
X131397783Y-57984957D01*
X131423282Y-57985678D01*
X131448761Y-57984673D01*
X131474086Y-57981963D01*
X131499120Y-57977568D01*
X131523728Y-57971505D01*
X131547773Y-57963796D01*
X131571122Y-57954459D01*
X131593636Y-57943513D01*
X131615182Y-57930978D01*
X131635624Y-57916874D01*
X131913436Y-57705207D01*
X131927305Y-57690712D01*
X131941606Y-57676995D01*
X131956304Y-57664058D01*
X131971365Y-57651903D01*
X131986756Y-57640533D01*
X132002442Y-57629950D01*
X132018390Y-57620157D01*
X132034565Y-57611156D01*
X132050934Y-57602949D01*
X132067464Y-57595540D01*
X132084119Y-57588930D01*
X132100866Y-57583121D01*
X132117671Y-57578117D01*
X132134501Y-57573920D01*
X132151321Y-57570531D01*
X132168097Y-57567954D01*
X132184796Y-57566191D01*
X132201383Y-57565245D01*
X132217825Y-57565117D01*
X132234088Y-57565810D01*
X132250138Y-57567327D01*
X132265940Y-57569669D01*
X132281462Y-57572841D01*
X132296668Y-57576843D01*
X132311526Y-57581678D01*
X132326001Y-57587349D01*
X132340060Y-57593858D01*
X132353667Y-57601208D01*
X132366791Y-57609401D01*
X132379396Y-57618439D01*
X132391449Y-57628325D01*
X132402915Y-57639061D01*
X133236351Y-58525417D01*
X133247087Y-58536845D01*
X133256973Y-58548790D01*
X133266011Y-58561225D01*
X133274204Y-58574122D01*
X133281554Y-58587454D01*
X133288063Y-58601197D01*
X133293734Y-58615322D01*
X133298570Y-58629803D01*
X133302572Y-58644613D01*
X133305743Y-58659727D01*
X133308086Y-58675116D01*
X133309603Y-58690755D01*
X133310296Y-58706617D01*
X133310168Y-58722675D01*
X133309221Y-58738903D01*
X133307458Y-58755273D01*
X133304881Y-58771760D01*
X133301493Y-58788336D01*
X133297295Y-58804976D01*
X133292291Y-58821652D01*
X133286483Y-58838337D01*
X133279872Y-58855005D01*
X133272463Y-58871630D01*
X133264256Y-58888185D01*
X133255255Y-58904643D01*
X133245462Y-58920977D01*
X133234880Y-58937161D01*
X133223510Y-58953168D01*
X133211355Y-58968972D01*
X133198417Y-58984545D01*
X133184700Y-58999862D01*
X133170205Y-59014896D01*
X132958539Y-59292708D01*
X132944434Y-59313149D01*
X132931900Y-59334695D01*
X132920954Y-59357210D01*
X132911617Y-59380558D01*
X132903907Y-59404604D01*
X132897845Y-59429211D01*
X132893449Y-59454245D01*
X132890739Y-59479570D01*
X132889735Y-59505050D01*
X132890455Y-59530549D01*
X132892919Y-59555932D01*
X132897147Y-59581062D01*
X132903158Y-59605806D01*
X132910970Y-59630026D01*
X132920605Y-59653587D01*
X132932080Y-59676354D01*
X133008975Y-59811488D01*
X133080908Y-59948792D01*
X133147881Y-60087957D01*
X133209893Y-60228671D01*
X133266943Y-60370627D01*
X133319033Y-60513512D01*
X133366162Y-60657017D01*
X133408330Y-60800833D01*
X133412281Y-60813156D01*
X133416686Y-60825311D01*
X133426804Y-60849073D01*
X133438590Y-60872020D01*
X133451945Y-60894057D01*
X133466773Y-60915086D01*
X133482977Y-60935011D01*
X133500460Y-60953734D01*
X133519124Y-60971158D01*
X133538875Y-60987188D01*
X133559613Y-61001725D01*
X133581243Y-61014673D01*
X133603667Y-61025936D01*
X133615147Y-61030904D01*
X133626789Y-61035415D01*
X133638581Y-61039456D01*
X133650512Y-61043015D01*
X133662568Y-61046079D01*
X133674738Y-61048638D01*
X133687010Y-61050678D01*
X133699372Y-61052188D01*
X134043330Y-61105104D01*
X134063054Y-61105489D01*
X134082520Y-61106632D01*
X134120587Y-61111124D01*
X134157335Y-61118446D01*
X134192572Y-61128462D01*
X134226103Y-61141035D01*
X134257736Y-61156031D01*
X134287275Y-61173314D01*
X134301200Y-61182770D01*
X134314528Y-61192747D01*
X134327237Y-61203228D01*
X134339301Y-61214196D01*
X134350696Y-61225634D01*
X134361399Y-61237525D01*
X134371384Y-61249852D01*
X134380629Y-61262598D01*
X134389108Y-61275746D01*
X134396797Y-61289279D01*
X134403673Y-61303180D01*
X134409710Y-61317433D01*
X134414885Y-61332020D01*
X134419173Y-61346924D01*
X134422551Y-61362129D01*
X134424993Y-61377616D01*
X134426476Y-61393371D01*
X134426976Y-61409375D01*
X134426976Y-62600000D01*
X134426476Y-62616004D01*
X134424993Y-62631759D01*
X134422551Y-62647247D01*
X134419173Y-62662451D01*
X134414885Y-62677355D01*
X134409710Y-62691942D01*
X134403673Y-62706195D01*
X134396797Y-62720096D01*
X134389108Y-62733630D01*
X134380629Y-62746778D01*
X134371384Y-62759523D01*
X134361399Y-62771850D01*
X134350696Y-62783741D01*
X134339301Y-62795179D01*
X134327237Y-62806147D01*
X134314528Y-62816628D01*
X134301200Y-62826605D01*
X134287275Y-62836061D01*
X134272779Y-62844980D01*
X134257736Y-62853344D01*
X134242169Y-62861136D01*
X134226103Y-62868340D01*
X134209563Y-62874938D01*
X134192572Y-62880913D01*
X134175155Y-62886249D01*
X134157335Y-62890929D01*
X134139138Y-62894935D01*
X134120587Y-62898251D01*
X134101706Y-62900859D01*
X134082520Y-62902743D01*
X134063054Y-62903886D01*
X134043330Y-62904271D01*
X133699372Y-62957188D01*
X133674738Y-62962918D01*
X133650512Y-62970159D01*
X133626789Y-62978873D01*
X133603667Y-62989021D01*
X133581243Y-63000564D01*
X133559613Y-63013464D01*
X133538875Y-63027681D01*
X133519125Y-63043178D01*
X133500460Y-63059914D01*
X133482977Y-63077853D01*
X133466773Y-63096954D01*
X133451945Y-63117178D01*
X133438590Y-63138489D01*
X133426805Y-63160845D01*
X133416686Y-63184209D01*
X133412281Y-63196257D01*
X133408330Y-63208542D01*
X133387272Y-63292852D01*
X133363888Y-63377008D01*
X133338334Y-63460853D01*
X133310765Y-63544233D01*
X133281335Y-63626992D01*
X133250200Y-63708977D01*
X133217515Y-63790031D01*
X133183434Y-63870000D01*
X133158009Y-63929506D01*
X133131344Y-63988856D01*
X133103439Y-64047896D01*
X133074294Y-64106472D01*
X133043908Y-64164427D01*
X133012282Y-64221607D01*
X132979416Y-64277857D01*
X132945309Y-64333022D01*
X132933834Y-64355788D01*
X132924200Y-64379350D01*
X132916387Y-64403570D01*
X132910376Y-64428313D01*
X132906148Y-64453444D01*
X132903684Y-64478827D01*
X132902964Y-64504326D01*
X132903968Y-64529805D01*
X132906678Y-64555130D01*
X132911074Y-64580164D01*
X132917136Y-64604772D01*
X132924845Y-64628818D01*
X132934183Y-64652166D01*
X132945128Y-64674680D01*
X132957663Y-64696226D01*
X132971768Y-64716668D01*
X133183434Y-64994480D01*
X133204828Y-65017250D01*
X133224362Y-65040834D01*
X133242035Y-65065115D01*
X133257848Y-65089978D01*
X133271801Y-65115306D01*
X133283893Y-65140982D01*
X133294125Y-65166892D01*
X133302497Y-65192917D01*
X133309008Y-65218943D01*
X133313659Y-65244852D01*
X133316449Y-65270529D01*
X133317380Y-65295857D01*
X133316449Y-65320720D01*
X133313659Y-65345001D01*
X133309008Y-65368585D01*
X133302497Y-65391355D01*
X133280999Y-65437657D01*
X133277818Y-65443851D01*
X133274462Y-65450007D01*
X133270913Y-65456086D01*
X133267150Y-65462048D01*
X133263155Y-65467855D01*
X133258908Y-65473468D01*
X133254389Y-65478849D01*
X133249580Y-65483959D01*
X132416143Y-66330625D01*
X132405992Y-66340199D01*
X132395398Y-66349077D01*
X132384382Y-66357263D01*
X132372967Y-66364758D01*
X132361174Y-66371565D01*
X132349025Y-66377686D01*
X132336541Y-66383125D01*
X132323745Y-66387883D01*
X132310658Y-66391963D01*
X132297303Y-66395366D01*
X132283700Y-66398097D01*
X132269872Y-66400156D01*
X132255841Y-66401547D01*
X132241628Y-66402272D01*
X132227255Y-66402332D01*
X132212744Y-66401732D01*
X132198117Y-66400473D01*
X132183395Y-66398557D01*
X132168601Y-66395988D01*
X132153755Y-66392766D01*
X132138881Y-66388896D01*
X132124000Y-66384378D01*
X132109132Y-66379217D01*
X132094302Y-66373413D01*
X132079529Y-66366970D01*
X132064836Y-66359890D01*
X132050246Y-66352176D01*
X132035778Y-66343829D01*
X132021456Y-66334852D01*
X132007301Y-66325248D01*
X131993335Y-66315019D01*
X131979580Y-66304167D01*
X131939893Y-66264479D01*
X131662080Y-66052813D01*
X131639459Y-66038709D01*
X131616295Y-66026174D01*
X131592666Y-66015228D01*
X131568649Y-66005891D01*
X131544323Y-65998182D01*
X131519763Y-65992119D01*
X131495049Y-65987724D01*
X131470257Y-65985014D01*
X131445466Y-65984009D01*
X131420751Y-65984730D01*
X131396192Y-65987194D01*
X131371866Y-65991422D01*
X131347849Y-65997433D01*
X131324220Y-66005246D01*
X131301056Y-66014880D01*
X131278434Y-66026355D01*
X131143275Y-66103250D01*
X131005790Y-66175183D01*
X130866134Y-66242156D01*
X130724463Y-66304168D01*
X130580932Y-66361218D01*
X130435695Y-66413308D01*
X130288908Y-66460437D01*
X130140726Y-66502605D01*
X130138097Y-66502757D01*
X130135197Y-66503199D01*
X130132064Y-66503913D01*
X130128738Y-66504879D01*
X130125256Y-66506077D01*
X130121658Y-66507488D01*
X130117982Y-66509093D01*
X130114268Y-66510873D01*
X130110554Y-66512808D01*
X130106878Y-66514878D01*
X130103280Y-66517064D01*
X130099799Y-66519348D01*
X130096472Y-66521709D01*
X130093339Y-66524128D01*
X130090438Y-66526586D01*
X130087809Y-66529063D01*
X130068285Y-66539447D01*
X130049440Y-66550741D01*
X130031330Y-66562927D01*
X130014015Y-66575985D01*
X129997553Y-66589896D01*
X129982002Y-66604639D01*
X129967419Y-66620197D01*
X129953864Y-66636550D01*
X129941394Y-66653677D01*
X129930067Y-66671560D01*
X129919942Y-66690180D01*
X129911076Y-66709517D01*
X129907134Y-66719448D01*
X129903528Y-66729551D01*
X129900266Y-66739824D01*
X129897356Y-66750264D01*
X129894804Y-66760868D01*
X129892618Y-66771635D01*
X129890805Y-66782562D01*
X129889372Y-66793646D01*
X129849684Y-67137604D01*
X129849300Y-67157328D01*
X129848157Y-67176798D01*
X129843664Y-67214886D01*
X129836342Y-67251696D01*
X129826327Y-67287052D01*
X129813753Y-67320781D01*
X129798757Y-67352707D01*
X129781475Y-67382657D01*
X129762041Y-67410456D01*
X129740592Y-67435929D01*
X129729155Y-67447739D01*
X129717264Y-67458902D01*
X129704937Y-67469397D01*
X129692191Y-67479202D01*
X129679043Y-67488294D01*
X129665510Y-67496652D01*
X129651608Y-67504254D01*
X129637356Y-67511079D01*
X129622769Y-67517105D01*
X129607865Y-67522309D01*
X129592660Y-67526671D01*
X129577172Y-67530167D01*
X129561418Y-67532777D01*
X129545414Y-67534479D01*
X128354789Y-67534479D01*
X128338785Y-67533979D01*
X128323030Y-67532496D01*
X128307542Y-67530053D01*
X128292338Y-67526676D01*
X128277433Y-67522387D01*
X128262847Y-67517212D01*
X128248594Y-67511175D01*
X128234693Y-67504300D01*
X128221159Y-67496611D01*
X128208011Y-67488132D01*
X128195265Y-67478887D01*
X128182939Y-67468901D01*
X128171048Y-67458199D01*
X128159610Y-67446803D01*
X128148642Y-67434739D01*
X128138161Y-67422031D01*
X128128184Y-67408702D01*
X128118727Y-67394778D01*
X128109809Y-67380282D01*
X128101445Y-67365239D01*
X128093653Y-67349672D01*
X128086449Y-67333606D01*
X128079851Y-67317066D01*
X128073876Y-67300075D01*
X128068540Y-67282657D01*
X128063860Y-67264838D01*
X128059854Y-67246640D01*
X128056538Y-67228089D01*
X128053930Y-67209209D01*
X128052045Y-67190023D01*
X128050903Y-67170556D01*
X128050518Y-67150833D01*
X127984372Y-66820104D01*
X127981623Y-66807819D01*
X127978345Y-66795768D01*
X127974554Y-66783955D01*
X127970264Y-66772381D01*
X127965490Y-66761050D01*
X127960246Y-66749963D01*
X127954546Y-66739124D01*
X127948405Y-66728534D01*
X127941838Y-66718196D01*
X127934860Y-66708112D01*
X127927484Y-66698285D01*
X127919725Y-66688717D01*
X127903118Y-66670369D01*
X127885154Y-66653086D01*
X127865949Y-66636889D01*
X127845621Y-66621796D01*
X127824285Y-66607827D01*
X127802058Y-66595002D01*
X127779055Y-66583339D01*
X127755394Y-66572858D01*
X127731190Y-66563579D01*
X127706560Y-66555521D01*
X127632520Y-66536827D01*
X127558868Y-66520070D01*
X127410557Y-66490201D01*
X127094711Y-66429843D01*
X126918494Y-66390672D01*
X126823913Y-66366940D01*
X126724294Y-66339720D01*
X126619094Y-66308468D01*
X126507770Y-66272644D01*
X126389780Y-66231703D01*
X126264580Y-66185104D01*
X126203260Y-66162411D01*
X126142986Y-66138750D01*
X126083254Y-66113771D01*
X126023561Y-66087125D01*
X125963404Y-66058464D01*
X125902277Y-66027439D01*
X125839677Y-65993701D01*
X125775101Y-65956900D01*
X125708045Y-65916690D01*
X125638004Y-65872720D01*
X125564475Y-65824641D01*
X125486954Y-65772106D01*
X125404937Y-65714764D01*
X125317920Y-65652268D01*
X125126873Y-65510417D01*
X125078106Y-65472961D01*
X125026336Y-65430292D01*
X124971969Y-65382779D01*
X124915412Y-65330789D01*
X124857073Y-65274691D01*
X124797357Y-65214853D01*
X124736673Y-65151643D01*
X124675427Y-65085430D01*
X124614026Y-65016581D01*
X124552876Y-64945464D01*
X124492386Y-64872449D01*
X124432961Y-64797902D01*
X124375009Y-64722193D01*
X124318937Y-64645689D01*
X124265151Y-64568759D01*
X124214060Y-64491771D01*
X124155068Y-64400046D01*
X124101792Y-64312971D01*
X124053749Y-64229926D01*
X124010454Y-64150293D01*
X123971422Y-64073450D01*
X123936169Y-63998778D01*
X123904211Y-63925655D01*
X123875062Y-63853463D01*
X123848239Y-63781582D01*
X123823256Y-63709390D01*
X123776877Y-63561595D01*
X123684893Y-63235000D01*
X123664558Y-63139089D01*
X123643758Y-63015892D01*
X123623269Y-62874092D01*
X123603864Y-62722370D01*
X123586320Y-62569408D01*
X123571411Y-62423887D01*
X123559914Y-62294489D01*
X123552602Y-62189896D01*
X123558208Y-62013524D01*
X123575132Y-61793434D01*
X123603529Y-61546679D01*
X123643552Y-61290313D01*
X123667972Y-61163854D01*
X123695358Y-61041387D01*
X123725727Y-60925044D01*
X123759101Y-60816957D01*
X123795497Y-60719256D01*
X123834936Y-60634074D01*
X123877436Y-60563542D01*
X123899841Y-60534436D01*
X123923018Y-60509792D01*
X123937005Y-60536954D01*
X123949493Y-60564001D01*
X123971723Y-60618519D01*
X123993217Y-60674898D01*
X124017483Y-60734688D01*
X124031751Y-60766346D01*
X124048027Y-60799438D01*
X124066749Y-60834158D01*
X124088357Y-60870700D01*
X124113288Y-60909257D01*
X124141981Y-60950023D01*
X124174874Y-60993192D01*
X124212406Y-61038958D01*
X124255015Y-61087515D01*
X124303140Y-61139056D01*
X124357219Y-61193774D01*
X124417691Y-61251865D01*
X124484993Y-61313522D01*
X124559565Y-61378938D01*
X124641845Y-61448307D01*
X124732271Y-61521823D01*
X124831282Y-61599680D01*
X124939316Y-61682071D01*
X125056811Y-61769191D01*
X125184207Y-61861234D01*
X125321941Y-61958392D01*
X125470452Y-62060860D01*
X125630179Y-62168831D01*
X125801559Y-62282500D01*
X125802799Y-62282538D01*
X125804036Y-62282648D01*
X125805269Y-62282827D01*
X125806494Y-62283068D01*
X125807710Y-62283368D01*
X125808913Y-62283721D01*
X125811274Y-62284567D01*
X125813558Y-62285568D01*
X125815745Y-62286685D01*
X125817815Y-62287880D01*
X125819750Y-62289114D01*
X125821529Y-62290348D01*
X125823134Y-62291543D01*
X125825744Y-62293661D01*
X125828018Y-62295728D01*
X125885763Y-62330817D01*
X125942400Y-62369012D01*
X125997909Y-62410162D01*
X126052267Y-62454117D01*
X126105453Y-62500726D01*
X126157445Y-62549841D01*
X126257759Y-62654983D01*
X126353034Y-62768342D01*
X126443096Y-62888715D01*
X126527771Y-63014903D01*
X126606884Y-63145702D01*
X126680262Y-63279913D01*
X126747728Y-63416332D01*
X126809110Y-63553759D01*
X126864233Y-63690992D01*
X126912922Y-63826830D01*
X126955003Y-63960071D01*
X126990301Y-64089514D01*
X127018642Y-64213957D01*
X127071560Y-64650521D01*
X126978519Y-64648173D01*
X126885495Y-64638871D01*
X126792583Y-64622946D01*
X126699877Y-64600730D01*
X126607471Y-64572556D01*
X126515460Y-64538754D01*
X126423938Y-64499657D01*
X126333000Y-64455597D01*
X126242740Y-64406905D01*
X126153253Y-64353914D01*
X125976975Y-64236360D01*
X125804922Y-64105590D01*
X125637849Y-63964258D01*
X125476511Y-63815020D01*
X125321666Y-63660530D01*
X125174069Y-63503443D01*
X125034474Y-63346415D01*
X124782319Y-63043152D01*
X124571247Y-62771980D01*
X124661511Y-63030403D01*
X124765641Y-63274966D01*
X124882928Y-63505838D01*
X125012667Y-63723188D01*
X125154149Y-63927186D01*
X125306667Y-64118002D01*
X125469514Y-64295805D01*
X125641982Y-64460765D01*
X125823365Y-64613052D01*
X126012954Y-64752834D01*
X126210043Y-64880282D01*
X126413925Y-64995565D01*
X126623891Y-65098852D01*
X126839235Y-65190314D01*
X127059249Y-65270119D01*
X127283226Y-65338438D01*
X127510458Y-65395439D01*
X127740239Y-65441293D01*
X127971861Y-65476169D01*
X128204616Y-65500237D01*
X128437798Y-65513665D01*
X128670699Y-65516624D01*
X128902612Y-65509284D01*
X129132828Y-65491813D01*
X129360642Y-65464382D01*
X129585346Y-65427160D01*
X129806232Y-65380316D01*
X130022593Y-65324020D01*
X130233722Y-65258442D01*
X130438911Y-65183751D01*
X130637454Y-65100117D01*
X130828642Y-65007709D01*
X130400348Y-65082123D01*
X130231469Y-65110028D01*
X130161060Y-65120028D01*
X130101038Y-65126772D01*
X129919783Y-65144600D01*
X129742404Y-65157777D01*
X129567815Y-65165374D01*
X129394931Y-65166459D01*
X129308790Y-65164269D01*
X129222668Y-65160103D01*
X129136429Y-65153843D01*
X129049939Y-65145375D01*
X128963062Y-65134581D01*
X128875661Y-65121345D01*
X128787601Y-65105551D01*
X128698746Y-65087083D01*
X128577152Y-65056595D01*
X128460208Y-65024245D01*
X128347605Y-64989415D01*
X128239033Y-64951484D01*
X128186161Y-64931163D01*
X128134181Y-64909833D01*
X128083054Y-64887418D01*
X128032741Y-64863841D01*
X127983202Y-64839023D01*
X127934400Y-64812888D01*
X127886296Y-64785357D01*
X127838851Y-64756354D01*
X127761284Y-64707106D01*
X127687280Y-64653825D01*
X127616760Y-64596818D01*
X127549643Y-64536393D01*
X127485850Y-64472858D01*
X127425300Y-64406521D01*
X127367914Y-64337688D01*
X127313611Y-64266668D01*
X127213937Y-64119297D01*
X127125638Y-63966868D01*
X127048075Y-63811842D01*
X126980608Y-63656680D01*
X126922598Y-63503844D01*
X126873405Y-63355794D01*
X126832390Y-63214992D01*
X126798914Y-63083899D01*
X126752017Y-62860682D01*
X126727600Y-62705834D01*
X126727451Y-62698396D01*
X126727031Y-62690977D01*
X126726379Y-62683597D01*
X126725533Y-62676275D01*
X126723414Y-62661883D01*
X126720986Y-62647956D01*
X126718557Y-62634649D01*
X126716438Y-62622118D01*
X126715592Y-62616191D01*
X126714940Y-62610516D01*
X126714520Y-62605113D01*
X126714371Y-62600000D01*
X126714371Y-62586771D01*
X126710625Y-62521710D01*
X126709204Y-62455719D01*
X126709953Y-62389108D01*
X126712718Y-62322188D01*
X126717343Y-62255267D01*
X126723673Y-62188656D01*
X126731553Y-62122665D01*
X126740829Y-62057604D01*
X126760673Y-61920352D01*
X126770595Y-61854826D01*
X126780517Y-61793021D01*
X126813280Y-61640420D01*
X126851624Y-61489990D01*
X126894929Y-61341421D01*
X126942574Y-61194401D01*
X126993941Y-61048622D01*
X127048408Y-60903773D01*
X127105355Y-60759544D01*
X127164163Y-60615625D01*
X127165366Y-60614346D01*
X127166495Y-60612993D01*
X127167557Y-60611566D01*
X127168556Y-60610070D01*
X127170384Y-60606876D01*
X127172018Y-60603429D01*
X127173497Y-60599751D01*
X127174860Y-60595859D01*
X127176145Y-60591773D01*
X127177392Y-60587513D01*
X127179924Y-60578547D01*
X127181287Y-60573880D01*
X127182766Y-60569116D01*
X127184400Y-60564275D01*
X127186229Y-60559375D01*
X127188289Y-60554437D01*
X127190621Y-60549479D01*
X127249945Y-60589373D01*
X127279220Y-60609708D01*
X127308029Y-60630508D01*
X127336219Y-60651928D01*
X127363633Y-60674123D01*
X127377001Y-60685559D01*
X127390118Y-60697248D01*
X127402962Y-60709208D01*
X127415517Y-60721458D01*
X127524580Y-60811401D01*
X127633178Y-60902739D01*
X127740846Y-60995627D01*
X127847118Y-61090221D01*
X127951531Y-61186675D01*
X128053617Y-61285145D01*
X128152914Y-61385785D01*
X128248954Y-61488750D01*
X128323188Y-61573758D01*
X128396336Y-61660316D01*
X128467313Y-61748734D01*
X128501649Y-61793738D01*
X128535035Y-61839323D01*
X128567336Y-61885528D01*
X128598416Y-61932392D01*
X128628140Y-61979953D01*
X128656371Y-62028251D01*
X128682975Y-62077325D01*
X128707815Y-62127212D01*
X128730756Y-62177951D01*
X128751663Y-62229582D01*
X128751689Y-62230151D01*
X128751750Y-62230803D01*
X128751870Y-62231650D01*
X128752067Y-62232651D01*
X128752361Y-62233768D01*
X128752771Y-62234963D01*
X128753026Y-62235578D01*
X128753317Y-62236197D01*
X128753646Y-62236816D01*
X128754017Y-62237431D01*
X128754432Y-62238036D01*
X128754893Y-62238626D01*
X128755402Y-62239197D01*
X128755962Y-62239743D01*
X128756575Y-62240261D01*
X128757244Y-62240745D01*
X128757971Y-62241190D01*
X128758759Y-62241591D01*
X128759610Y-62241944D01*
X128760526Y-62242243D01*
X128761509Y-62242485D01*
X128762564Y-62242663D01*
X128763690Y-62242774D01*
X128764892Y-62242812D01*
X128794803Y-62326990D01*
X128820005Y-62410838D01*
X128840440Y-62494337D01*
X128856049Y-62577468D01*
X128866775Y-62660212D01*
X128872560Y-62742549D01*
X128873345Y-62824459D01*
X128869072Y-62905924D01*
X128859683Y-62986923D01*
X128845119Y-63067438D01*
X128825324Y-63147449D01*
X128800238Y-63226938D01*
X128769804Y-63305883D01*
X128733963Y-63384266D01*
X128692658Y-63462069D01*
X128645829Y-63539270D01*
X128632601Y-63565729D01*
X128460621Y-63777395D01*
X128459458Y-63779018D01*
X128458447Y-63781390D01*
X128456874Y-63788273D01*
X128455883Y-63797830D01*
X128455453Y-63809848D01*
X128455566Y-63824114D01*
X128456203Y-63840414D01*
X128457343Y-63858537D01*
X128458967Y-63878267D01*
X128461057Y-63899393D01*
X128463592Y-63921701D01*
X128469922Y-63969011D01*
X128477803Y-64018491D01*
X128482276Y-64043512D01*
X128487078Y-64068436D01*
X128376953Y-63965881D01*
X128274559Y-63856950D01*
X128179568Y-63742090D01*
X128091651Y-63621745D01*
X128010477Y-63496362D01*
X127935717Y-63366386D01*
X127867042Y-63232263D01*
X127804123Y-63094439D01*
X127746630Y-62953359D01*
X127694233Y-62809469D01*
X127646604Y-62663215D01*
X127603412Y-62515042D01*
X127564328Y-62365397D01*
X127529024Y-62214725D01*
X127497168Y-62063471D01*
X127468433Y-61912081D01*
X127465956Y-61916894D01*
X127463498Y-61921435D01*
X127458718Y-61929858D01*
X127454248Y-61937661D01*
X127452178Y-61941427D01*
X127450244Y-61945154D01*
X127448464Y-61948882D01*
X127446859Y-61952648D01*
X127445447Y-61956491D01*
X127444249Y-61960451D01*
X127443283Y-61964565D01*
X127442570Y-61968874D01*
X127442127Y-61973415D01*
X127441975Y-61978227D01*
X127432202Y-62106146D01*
X127427661Y-62232010D01*
X127428313Y-62355937D01*
X127434120Y-62478042D01*
X127445043Y-62598441D01*
X127461044Y-62717252D01*
X127482083Y-62834590D01*
X127508121Y-62950571D01*
X127539120Y-63065312D01*
X127575042Y-63178929D01*
X127615847Y-63291538D01*
X127661497Y-63403256D01*
X127711952Y-63514199D01*
X127767175Y-63624483D01*
X127827126Y-63734225D01*
X127891767Y-63843540D01*
X127918804Y-63883944D01*
X127949929Y-63925550D01*
X127984581Y-63968009D01*
X128022199Y-64010971D01*
X128062219Y-64054089D01*
X128104080Y-64097012D01*
X128147220Y-64139393D01*
X128191077Y-64180883D01*
X128278694Y-64259793D01*
X128362436Y-64330951D01*
X128437806Y-64391568D01*
X128500309Y-64438852D01*
X128563535Y-64474522D01*
X128633427Y-64507168D01*
X128708901Y-64536869D01*
X128788870Y-64563702D01*
X128872250Y-64587745D01*
X128957955Y-64609074D01*
X129044901Y-64627768D01*
X129132001Y-64643904D01*
X129218172Y-64657560D01*
X129302327Y-64668812D01*
X129460250Y-64684419D01*
X129597089Y-64691343D01*
X129654889Y-64691744D01*
X129704162Y-64690206D01*
X129779784Y-64682590D01*
X129848391Y-64674548D01*
X129910720Y-64665964D01*
X129967506Y-64656720D01*
X130019486Y-64646701D01*
X130067396Y-64635791D01*
X130111974Y-64623873D01*
X130153954Y-64610832D01*
X130194075Y-64596549D01*
X130233071Y-64580911D01*
X130271680Y-64563800D01*
X130310637Y-64545099D01*
X130392545Y-64502466D01*
X130484684Y-64452081D01*
X130523764Y-64429595D01*
X130561681Y-64406761D01*
X130598514Y-64383539D01*
X130634338Y-64359890D01*
X130669233Y-64335777D01*
X130703275Y-64311159D01*
X130736541Y-64285999D01*
X130769110Y-64260258D01*
X130801059Y-64233897D01*
X130832466Y-64206876D01*
X130863407Y-64179159D01*
X130893961Y-64150704D01*
X130924204Y-64121475D01*
X130954215Y-64091432D01*
X131013850Y-64028748D01*
X131060359Y-63978829D01*
X131105627Y-63928289D01*
X131149656Y-63877129D01*
X131192444Y-63825350D01*
X131233992Y-63772950D01*
X131274299Y-63719930D01*
X131313367Y-63666290D01*
X131351194Y-63612029D01*
X131387781Y-63557149D01*
X131423128Y-63501648D01*
X131457234Y-63445528D01*
X131490100Y-63388787D01*
X131521726Y-63331426D01*
X131552112Y-63273445D01*
X131581257Y-63214844D01*
X131609163Y-63155623D01*
X131694584Y-62942022D01*
X131762332Y-62723634D01*
X131812406Y-62501565D01*
X131844807Y-62276917D01*
X131859535Y-62050798D01*
X131856589Y-61824309D01*
X131835970Y-61598558D01*
X131797678Y-61374647D01*
X131741713Y-61153682D01*
X131668074Y-60936767D01*
X131576761Y-60725006D01*
X131467776Y-60519505D01*
X131341117Y-60321368D01*
X131196785Y-60131700D01*
X131034779Y-59951604D01*
X130947149Y-59865491D01*
X130855100Y-59782186D01*
X130751806Y-59695679D01*
X130645458Y-59614751D01*
X130536257Y-59539399D01*
X130424403Y-59469621D01*
X130310097Y-59405415D01*
X130193541Y-59346777D01*
X130074936Y-59293705D01*
X129954483Y-59246198D01*
X129832382Y-59204253D01*
X129708836Y-59167867D01*
X129584044Y-59137037D01*
X129458208Y-59111762D01*
X129331530Y-59092039D01*
X129204209Y-59077866D01*
X129076447Y-59069239D01*
X128948446Y-59066158D01*
X128820406Y-59068618D01*
X128692528Y-59076619D01*
X128565014Y-59090157D01*
X128438064Y-59109230D01*
X128311879Y-59133836D01*
X128186661Y-59163971D01*
X128062611Y-59199635D01*
X127939929Y-59240824D01*
X127818817Y-59287536D01*
X127699476Y-59339768D01*
X127582106Y-59397519D01*
X127466909Y-59460785D01*
X127354086Y-59529564D01*
X127243838Y-59603854D01*
X127136366Y-59683653D01*
X127031872Y-59768957D01*
X126968465Y-59824144D01*
X126907228Y-59880553D01*
X126848162Y-59938162D01*
X126791266Y-59996954D01*
X126736541Y-60056908D01*
X126683986Y-60118006D01*
X126633601Y-60180227D01*
X126585387Y-60243554D01*
X126539343Y-60307965D01*
X126495470Y-60373442D01*
X126453767Y-60439966D01*
X126414235Y-60507517D01*
X126376872Y-60576075D01*
X126341681Y-60645622D01*
X126308660Y-60716138D01*
X126277809Y-60787603D01*
X126273935Y-60794927D01*
X126269764Y-60802011D01*
X126265306Y-60808848D01*
X126260575Y-60815431D01*
X126255582Y-60821752D01*
X126250340Y-60827804D01*
X126244860Y-60833580D01*
X126239155Y-60839073D01*
X126233237Y-60844275D01*
X126227118Y-60849179D01*
X126220810Y-60853778D01*
X126214325Y-60858064D01*
X126207675Y-60862030D01*
X126200873Y-60865670D01*
X126193930Y-60868975D01*
X126186859Y-60871939D01*
X126179671Y-60874554D01*
X126172380Y-60876813D01*
X126164996Y-60878708D01*
X126157533Y-60880233D01*
X126150001Y-60881380D01*
X126142414Y-60882142D01*
X126134783Y-60882511D01*
X126127121Y-60882481D01*
X126119439Y-60882044D01*
X126111751Y-60881192D01*
X126104066Y-60879919D01*
X126096399Y-60878218D01*
X126088761Y-60876080D01*
X126081164Y-60873499D01*
X126073621Y-60870467D01*
X126066143Y-60866978D01*
X124756455Y-60324582D01*
X124749131Y-60320709D01*
X124742047Y-60316537D01*
X124735210Y-60312079D01*
X124728628Y-60307348D01*
X124722307Y-60302355D01*
X124716254Y-60297113D01*
X124710478Y-60291633D01*
X124704986Y-60285928D01*
X124699784Y-60280010D01*
X124694880Y-60273891D01*
X124690281Y-60267583D01*
X124685995Y-60261098D01*
X124682028Y-60254448D01*
X124678389Y-60247646D01*
X124675083Y-60240703D01*
X124672120Y-60233632D01*
X124669505Y-60226444D01*
X124667246Y-60219153D01*
X124665350Y-60211769D01*
X124663826Y-60204305D01*
X124662679Y-60196774D01*
X124661917Y-60189187D01*
X124661547Y-60181556D01*
X124661578Y-60173894D01*
X124662015Y-60166212D01*
X124662866Y-60158523D01*
X124664139Y-60150839D01*
X124665841Y-60143172D01*
X124667979Y-60135534D01*
X124670560Y-60127937D01*
X124673591Y-60120394D01*
X124677081Y-60112916D01*
X124728964Y-60001708D01*
X124784568Y-59888020D01*
X124842652Y-59774332D01*
X124901976Y-59663124D01*
X124913452Y-59640357D01*
X124923086Y-59616796D01*
X124930899Y-59592576D01*
X124936909Y-59567832D01*
X124941137Y-59542702D01*
X124943601Y-59517319D01*
X124944321Y-59491820D01*
X124943317Y-59466340D01*
X124940607Y-59441015D01*
X124936212Y-59415981D01*
X124930149Y-59391374D01*
X124922440Y-59367328D01*
X124913103Y-59343980D01*
X124902157Y-59321465D01*
X124889622Y-59299919D01*
X124875518Y-59279478D01*
X124663851Y-59001666D01*
X124649357Y-58987796D01*
X124635639Y-58973496D01*
X124622702Y-58958798D01*
X124610547Y-58943736D01*
X124599177Y-58928346D01*
X124588595Y-58912660D01*
X124578802Y-58896712D01*
X124569801Y-58880536D01*
X124561594Y-58864167D01*
X124554185Y-58847638D01*
X124547574Y-58830983D01*
X124541766Y-58814235D01*
X124536762Y-58797430D01*
X124532564Y-58780600D01*
X124529176Y-58763781D01*
X124526599Y-58747004D01*
X124524836Y-58730306D01*
X124523889Y-58713718D01*
X124523761Y-58697276D01*
X124524454Y-58681013D01*
X124525971Y-58664964D01*
X124528314Y-58649161D01*
X124531485Y-58633640D01*
X124535487Y-58618433D01*
X124540323Y-58603575D01*
X124545994Y-58589100D01*
X124552503Y-58575042D01*
X124559853Y-58561434D01*
X124568045Y-58548311D01*
X124577083Y-58535705D01*
X124586969Y-58523653D01*
X124597706Y-58512186D01*
X125431143Y-57665519D01*
X125442572Y-57654783D01*
X125454517Y-57644897D01*
X125466952Y-57635859D01*
X125479849Y-57627666D01*
X125493181Y-57620317D01*
X125506924Y-57613807D01*
X125521049Y-57608136D01*
X125535530Y-57603301D01*
X125550340Y-57599299D01*
X125565454Y-57596128D01*
X125580843Y-57593785D01*
X125596482Y-57592268D01*
X125612344Y-57591575D01*
X125628402Y-57591703D01*
X125644630Y-57592650D01*
X125661000Y-57594413D01*
X125677487Y-57596990D01*
X125694064Y-57600378D01*
X125710703Y-57604576D01*
X125727379Y-57609580D01*
X125744064Y-57615388D01*
X125760733Y-57621998D01*
X125777357Y-57629408D01*
X125793912Y-57637614D01*
X125810370Y-57646615D01*
X125826704Y-57656408D01*
X125842888Y-57666991D01*
X125858895Y-57678361D01*
X125874699Y-57690516D01*
X125890272Y-57703453D01*
X125905589Y-57717170D01*
X125920623Y-57731665D01*
X126198435Y-57943332D01*
X126221056Y-57957436D01*
X126244220Y-57969971D01*
X126267849Y-57980917D01*
X126291866Y-57990254D01*
X126316192Y-57997963D01*
X126340751Y-58004026D01*
X126365466Y-58008421D01*
X126390258Y-58011131D01*
X126415049Y-58012136D01*
X126439764Y-58011415D01*
X126464323Y-58008951D01*
X126488650Y-58004723D01*
X126512666Y-57998713D01*
X126536295Y-57990900D01*
X126559459Y-57981266D01*
X126582081Y-57969790D01*
X126717214Y-57892896D01*
X126854519Y-57820962D01*
X126993683Y-57753990D01*
X127134398Y-57691978D01*
X127276353Y-57634927D01*
X127419239Y-57582837D01*
X127562744Y-57535708D01*
X127706560Y-57493540D01*
X127731038Y-57485330D01*
X127754800Y-57475609D01*
X127777747Y-57464414D01*
X127799784Y-57451786D01*
X127820813Y-57437762D01*
X127840738Y-57422382D01*
X127859461Y-57405684D01*
X127876885Y-57387707D01*
X127892915Y-57368490D01*
X127900376Y-57358429D01*
X127907452Y-57348071D01*
X127914131Y-57337424D01*
X127920400Y-57326490D01*
X127926248Y-57315275D01*
X127931662Y-57303785D01*
X127936631Y-57292023D01*
X127941142Y-57279994D01*
X127945183Y-57267704D01*
X127948741Y-57255157D01*
X127951806Y-57242358D01*
X127954365Y-57229312D01*
X127956405Y-57216024D01*
X127957914Y-57202499D01*
X128010831Y-56858540D01*
X128011215Y-56838817D01*
X128012358Y-56819347D01*
X128016851Y-56781258D01*
X128024173Y-56744449D01*
X128034188Y-56709092D01*
X128046762Y-56675364D01*
X128061758Y-56643437D01*
X128079040Y-56613488D01*
X128098474Y-56585689D01*
X128119923Y-56560216D01*
X128131361Y-56548406D01*
X128143252Y-56537242D01*
X128155579Y-56526747D01*
X128168325Y-56516943D01*
X128181473Y-56507851D01*
X128195006Y-56499493D01*
X128208907Y-56491890D01*
X128223160Y-56485065D01*
X128237747Y-56479040D01*
X128252651Y-56473835D01*
X128267856Y-56469474D01*
X128283344Y-56465977D01*
X128299098Y-56463367D01*
X128315102Y-56461666D01*
X129505727Y-56461666D01*
X129521731Y-56462165D01*
G37*
G36*
X117308436Y-60536249D02*
G01*
X117499584Y-60629267D01*
X117686061Y-60724765D01*
X117867849Y-60822743D01*
X118044928Y-60923202D01*
X118217279Y-61026142D01*
X118384881Y-61131562D01*
X118547717Y-61239462D01*
X118705766Y-61349843D01*
X118859010Y-61462704D01*
X119007428Y-61578046D01*
X119151001Y-61695869D01*
X119289710Y-61816171D01*
X119423536Y-61938955D01*
X119552459Y-62064218D01*
X119676460Y-62191962D01*
X119795520Y-62322187D01*
X119795520Y-58803229D01*
X120880311Y-58803229D01*
X120880311Y-65192916D01*
X119782288Y-65192916D01*
X119782288Y-64068436D01*
X119691280Y-63884565D01*
X119591861Y-63704996D01*
X119483993Y-63529690D01*
X119367637Y-63358609D01*
X119242754Y-63191713D01*
X119109307Y-63028965D01*
X118967255Y-62870325D01*
X118816560Y-62715754D01*
X118657183Y-62565214D01*
X118489086Y-62418666D01*
X118312230Y-62276071D01*
X118126576Y-62137391D01*
X117932085Y-62002587D01*
X117728719Y-61871619D01*
X117516438Y-61744450D01*
X117295205Y-61621040D01*
X117295205Y-65192916D01*
X116210414Y-65192916D01*
X116210414Y-58803229D01*
X117308436Y-58803229D01*
X117308436Y-60536249D01*
G37*
G36*
X85068965Y-65206145D02*
G01*
X83918025Y-65206145D01*
X83918025Y-62600000D01*
X82304064Y-62600000D01*
X81311877Y-65206145D01*
X80094794Y-65206145D01*
X81232508Y-62388334D01*
X81093137Y-62328334D01*
X80962757Y-62262424D01*
X80841369Y-62190584D01*
X80728973Y-62112795D01*
X80625569Y-62029037D01*
X80531156Y-61939291D01*
X80445735Y-61843538D01*
X80369306Y-61741758D01*
X80301868Y-61633932D01*
X80243422Y-61520040D01*
X80193968Y-61400063D01*
X80153506Y-61273983D01*
X80122035Y-61141778D01*
X80099556Y-61003431D01*
X80086068Y-60858921D01*
X80081572Y-60708229D01*
X80081851Y-60694999D01*
X81245734Y-60694999D01*
X81246971Y-60751275D01*
X81250669Y-60806000D01*
X81256809Y-60859176D01*
X81265371Y-60910800D01*
X81276336Y-60960875D01*
X81289684Y-61009399D01*
X81305397Y-61056373D01*
X81323454Y-61101796D01*
X81343837Y-61145670D01*
X81366526Y-61187993D01*
X81391502Y-61228765D01*
X81418744Y-61267988D01*
X81448235Y-61305660D01*
X81479955Y-61341782D01*
X81513883Y-61376353D01*
X81550002Y-61409375D01*
X81590778Y-61440687D01*
X81633743Y-61470120D01*
X81678918Y-61497654D01*
X81726322Y-61523270D01*
X81775973Y-61546947D01*
X81827892Y-61568667D01*
X81882097Y-61588411D01*
X81938608Y-61606158D01*
X81997445Y-61621890D01*
X82058627Y-61635588D01*
X82122173Y-61647231D01*
X82188102Y-61656801D01*
X82256434Y-61664278D01*
X82327189Y-61669643D01*
X82400385Y-61672876D01*
X82476042Y-61673957D01*
X83904792Y-61673957D01*
X83904792Y-59755729D01*
X82383437Y-59755729D01*
X82317395Y-59756811D01*
X82253213Y-59760044D01*
X82190891Y-59765408D01*
X82130430Y-59772885D01*
X82071829Y-59782455D01*
X82015089Y-59794099D01*
X81960209Y-59807796D01*
X81907189Y-59823528D01*
X81856029Y-59841276D01*
X81806730Y-59861020D01*
X81759291Y-59882740D01*
X81713712Y-59906417D01*
X81669994Y-59932033D01*
X81628136Y-59959566D01*
X81588139Y-59988999D01*
X81550002Y-60020312D01*
X81513883Y-60053178D01*
X81479955Y-60087285D01*
X81448235Y-60122631D01*
X81418744Y-60159218D01*
X81391502Y-60197045D01*
X81366526Y-60236113D01*
X81343837Y-60276420D01*
X81323454Y-60317968D01*
X81305397Y-60360756D01*
X81289684Y-60404784D01*
X81276336Y-60450053D01*
X81265371Y-60496562D01*
X81256809Y-60544311D01*
X81250669Y-60593300D01*
X81246971Y-60643530D01*
X81245734Y-60694999D01*
X80081851Y-60694999D01*
X80083739Y-60605290D01*
X80090228Y-60504831D01*
X80101019Y-60406852D01*
X80116092Y-60311354D01*
X80135429Y-60218337D01*
X80159009Y-60127799D01*
X80186814Y-60039743D01*
X80218825Y-59954167D01*
X80255021Y-59871071D01*
X80295383Y-59790456D01*
X80339893Y-59712321D01*
X80388530Y-59636667D01*
X80441276Y-59563493D01*
X80498110Y-59492800D01*
X80559014Y-59424587D01*
X80623969Y-59358854D01*
X80693418Y-59296378D01*
X80767809Y-59237931D01*
X80847123Y-59183516D01*
X80931339Y-59133132D01*
X81020439Y-59086778D01*
X81114403Y-59044455D01*
X81213211Y-59006162D01*
X81316845Y-58971901D01*
X81425284Y-58941670D01*
X81538510Y-58915470D01*
X81656504Y-58893301D01*
X81779244Y-58875163D01*
X81906714Y-58861055D01*
X82038892Y-58850978D01*
X82175760Y-58844932D01*
X82317298Y-58842917D01*
X85068965Y-58842917D01*
X85068965Y-59755729D01*
X85068965Y-65206145D01*
G37*
G36*
X97647252Y-62176615D02*
G01*
X97639300Y-62345132D01*
X97626000Y-62510238D01*
X97607313Y-62671933D01*
X97583199Y-62830218D01*
X97553621Y-62985092D01*
X97518540Y-63136556D01*
X97477916Y-63284609D01*
X97431711Y-63429251D01*
X97379886Y-63570483D01*
X97322403Y-63708304D01*
X97259222Y-63842714D01*
X97190305Y-63973714D01*
X97115612Y-64101303D01*
X97035107Y-64225481D01*
X96948748Y-64346249D01*
X96859610Y-64461591D01*
X96765840Y-64569491D01*
X96667458Y-64669950D01*
X96564483Y-64762968D01*
X96456935Y-64848544D01*
X96344833Y-64926678D01*
X96228196Y-64997372D01*
X96107044Y-65060624D01*
X95981396Y-65116434D01*
X95851272Y-65164803D01*
X95716691Y-65205731D01*
X95577672Y-65239217D01*
X95434234Y-65265262D01*
X95286398Y-65283866D01*
X95134182Y-65295028D01*
X94977606Y-65298749D01*
X94825677Y-65295189D01*
X94677468Y-65284538D01*
X94532980Y-65266832D01*
X94392213Y-65242111D01*
X94255167Y-65210414D01*
X94121842Y-65171780D01*
X93992237Y-65126247D01*
X93866353Y-65073853D01*
X93744190Y-65014639D01*
X93625748Y-64948641D01*
X93511027Y-64875900D01*
X93400026Y-64796454D01*
X93292746Y-64710342D01*
X93189187Y-64617602D01*
X93089349Y-64518274D01*
X92993231Y-64412395D01*
X92901919Y-64296123D01*
X92816497Y-64175510D01*
X92736966Y-64050557D01*
X92663327Y-63921262D01*
X92595579Y-63787627D01*
X92533722Y-63649651D01*
X92477756Y-63507334D01*
X92427681Y-63360677D01*
X92383498Y-63209678D01*
X92345205Y-63054339D01*
X92312804Y-62894659D01*
X92286294Y-62730638D01*
X92265675Y-62562276D01*
X92250947Y-62389573D01*
X92242111Y-62212530D01*
X92239165Y-62031146D01*
X92239377Y-62017916D01*
X93495936Y-62017916D01*
X93497493Y-62181004D01*
X93502189Y-62337871D01*
X93510063Y-62488498D01*
X93521155Y-62632866D01*
X93535501Y-62770955D01*
X93553143Y-62902746D01*
X93574117Y-63028219D01*
X93598463Y-63147356D01*
X93626220Y-63260137D01*
X93657427Y-63366542D01*
X93692121Y-63466552D01*
X93730342Y-63560148D01*
X93772129Y-63647310D01*
X93817521Y-63728019D01*
X93866556Y-63802255D01*
X93919272Y-63870000D01*
X93972286Y-63932476D01*
X94027121Y-63990922D01*
X94083739Y-64045338D01*
X94142101Y-64095722D01*
X94202168Y-64142076D01*
X94263902Y-64184399D01*
X94327263Y-64222691D01*
X94392214Y-64256953D01*
X94458715Y-64287183D01*
X94526727Y-64313383D01*
X94596212Y-64335553D01*
X94667132Y-64353691D01*
X94739446Y-64367799D01*
X94813117Y-64377876D01*
X94888106Y-64383922D01*
X94964373Y-64385937D01*
X95049953Y-64383612D01*
X95133072Y-64376636D01*
X95213749Y-64365008D01*
X95253177Y-64357451D01*
X95292003Y-64348730D01*
X95330228Y-64338847D01*
X95367854Y-64327801D01*
X95404885Y-64315593D01*
X95441322Y-64302221D01*
X95477168Y-64287687D01*
X95512425Y-64271991D01*
X95547096Y-64255131D01*
X95581184Y-64237109D01*
X95614690Y-64217924D01*
X95647617Y-64197577D01*
X95679967Y-64176066D01*
X95711744Y-64153393D01*
X95742949Y-64129557D01*
X95773584Y-64104559D01*
X95833157Y-64051074D01*
X95890483Y-63992938D01*
X95945580Y-63930151D01*
X95998468Y-63862713D01*
X96049166Y-63790624D01*
X96094748Y-63714040D01*
X96137249Y-63633114D01*
X96176688Y-63547848D01*
X96213084Y-63458241D01*
X96246458Y-63364294D01*
X96276828Y-63266005D01*
X96304213Y-63163376D01*
X96328634Y-63056405D01*
X96350108Y-62945094D01*
X96368657Y-62829443D01*
X96384299Y-62709450D01*
X96397054Y-62585116D01*
X96406940Y-62456442D01*
X96413978Y-62323427D01*
X96418186Y-62186071D01*
X96419585Y-62044374D01*
X96418151Y-61899073D01*
X96413849Y-61758348D01*
X96406679Y-61622202D01*
X96396640Y-61490636D01*
X96383734Y-61363652D01*
X96367960Y-61241255D01*
X96349317Y-61123445D01*
X96327807Y-61010226D01*
X96303429Y-60901599D01*
X96276182Y-60797568D01*
X96246067Y-60698134D01*
X96213085Y-60603300D01*
X96177234Y-60513068D01*
X96138515Y-60427442D01*
X96096929Y-60346422D01*
X96052474Y-60270013D01*
X96005151Y-60198215D01*
X95954960Y-60131032D01*
X95901901Y-60068466D01*
X95845974Y-60010520D01*
X95787179Y-59957195D01*
X95725516Y-59908494D01*
X95660985Y-59864420D01*
X95593586Y-59824975D01*
X95523319Y-59790162D01*
X95450183Y-59759983D01*
X95374180Y-59734440D01*
X95295309Y-59713535D01*
X95213570Y-59697272D01*
X95128963Y-59685653D01*
X95041487Y-59678679D01*
X94951144Y-59676354D01*
X94905605Y-59676974D01*
X94860766Y-59678831D01*
X94816629Y-59681924D01*
X94773197Y-59686250D01*
X94730473Y-59691807D01*
X94688458Y-59698591D01*
X94647156Y-59706601D01*
X94606567Y-59715835D01*
X94566696Y-59726289D01*
X94527545Y-59737962D01*
X94489115Y-59750851D01*
X94451409Y-59764953D01*
X94414430Y-59780267D01*
X94378181Y-59796789D01*
X94342662Y-59814518D01*
X94307878Y-59833450D01*
X94273830Y-59853584D01*
X94240521Y-59874917D01*
X94207953Y-59897447D01*
X94176129Y-59921171D01*
X94145051Y-59946087D01*
X94114721Y-59972192D01*
X94085143Y-59999484D01*
X94056317Y-60027960D01*
X94028248Y-60057619D01*
X94000936Y-60088457D01*
X93974385Y-60120473D01*
X93948598Y-60153663D01*
X93923575Y-60188026D01*
X93899321Y-60223559D01*
X93875837Y-60260259D01*
X93853125Y-60298125D01*
X93809871Y-60379208D01*
X93769408Y-60463722D01*
X93731736Y-60551685D01*
X93696854Y-60643117D01*
X93664763Y-60738037D01*
X93635462Y-60836464D01*
X93608952Y-60938418D01*
X93585232Y-61043919D01*
X93564304Y-61152985D01*
X93546165Y-61265637D01*
X93530817Y-61381893D01*
X93518260Y-61501772D01*
X93508493Y-61625295D01*
X93501517Y-61752480D01*
X93497331Y-61883348D01*
X93495936Y-62017916D01*
X92239377Y-62017916D01*
X92241956Y-61856893D01*
X92250327Y-61686361D01*
X92264280Y-61519549D01*
X92283813Y-61356458D01*
X92308928Y-61197088D01*
X92339624Y-61041439D01*
X92375901Y-60889510D01*
X92417759Y-60741302D01*
X92465198Y-60596815D01*
X92518218Y-60456048D01*
X92576819Y-60319002D01*
X92641001Y-60185677D01*
X92710764Y-60056073D01*
X92786108Y-59930189D01*
X92867033Y-59808026D01*
X92953540Y-59689583D01*
X93045000Y-59576570D01*
X93140762Y-59470708D01*
X93240788Y-59372016D01*
X93345038Y-59280513D01*
X93453475Y-59196219D01*
X93566058Y-59119153D01*
X93682750Y-59049335D01*
X93803511Y-58986784D01*
X93928304Y-58931520D01*
X94057088Y-58883561D01*
X94189825Y-58842927D01*
X94326478Y-58809637D01*
X94467005Y-58783712D01*
X94611370Y-58765170D01*
X94759533Y-58754030D01*
X94911456Y-58750313D01*
X95063385Y-58754030D01*
X95211593Y-58765170D01*
X95356080Y-58783712D01*
X95496847Y-58809637D01*
X95633893Y-58842927D01*
X95767218Y-58883561D01*
X95896822Y-58931519D01*
X96022706Y-58986784D01*
X96144869Y-59049335D01*
X96263312Y-59119153D01*
X96378033Y-59196219D01*
X96489034Y-59280513D01*
X96596314Y-59372016D01*
X96699874Y-59470708D01*
X96799713Y-59576570D01*
X96895831Y-59689583D01*
X96987143Y-59807874D01*
X97072564Y-59929595D01*
X97152094Y-60054765D01*
X97225733Y-60183403D01*
X97293481Y-60315530D01*
X97355338Y-60451165D01*
X97411303Y-60590326D01*
X97461378Y-60733034D01*
X97505561Y-60879307D01*
X97543853Y-61029166D01*
X97576255Y-61182628D01*
X97602765Y-61339715D01*
X97623383Y-61500445D01*
X97638111Y-61664837D01*
X97646948Y-61832911D01*
X97649893Y-62004687D01*
X97649284Y-62044374D01*
X97647252Y-62176615D01*
G37*
G36*
X78917399Y-65206145D02*
G01*
X74789897Y-65206145D01*
X74789897Y-64213957D01*
X77779689Y-64213957D01*
X77779689Y-62428020D01*
X75411669Y-62428020D01*
X75411669Y-61501979D01*
X77779689Y-61501979D01*
X77779689Y-59782187D01*
X74842814Y-59782187D01*
X74842814Y-58842917D01*
X78917399Y-58842917D01*
X78917399Y-65206145D01*
G37*
G36*
X109635520Y-65219375D02*
G01*
X107545312Y-65219375D01*
X107359583Y-65215810D01*
X107179417Y-65205113D01*
X107004792Y-65187284D01*
X106835691Y-65162324D01*
X106672093Y-65130233D01*
X106513980Y-65091011D01*
X106361331Y-65044657D01*
X106214127Y-64991172D01*
X106072350Y-64930555D01*
X105935979Y-64862807D01*
X105804996Y-64787928D01*
X105679380Y-64705918D01*
X105559113Y-64616776D01*
X105444175Y-64520502D01*
X105334546Y-64417098D01*
X105230208Y-64306562D01*
X105131761Y-64190755D01*
X105039806Y-64071538D01*
X104954323Y-63948910D01*
X104875294Y-63822871D01*
X104802698Y-63693422D01*
X104736517Y-63560562D01*
X104676730Y-63424291D01*
X104623319Y-63284610D01*
X104576265Y-63141518D01*
X104535547Y-62995015D01*
X104501146Y-62845102D01*
X104473044Y-62691778D01*
X104451220Y-62535043D01*
X104435656Y-62374898D01*
X104426332Y-62211342D01*
X104423228Y-62044375D01*
X104424630Y-61965000D01*
X105666772Y-61965000D01*
X105668790Y-62106545D01*
X105674859Y-62243458D01*
X105684997Y-62375760D01*
X105699225Y-62503468D01*
X105717560Y-62626604D01*
X105740023Y-62745185D01*
X105766633Y-62859231D01*
X105797410Y-62968763D01*
X105832372Y-63073798D01*
X105871540Y-63174357D01*
X105914932Y-63270459D01*
X105962568Y-63362124D01*
X106014467Y-63449370D01*
X106070649Y-63532217D01*
X106131133Y-63610684D01*
X106195939Y-63684791D01*
X106263841Y-63754551D01*
X106333604Y-63819951D01*
X106405227Y-63880971D01*
X106478711Y-63937592D01*
X106554055Y-63989795D01*
X106631260Y-64037561D01*
X106710325Y-64080869D01*
X106791250Y-64119700D01*
X106874036Y-64154036D01*
X106958682Y-64183857D01*
X107045188Y-64209143D01*
X107133555Y-64229875D01*
X107223782Y-64246033D01*
X107315869Y-64257599D01*
X107409817Y-64264553D01*
X107505625Y-64266875D01*
X108444895Y-64266875D01*
X108444895Y-59742499D01*
X107360104Y-59742499D01*
X107266932Y-59744983D01*
X107175929Y-59752447D01*
X107087098Y-59764911D01*
X107000436Y-59782394D01*
X106915945Y-59804915D01*
X106833625Y-59832494D01*
X106753474Y-59865150D01*
X106675495Y-59902903D01*
X106599685Y-59945772D01*
X106526046Y-59993776D01*
X106454578Y-60046935D01*
X106385280Y-60105268D01*
X106318152Y-60168794D01*
X106253195Y-60237534D01*
X106190408Y-60311505D01*
X106129792Y-60390729D01*
X106074450Y-60471341D01*
X106022537Y-60554414D01*
X105974074Y-60639928D01*
X105929080Y-60727866D01*
X105887575Y-60818206D01*
X105849576Y-60910929D01*
X105815105Y-61006017D01*
X105784180Y-61103450D01*
X105756821Y-61203208D01*
X105733046Y-61305272D01*
X105712876Y-61409623D01*
X105696330Y-61516242D01*
X105683427Y-61625108D01*
X105674187Y-61736202D01*
X105668629Y-61849506D01*
X105666772Y-61965000D01*
X104424630Y-61965000D01*
X104426180Y-61877260D01*
X104435062Y-61713284D01*
X104449912Y-61552486D01*
X104470770Y-61394906D01*
X104497674Y-61240580D01*
X104530663Y-61089550D01*
X104569776Y-60941852D01*
X104615051Y-60797526D01*
X104666527Y-60656611D01*
X104724243Y-60519145D01*
X104788238Y-60385167D01*
X104858551Y-60254717D01*
X104935219Y-60127832D01*
X105018282Y-60004551D01*
X105107780Y-59884914D01*
X105203749Y-59768958D01*
X105304980Y-59656094D01*
X105410222Y-59550651D01*
X105519456Y-59452611D01*
X105632663Y-59361955D01*
X105749823Y-59278662D01*
X105870917Y-59202714D01*
X105995926Y-59134091D01*
X106124829Y-59072773D01*
X106257609Y-59018742D01*
X106394245Y-58971978D01*
X106534717Y-58932462D01*
X106679008Y-58900174D01*
X106827096Y-58875095D01*
X106978964Y-58857205D01*
X107134591Y-58846486D01*
X107293957Y-58842917D01*
X109635520Y-58842917D01*
X109635520Y-59742499D01*
X109635520Y-65219375D01*
G37*
G36*
X88945261Y-58740803D02*
G01*
X89099537Y-58751965D01*
X89249202Y-58770569D01*
X89394274Y-58796613D01*
X89534772Y-58830100D01*
X89670717Y-58871028D01*
X89802127Y-58919397D01*
X89929022Y-58975207D01*
X90051421Y-59038459D01*
X90169343Y-59109153D01*
X90282809Y-59187288D01*
X90391836Y-59272864D01*
X90496446Y-59365881D01*
X90596656Y-59466340D01*
X90692487Y-59574241D01*
X90783957Y-59689582D01*
X90870463Y-59810347D01*
X90951389Y-59934503D01*
X91026733Y-60062031D01*
X91096496Y-60192911D01*
X91160678Y-60327124D01*
X91219279Y-60464651D01*
X91272299Y-60605473D01*
X91319738Y-60749569D01*
X91361596Y-60896921D01*
X91397873Y-61047509D01*
X91428569Y-61201315D01*
X91453683Y-61358317D01*
X91473217Y-61518498D01*
X91487170Y-61681838D01*
X91495541Y-61848317D01*
X91498332Y-62017915D01*
X91495851Y-62180238D01*
X91488410Y-62339808D01*
X91476008Y-62496666D01*
X91458645Y-62650849D01*
X91436321Y-62802396D01*
X91409036Y-62951347D01*
X91376790Y-63097740D01*
X91339584Y-63241614D01*
X91297416Y-63383007D01*
X91250287Y-63521958D01*
X91198198Y-63658507D01*
X91141147Y-63792691D01*
X91079135Y-63924550D01*
X91012162Y-64054122D01*
X90940228Y-64181446D01*
X90863333Y-64306561D01*
X90778997Y-64426709D01*
X90689700Y-64539105D01*
X90595442Y-64643750D01*
X90496223Y-64740643D01*
X90392043Y-64829785D01*
X90282902Y-64911176D01*
X90168800Y-64984815D01*
X90049738Y-65050702D01*
X89925714Y-65108838D01*
X89796730Y-65159222D01*
X89662784Y-65201855D01*
X89523878Y-65236737D01*
X89380011Y-65263867D01*
X89231182Y-65283246D01*
X89077393Y-65294873D01*
X88918643Y-65298749D01*
X88774773Y-65295028D01*
X88704692Y-65290377D01*
X88635844Y-65283866D01*
X88568227Y-65275494D01*
X88501838Y-65265262D01*
X88436674Y-65253170D01*
X88372734Y-65239218D01*
X88310015Y-65223405D01*
X88248514Y-65205731D01*
X88188228Y-65186198D01*
X88129157Y-65164804D01*
X88071297Y-65141549D01*
X88014645Y-65116434D01*
X87959200Y-65089459D01*
X87904958Y-65060624D01*
X87851919Y-65029928D01*
X87800078Y-64997372D01*
X87749433Y-64962956D01*
X87699983Y-64926679D01*
X87651725Y-64888542D01*
X87604656Y-64848544D01*
X87558774Y-64806686D01*
X87514077Y-64762968D01*
X87470562Y-64717389D01*
X87428226Y-64669950D01*
X87387068Y-64620651D01*
X87347085Y-64569491D01*
X87308274Y-64516471D01*
X87270633Y-64461591D01*
X87234159Y-64404850D01*
X87198851Y-64346249D01*
X86854895Y-65206145D01*
X86352187Y-65206145D01*
X86352187Y-61938542D01*
X88746669Y-61938542D01*
X88746669Y-62864584D01*
X87436980Y-62864584D01*
X87438527Y-62947834D01*
X87443155Y-63028915D01*
X87450846Y-63107825D01*
X87461578Y-63184564D01*
X87475334Y-63259133D01*
X87492093Y-63331532D01*
X87511837Y-63401760D01*
X87534546Y-63469818D01*
X87560200Y-63535705D01*
X87588780Y-63599422D01*
X87620267Y-63660969D01*
X87654641Y-63720345D01*
X87691883Y-63777550D01*
X87731974Y-63832586D01*
X87774894Y-63885451D01*
X87820624Y-63936145D01*
X87868531Y-63986533D01*
X87918008Y-64033530D01*
X87969074Y-64077154D01*
X88021749Y-64117426D01*
X88076051Y-64154365D01*
X88132001Y-64187990D01*
X88189617Y-64218321D01*
X88248919Y-64245377D01*
X88309926Y-64269177D01*
X88372658Y-64289741D01*
X88437134Y-64307088D01*
X88503373Y-64321238D01*
X88571396Y-64332209D01*
X88641220Y-64340022D01*
X88712866Y-64344696D01*
X88786353Y-64346249D01*
X88968974Y-64336941D01*
X89055860Y-64325298D01*
X89139794Y-64308991D01*
X89220772Y-64288012D01*
X89298793Y-64262359D01*
X89373853Y-64232026D01*
X89445951Y-64197008D01*
X89515084Y-64157300D01*
X89581250Y-64112898D01*
X89644446Y-64063796D01*
X89704669Y-64009991D01*
X89761918Y-63951476D01*
X89816190Y-63888248D01*
X89867483Y-63820300D01*
X89915794Y-63747630D01*
X89961120Y-63670230D01*
X90003460Y-63588098D01*
X90079169Y-63409614D01*
X90142903Y-63212139D01*
X90194641Y-62995634D01*
X90234364Y-62760061D01*
X90262054Y-62505380D01*
X90277689Y-62231553D01*
X90281253Y-61938541D01*
X90279550Y-61797148D01*
X90274457Y-61660677D01*
X90265992Y-61529089D01*
X90254174Y-61402346D01*
X90239023Y-61280409D01*
X90220558Y-61163239D01*
X90198799Y-61050798D01*
X90173764Y-60943046D01*
X90145475Y-60839945D01*
X90113948Y-60741456D01*
X90079206Y-60647541D01*
X90041265Y-60558160D01*
X90000147Y-60473275D01*
X89955869Y-60392847D01*
X89908453Y-60316837D01*
X89857917Y-60245207D01*
X89804745Y-60177925D01*
X89749423Y-60114983D01*
X89691969Y-60056382D01*
X89632402Y-60002122D01*
X89570743Y-59952202D01*
X89507010Y-59906623D01*
X89441222Y-59865386D01*
X89373400Y-59828489D01*
X89303563Y-59795933D01*
X89231729Y-59767717D01*
X89157919Y-59743843D01*
X89082152Y-59724309D01*
X89004447Y-59709116D01*
X88924823Y-59698264D01*
X88843300Y-59691753D01*
X88759898Y-59689582D01*
X88631381Y-59694082D01*
X88569338Y-59699709D01*
X88508775Y-59707592D01*
X88449695Y-59717732D01*
X88392099Y-59730132D01*
X88335991Y-59744795D01*
X88281372Y-59761723D01*
X88228246Y-59780918D01*
X88176614Y-59802382D01*
X88126480Y-59826119D01*
X88077844Y-59852131D01*
X88030711Y-59880419D01*
X87985082Y-59910987D01*
X87940959Y-59943836D01*
X87898346Y-59978970D01*
X87857244Y-60016391D01*
X87817657Y-60056101D01*
X87779585Y-60098102D01*
X87743033Y-60142397D01*
X87708001Y-60188989D01*
X87674494Y-60237879D01*
X87642512Y-60289070D01*
X87612059Y-60342566D01*
X87583137Y-60398367D01*
X87555748Y-60456477D01*
X87505580Y-60579631D01*
X87461574Y-60712049D01*
X87423751Y-60853749D01*
X86431563Y-60681770D01*
X86453264Y-60578675D01*
X86478665Y-60477751D01*
X86507749Y-60378998D01*
X86540496Y-60282414D01*
X86576886Y-60188001D01*
X86616899Y-60095759D01*
X86660517Y-60005687D01*
X86707720Y-59917785D01*
X86758489Y-59832054D01*
X86812805Y-59748493D01*
X86870647Y-59667103D01*
X86931997Y-59587883D01*
X86996835Y-59510834D01*
X87065142Y-59435954D01*
X87136898Y-59363246D01*
X87212084Y-59292708D01*
X87290371Y-59225425D01*
X87371428Y-59162483D01*
X87455238Y-59103882D01*
X87541779Y-59049622D01*
X87631034Y-58999702D01*
X87722983Y-58954123D01*
X87817605Y-58912886D01*
X87914883Y-58875989D01*
X88014796Y-58843432D01*
X88117325Y-58815217D01*
X88222451Y-58791343D01*
X88330154Y-58771809D01*
X88440415Y-58756616D01*
X88553215Y-58745764D01*
X88668534Y-58739253D01*
X88786353Y-58737082D01*
X88945261Y-58740803D01*
G37*
G36*
X73810939Y-65206145D02*
G01*
X69683440Y-65206145D01*
X69683440Y-64213957D01*
X72660002Y-64213957D01*
X72660002Y-62428020D01*
X70291983Y-62428020D01*
X70291983Y-61501979D01*
X72660002Y-61501979D01*
X72660002Y-59782187D01*
X69723128Y-59782187D01*
X69723128Y-58842917D01*
X73810939Y-58842917D01*
X73810939Y-65206145D01*
G37*
G36*
X112863436Y-61621041D02*
G01*
X114490624Y-58842917D01*
X115628333Y-58842917D01*
X113300000Y-62600000D01*
X114649375Y-65206145D01*
X113617499Y-65206145D01*
X112254897Y-62520624D01*
X110191146Y-58842917D01*
X111289166Y-58842917D01*
X112863436Y-61621041D01*
G37*
G36*
X103378131Y-65206145D02*
G01*
X102227191Y-65206145D01*
X102227191Y-62600000D01*
X100613230Y-62600000D01*
X99621043Y-65206145D01*
X98403956Y-65206145D01*
X99541674Y-62388334D01*
X99402303Y-62328334D01*
X99271923Y-62262424D01*
X99150535Y-62190584D01*
X99038139Y-62112795D01*
X98934734Y-62029037D01*
X98840321Y-61939291D01*
X98754900Y-61843538D01*
X98678470Y-61741758D01*
X98611032Y-61633932D01*
X98552586Y-61520040D01*
X98503131Y-61400063D01*
X98462668Y-61273983D01*
X98431197Y-61141778D01*
X98408718Y-61003431D01*
X98395230Y-60858921D01*
X98390734Y-60708229D01*
X98391013Y-60694999D01*
X99554896Y-60694999D01*
X99556133Y-60751275D01*
X99559831Y-60806000D01*
X99565971Y-60859176D01*
X99574533Y-60910800D01*
X99585498Y-60960875D01*
X99598846Y-61009399D01*
X99614559Y-61056373D01*
X99632617Y-61101796D01*
X99653000Y-61145670D01*
X99675689Y-61187993D01*
X99700665Y-61228765D01*
X99727908Y-61267988D01*
X99757400Y-61305660D01*
X99789119Y-61341782D01*
X99823049Y-61376353D01*
X99859168Y-61409375D01*
X99899944Y-61440687D01*
X99942909Y-61470120D01*
X99988084Y-61497654D01*
X100035487Y-61523270D01*
X100085138Y-61546947D01*
X100137057Y-61568667D01*
X100191262Y-61588411D01*
X100247773Y-61606158D01*
X100306610Y-61621890D01*
X100367791Y-61635588D01*
X100431337Y-61647231D01*
X100497266Y-61656801D01*
X100565599Y-61664278D01*
X100636354Y-61669643D01*
X100709550Y-61672876D01*
X100785208Y-61673957D01*
X102213958Y-61673957D01*
X102213958Y-59755729D01*
X100692603Y-59755729D01*
X100626561Y-59756811D01*
X100562379Y-59760044D01*
X100500057Y-59765408D01*
X100439596Y-59772885D01*
X100380995Y-59782455D01*
X100324255Y-59794099D01*
X100269374Y-59807796D01*
X100216355Y-59823528D01*
X100165195Y-59841276D01*
X100115896Y-59861020D01*
X100068457Y-59882740D01*
X100022878Y-59906417D01*
X99979160Y-59932033D01*
X99937302Y-59959566D01*
X99897305Y-59988999D01*
X99859168Y-60020312D01*
X99823049Y-60053178D01*
X99789119Y-60087285D01*
X99757400Y-60122631D01*
X99727908Y-60159218D01*
X99700665Y-60197045D01*
X99675689Y-60236113D01*
X99653000Y-60276420D01*
X99632617Y-60317968D01*
X99614559Y-60360756D01*
X99598846Y-60404784D01*
X99585498Y-60450053D01*
X99574533Y-60496562D01*
X99565971Y-60544311D01*
X99559831Y-60593300D01*
X99556133Y-60643530D01*
X99554896Y-60694999D01*
X98391013Y-60694999D01*
X98392902Y-60605290D01*
X98399390Y-60504831D01*
X98410181Y-60406852D01*
X98425254Y-60311354D01*
X98444591Y-60218337D01*
X98468171Y-60127799D01*
X98495976Y-60039743D01*
X98527987Y-59954167D01*
X98564183Y-59871071D01*
X98604545Y-59790456D01*
X98649055Y-59712321D01*
X98697692Y-59636667D01*
X98750438Y-59563493D01*
X98807272Y-59492800D01*
X98868177Y-59424587D01*
X98933131Y-59358854D01*
X99002581Y-59296378D01*
X99076972Y-59237931D01*
X99156285Y-59183516D01*
X99240502Y-59133132D01*
X99329602Y-59086778D01*
X99423566Y-59044455D01*
X99522375Y-59006162D01*
X99626009Y-58971901D01*
X99734449Y-58941670D01*
X99847675Y-58915470D01*
X99965669Y-58893301D01*
X100088410Y-58875163D01*
X100215879Y-58861055D01*
X100348058Y-58850978D01*
X100484926Y-58844932D01*
X100626464Y-58842917D01*
X103378131Y-58842917D01*
X103378131Y-59755729D01*
X103378131Y-65206145D01*
G37*
G36*
X64841567Y-61687187D02*
G01*
X64969163Y-61461351D01*
X65103929Y-61236077D01*
X65245903Y-61012548D01*
X65395125Y-60791944D01*
X65551633Y-60575449D01*
X65715467Y-60364244D01*
X65886664Y-60159512D01*
X66065263Y-59962434D01*
X66251305Y-59774193D01*
X66444826Y-59595971D01*
X66645867Y-59428949D01*
X66854465Y-59274311D01*
X67070660Y-59133238D01*
X67294490Y-59006911D01*
X67409280Y-58949648D01*
X67525994Y-58896514D01*
X67644637Y-58847659D01*
X67765212Y-58803229D01*
X68744170Y-58803229D01*
X68744170Y-65192917D01*
X67765212Y-65192917D01*
X67765212Y-59874791D01*
X67531953Y-60017076D01*
X67303714Y-60184592D01*
X67080862Y-60375284D01*
X66863766Y-60587099D01*
X66652793Y-60817983D01*
X66448312Y-61065881D01*
X66250692Y-61328740D01*
X66060300Y-61604505D01*
X65877504Y-61891122D01*
X65702673Y-62186536D01*
X65536175Y-62488695D01*
X65378378Y-62795543D01*
X65229651Y-63105026D01*
X65090361Y-63415091D01*
X64960877Y-63723683D01*
X64841567Y-64028748D01*
X64841567Y-65192916D01*
X63862609Y-65192916D01*
X63862609Y-58803229D01*
X64841567Y-58803229D01*
X64841567Y-61687187D01*
G37*
D11*
X69239411Y-75517438D02*
X69334649Y-75469819D01*
X69334649Y-75469819D02*
X69477506Y-75469819D01*
X69477506Y-75469819D02*
X69620363Y-75517438D01*
X69620363Y-75517438D02*
X69715601Y-75612676D01*
X69715601Y-75612676D02*
X69763220Y-75707914D01*
X69763220Y-75707914D02*
X69810839Y-75898390D01*
X69810839Y-75898390D02*
X69810839Y-76041247D01*
X69810839Y-76041247D02*
X69763220Y-76231723D01*
X69763220Y-76231723D02*
X69715601Y-76326961D01*
X69715601Y-76326961D02*
X69620363Y-76422200D01*
X69620363Y-76422200D02*
X69477506Y-76469819D01*
X69477506Y-76469819D02*
X69382268Y-76469819D01*
X69382268Y-76469819D02*
X69239411Y-76422200D01*
X69239411Y-76422200D02*
X69191792Y-76374580D01*
X69191792Y-76374580D02*
X69191792Y-76041247D01*
X69191792Y-76041247D02*
X69382268Y-76041247D01*
X68763220Y-76469819D02*
X68763220Y-75469819D01*
X68763220Y-75469819D02*
X68191792Y-76469819D01*
X68191792Y-76469819D02*
X68191792Y-75469819D01*
X67715601Y-76469819D02*
X67715601Y-75469819D01*
X67715601Y-75469819D02*
X67477506Y-75469819D01*
X67477506Y-75469819D02*
X67334649Y-75517438D01*
X67334649Y-75517438D02*
X67239411Y-75612676D01*
X67239411Y-75612676D02*
X67191792Y-75707914D01*
X67191792Y-75707914D02*
X67144173Y-75898390D01*
X67144173Y-75898390D02*
X67144173Y-76041247D01*
X67144173Y-76041247D02*
X67191792Y-76231723D01*
X67191792Y-76231723D02*
X67239411Y-76326961D01*
X67239411Y-76326961D02*
X67334649Y-76422200D01*
X67334649Y-76422200D02*
X67477506Y-76469819D01*
X67477506Y-76469819D02*
X67715601Y-76469819D01*
X64263220Y-84388866D02*
X63501316Y-84388866D01*
X63882268Y-84769819D02*
X63882268Y-84007914D01*
X63025125Y-84769819D02*
X63025125Y-83769819D01*
X63025125Y-83769819D02*
X62691792Y-84484104D01*
X62691792Y-84484104D02*
X62358459Y-83769819D01*
X62358459Y-83769819D02*
X62358459Y-84769819D01*
X61691792Y-83769819D02*
X61501316Y-83769819D01*
X61501316Y-83769819D02*
X61406078Y-83817438D01*
X61406078Y-83817438D02*
X61310840Y-83912676D01*
X61310840Y-83912676D02*
X61263221Y-84103152D01*
X61263221Y-84103152D02*
X61263221Y-84436485D01*
X61263221Y-84436485D02*
X61310840Y-84626961D01*
X61310840Y-84626961D02*
X61406078Y-84722200D01*
X61406078Y-84722200D02*
X61501316Y-84769819D01*
X61501316Y-84769819D02*
X61691792Y-84769819D01*
X61691792Y-84769819D02*
X61787030Y-84722200D01*
X61787030Y-84722200D02*
X61882268Y-84626961D01*
X61882268Y-84626961D02*
X61929887Y-84436485D01*
X61929887Y-84436485D02*
X61929887Y-84103152D01*
X61929887Y-84103152D02*
X61882268Y-83912676D01*
X61882268Y-83912676D02*
X61787030Y-83817438D01*
X61787030Y-83817438D02*
X61691792Y-83769819D01*
X60977506Y-83769819D02*
X60406078Y-83769819D01*
X60691792Y-84769819D02*
X60691792Y-83769819D01*
X59882268Y-83769819D02*
X59691792Y-83769819D01*
X59691792Y-83769819D02*
X59596554Y-83817438D01*
X59596554Y-83817438D02*
X59501316Y-83912676D01*
X59501316Y-83912676D02*
X59453697Y-84103152D01*
X59453697Y-84103152D02*
X59453697Y-84436485D01*
X59453697Y-84436485D02*
X59501316Y-84626961D01*
X59501316Y-84626961D02*
X59596554Y-84722200D01*
X59596554Y-84722200D02*
X59691792Y-84769819D01*
X59691792Y-84769819D02*
X59882268Y-84769819D01*
X59882268Y-84769819D02*
X59977506Y-84722200D01*
X59977506Y-84722200D02*
X60072744Y-84626961D01*
X60072744Y-84626961D02*
X60120363Y-84436485D01*
X60120363Y-84436485D02*
X60120363Y-84103152D01*
X60120363Y-84103152D02*
X60072744Y-83912676D01*
X60072744Y-83912676D02*
X59977506Y-83817438D01*
X59977506Y-83817438D02*
X59882268Y-83769819D01*
X58453697Y-84769819D02*
X58787030Y-84293628D01*
X59025125Y-84769819D02*
X59025125Y-83769819D01*
X59025125Y-83769819D02*
X58644173Y-83769819D01*
X58644173Y-83769819D02*
X58548935Y-83817438D01*
X58548935Y-83817438D02*
X58501316Y-83865057D01*
X58501316Y-83865057D02*
X58453697Y-83960295D01*
X58453697Y-83960295D02*
X58453697Y-84103152D01*
X58453697Y-84103152D02*
X58501316Y-84198390D01*
X58501316Y-84198390D02*
X58548935Y-84246009D01*
X58548935Y-84246009D02*
X58644173Y-84293628D01*
X58644173Y-84293628D02*
X59025125Y-84293628D01*
X70513220Y-135988866D02*
X69751316Y-135988866D01*
X70132268Y-136369819D02*
X70132268Y-135607914D01*
X68751316Y-136369819D02*
X69322744Y-136369819D01*
X69037030Y-136369819D02*
X69037030Y-135369819D01*
X69037030Y-135369819D02*
X69132268Y-135512676D01*
X69132268Y-135512676D02*
X69227506Y-135607914D01*
X69227506Y-135607914D02*
X69322744Y-135655533D01*
X68370363Y-135465057D02*
X68322744Y-135417438D01*
X68322744Y-135417438D02*
X68227506Y-135369819D01*
X68227506Y-135369819D02*
X67989411Y-135369819D01*
X67989411Y-135369819D02*
X67894173Y-135417438D01*
X67894173Y-135417438D02*
X67846554Y-135465057D01*
X67846554Y-135465057D02*
X67798935Y-135560295D01*
X67798935Y-135560295D02*
X67798935Y-135655533D01*
X67798935Y-135655533D02*
X67846554Y-135798390D01*
X67846554Y-135798390D02*
X68417982Y-136369819D01*
X68417982Y-136369819D02*
X67798935Y-136369819D01*
X67513220Y-135369819D02*
X67179887Y-136369819D01*
X67179887Y-136369819D02*
X66846554Y-135369819D01*
X127313220Y-73038866D02*
X126551316Y-73038866D01*
X126932268Y-73419819D02*
X126932268Y-72657914D01*
X125598935Y-72419819D02*
X126075125Y-72419819D01*
X126075125Y-72419819D02*
X126122744Y-72896009D01*
X126122744Y-72896009D02*
X126075125Y-72848390D01*
X126075125Y-72848390D02*
X125979887Y-72800771D01*
X125979887Y-72800771D02*
X125741792Y-72800771D01*
X125741792Y-72800771D02*
X125646554Y-72848390D01*
X125646554Y-72848390D02*
X125598935Y-72896009D01*
X125598935Y-72896009D02*
X125551316Y-72991247D01*
X125551316Y-72991247D02*
X125551316Y-73229342D01*
X125551316Y-73229342D02*
X125598935Y-73324580D01*
X125598935Y-73324580D02*
X125646554Y-73372200D01*
X125646554Y-73372200D02*
X125741792Y-73419819D01*
X125741792Y-73419819D02*
X125979887Y-73419819D01*
X125979887Y-73419819D02*
X126075125Y-73372200D01*
X126075125Y-73372200D02*
X126122744Y-73324580D01*
X125265601Y-72419819D02*
X124932268Y-73419819D01*
X124932268Y-73419819D02*
X124598935Y-72419819D01*
X123889411Y-68467438D02*
X123984649Y-68419819D01*
X123984649Y-68419819D02*
X124127506Y-68419819D01*
X124127506Y-68419819D02*
X124270363Y-68467438D01*
X124270363Y-68467438D02*
X124365601Y-68562676D01*
X124365601Y-68562676D02*
X124413220Y-68657914D01*
X124413220Y-68657914D02*
X124460839Y-68848390D01*
X124460839Y-68848390D02*
X124460839Y-68991247D01*
X124460839Y-68991247D02*
X124413220Y-69181723D01*
X124413220Y-69181723D02*
X124365601Y-69276961D01*
X124365601Y-69276961D02*
X124270363Y-69372200D01*
X124270363Y-69372200D02*
X124127506Y-69419819D01*
X124127506Y-69419819D02*
X124032268Y-69419819D01*
X124032268Y-69419819D02*
X123889411Y-69372200D01*
X123889411Y-69372200D02*
X123841792Y-69324580D01*
X123841792Y-69324580D02*
X123841792Y-68991247D01*
X123841792Y-68991247D02*
X124032268Y-68991247D01*
X123413220Y-69419819D02*
X123413220Y-68419819D01*
X123413220Y-68419819D02*
X122841792Y-69419819D01*
X122841792Y-69419819D02*
X122841792Y-68419819D01*
X122365601Y-69419819D02*
X122365601Y-68419819D01*
X122365601Y-68419819D02*
X122127506Y-68419819D01*
X122127506Y-68419819D02*
X121984649Y-68467438D01*
X121984649Y-68467438D02*
X121889411Y-68562676D01*
X121889411Y-68562676D02*
X121841792Y-68657914D01*
X121841792Y-68657914D02*
X121794173Y-68848390D01*
X121794173Y-68848390D02*
X121794173Y-68991247D01*
X121794173Y-68991247D02*
X121841792Y-69181723D01*
X121841792Y-69181723D02*
X121889411Y-69276961D01*
X121889411Y-69276961D02*
X121984649Y-69372200D01*
X121984649Y-69372200D02*
X122127506Y-69419819D01*
X122127506Y-69419819D02*
X122365601Y-69419819D01*
D12*
X126693985Y-75047043D02*
X127360652Y-75047043D01*
X127360652Y-76094662D02*
X127360652Y-74094662D01*
X127360652Y-74094662D02*
X126408271Y-74094662D01*
X124789223Y-74761328D02*
X124789223Y-76094662D01*
X125646366Y-74761328D02*
X125646366Y-75808947D01*
X125646366Y-75808947D02*
X125551128Y-75999424D01*
X125551128Y-75999424D02*
X125360652Y-76094662D01*
X125360652Y-76094662D02*
X125074937Y-76094662D01*
X125074937Y-76094662D02*
X124884461Y-75999424D01*
X124884461Y-75999424D02*
X124789223Y-75904185D01*
X123074937Y-75999424D02*
X123265413Y-76094662D01*
X123265413Y-76094662D02*
X123646366Y-76094662D01*
X123646366Y-76094662D02*
X123836842Y-75999424D01*
X123836842Y-75999424D02*
X123932080Y-75808947D01*
X123932080Y-75808947D02*
X123932080Y-75047043D01*
X123932080Y-75047043D02*
X123836842Y-74856566D01*
X123836842Y-74856566D02*
X123646366Y-74761328D01*
X123646366Y-74761328D02*
X123265413Y-74761328D01*
X123265413Y-74761328D02*
X123074937Y-74856566D01*
X123074937Y-74856566D02*
X122979699Y-75047043D01*
X122979699Y-75047043D02*
X122979699Y-75237519D01*
X122979699Y-75237519D02*
X123932080Y-75427995D01*
X121836842Y-76094662D02*
X122027318Y-75999424D01*
X122027318Y-75999424D02*
X122122556Y-75808947D01*
X122122556Y-75808947D02*
X122122556Y-74094662D01*
X118408270Y-75904185D02*
X118503508Y-75999424D01*
X118503508Y-75999424D02*
X118789222Y-76094662D01*
X118789222Y-76094662D02*
X118979698Y-76094662D01*
X118979698Y-76094662D02*
X119265413Y-75999424D01*
X119265413Y-75999424D02*
X119455889Y-75808947D01*
X119455889Y-75808947D02*
X119551127Y-75618471D01*
X119551127Y-75618471D02*
X119646365Y-75237519D01*
X119646365Y-75237519D02*
X119646365Y-74951804D01*
X119646365Y-74951804D02*
X119551127Y-74570852D01*
X119551127Y-74570852D02*
X119455889Y-74380376D01*
X119455889Y-74380376D02*
X119265413Y-74189900D01*
X119265413Y-74189900D02*
X118979698Y-74094662D01*
X118979698Y-74094662D02*
X118789222Y-74094662D01*
X118789222Y-74094662D02*
X118503508Y-74189900D01*
X118503508Y-74189900D02*
X118408270Y-74285138D01*
X117741603Y-74761328D02*
X117265413Y-76094662D01*
X116789222Y-74761328D02*
X117265413Y-76094662D01*
X117265413Y-76094662D02*
X117455889Y-76570852D01*
X117455889Y-76570852D02*
X117551127Y-76666090D01*
X117551127Y-76666090D02*
X117741603Y-76761328D01*
X115741603Y-76094662D02*
X115932079Y-75999424D01*
X115932079Y-75999424D02*
X116027317Y-75808947D01*
X116027317Y-75808947D02*
X116027317Y-74094662D01*
X114979698Y-76094662D02*
X114979698Y-74761328D01*
X114979698Y-74094662D02*
X115074936Y-74189900D01*
X115074936Y-74189900D02*
X114979698Y-74285138D01*
X114979698Y-74285138D02*
X114884460Y-74189900D01*
X114884460Y-74189900D02*
X114979698Y-74094662D01*
X114979698Y-74094662D02*
X114979698Y-74285138D01*
X114027317Y-74761328D02*
X114027317Y-76094662D01*
X114027317Y-74951804D02*
X113932079Y-74856566D01*
X113932079Y-74856566D02*
X113741603Y-74761328D01*
X113741603Y-74761328D02*
X113455888Y-74761328D01*
X113455888Y-74761328D02*
X113265412Y-74856566D01*
X113265412Y-74856566D02*
X113170174Y-75047043D01*
X113170174Y-75047043D02*
X113170174Y-76094662D01*
X111360650Y-76094662D02*
X111360650Y-74094662D01*
X111360650Y-75999424D02*
X111551126Y-76094662D01*
X111551126Y-76094662D02*
X111932079Y-76094662D01*
X111932079Y-76094662D02*
X112122555Y-75999424D01*
X112122555Y-75999424D02*
X112217793Y-75904185D01*
X112217793Y-75904185D02*
X112313031Y-75713709D01*
X112313031Y-75713709D02*
X112313031Y-75142281D01*
X112313031Y-75142281D02*
X112217793Y-74951804D01*
X112217793Y-74951804D02*
X112122555Y-74856566D01*
X112122555Y-74856566D02*
X111932079Y-74761328D01*
X111932079Y-74761328D02*
X111551126Y-74761328D01*
X111551126Y-74761328D02*
X111360650Y-74856566D01*
X109646364Y-75999424D02*
X109836840Y-76094662D01*
X109836840Y-76094662D02*
X110217793Y-76094662D01*
X110217793Y-76094662D02*
X110408269Y-75999424D01*
X110408269Y-75999424D02*
X110503507Y-75808947D01*
X110503507Y-75808947D02*
X110503507Y-75047043D01*
X110503507Y-75047043D02*
X110408269Y-74856566D01*
X110408269Y-74856566D02*
X110217793Y-74761328D01*
X110217793Y-74761328D02*
X109836840Y-74761328D01*
X109836840Y-74761328D02*
X109646364Y-74856566D01*
X109646364Y-74856566D02*
X109551126Y-75047043D01*
X109551126Y-75047043D02*
X109551126Y-75237519D01*
X109551126Y-75237519D02*
X110503507Y-75427995D01*
X108693983Y-76094662D02*
X108693983Y-74761328D01*
X108693983Y-75142281D02*
X108598745Y-74951804D01*
X108598745Y-74951804D02*
X108503507Y-74856566D01*
X108503507Y-74856566D02*
X108313031Y-74761328D01*
X108313031Y-74761328D02*
X108122554Y-74761328D01*
X105932078Y-74094662D02*
X105932078Y-75713709D01*
X105932078Y-75713709D02*
X105836840Y-75904185D01*
X105836840Y-75904185D02*
X105741602Y-75999424D01*
X105741602Y-75999424D02*
X105551126Y-76094662D01*
X105551126Y-76094662D02*
X105170173Y-76094662D01*
X105170173Y-76094662D02*
X104979697Y-75999424D01*
X104979697Y-75999424D02*
X104884459Y-75904185D01*
X104884459Y-75904185D02*
X104789221Y-75713709D01*
X104789221Y-75713709D02*
X104789221Y-74094662D01*
X103836840Y-74761328D02*
X103836840Y-76094662D01*
X103836840Y-74951804D02*
X103741602Y-74856566D01*
X103741602Y-74856566D02*
X103551126Y-74761328D01*
X103551126Y-74761328D02*
X103265411Y-74761328D01*
X103265411Y-74761328D02*
X103074935Y-74856566D01*
X103074935Y-74856566D02*
X102979697Y-75047043D01*
X102979697Y-75047043D02*
X102979697Y-76094662D01*
X102027316Y-76094662D02*
X102027316Y-74761328D01*
X102027316Y-74094662D02*
X102122554Y-74189900D01*
X102122554Y-74189900D02*
X102027316Y-74285138D01*
X102027316Y-74285138D02*
X101932078Y-74189900D01*
X101932078Y-74189900D02*
X102027316Y-74094662D01*
X102027316Y-74094662D02*
X102027316Y-74285138D01*
X101360649Y-74761328D02*
X100598745Y-74761328D01*
X101074935Y-74094662D02*
X101074935Y-75808947D01*
X101074935Y-75808947D02*
X100979697Y-75999424D01*
X100979697Y-75999424D02*
X100789221Y-76094662D01*
X100789221Y-76094662D02*
X100598745Y-76094662D01*
X98598744Y-74761328D02*
X98122554Y-76094662D01*
X98122554Y-76094662D02*
X97646363Y-74761328D01*
X95836839Y-76094662D02*
X96979696Y-76094662D01*
X96408268Y-76094662D02*
X96408268Y-74094662D01*
X96408268Y-74094662D02*
X96598744Y-74380376D01*
X96598744Y-74380376D02*
X96789220Y-74570852D01*
X96789220Y-74570852D02*
X96979696Y-74666090D01*
X126693985Y-78266931D02*
X126408271Y-78362169D01*
X126408271Y-78362169D02*
X126313033Y-78457407D01*
X126313033Y-78457407D02*
X126217795Y-78647883D01*
X126217795Y-78647883D02*
X126217795Y-78933597D01*
X126217795Y-78933597D02*
X126313033Y-79124073D01*
X126313033Y-79124073D02*
X126408271Y-79219312D01*
X126408271Y-79219312D02*
X126598747Y-79314550D01*
X126598747Y-79314550D02*
X127360652Y-79314550D01*
X127360652Y-79314550D02*
X127360652Y-77314550D01*
X127360652Y-77314550D02*
X126693985Y-77314550D01*
X126693985Y-77314550D02*
X126503509Y-77409788D01*
X126503509Y-77409788D02*
X126408271Y-77505026D01*
X126408271Y-77505026D02*
X126313033Y-77695502D01*
X126313033Y-77695502D02*
X126313033Y-77885978D01*
X126313033Y-77885978D02*
X126408271Y-78076454D01*
X126408271Y-78076454D02*
X126503509Y-78171692D01*
X126503509Y-78171692D02*
X126693985Y-78266931D01*
X126693985Y-78266931D02*
X127360652Y-78266931D01*
X124503509Y-79314550D02*
X124503509Y-78266931D01*
X124503509Y-78266931D02*
X124598747Y-78076454D01*
X124598747Y-78076454D02*
X124789223Y-77981216D01*
X124789223Y-77981216D02*
X125170176Y-77981216D01*
X125170176Y-77981216D02*
X125360652Y-78076454D01*
X124503509Y-79219312D02*
X124693985Y-79314550D01*
X124693985Y-79314550D02*
X125170176Y-79314550D01*
X125170176Y-79314550D02*
X125360652Y-79219312D01*
X125360652Y-79219312D02*
X125455890Y-79028835D01*
X125455890Y-79028835D02*
X125455890Y-78838359D01*
X125455890Y-78838359D02*
X125360652Y-78647883D01*
X125360652Y-78647883D02*
X125170176Y-78552645D01*
X125170176Y-78552645D02*
X124693985Y-78552645D01*
X124693985Y-78552645D02*
X124503509Y-78457407D01*
X123551128Y-79314550D02*
X123551128Y-77981216D01*
X123551128Y-78362169D02*
X123455890Y-78171692D01*
X123455890Y-78171692D02*
X123360652Y-78076454D01*
X123360652Y-78076454D02*
X123170176Y-77981216D01*
X123170176Y-77981216D02*
X122979699Y-77981216D01*
X122598747Y-77981216D02*
X121836843Y-77981216D01*
X122313033Y-77314550D02*
X122313033Y-79028835D01*
X122313033Y-79028835D02*
X122217795Y-79219312D01*
X122217795Y-79219312D02*
X122027319Y-79314550D01*
X122027319Y-79314550D02*
X121836843Y-79314550D01*
X120884462Y-79314550D02*
X121074938Y-79219312D01*
X121074938Y-79219312D02*
X121170176Y-79028835D01*
X121170176Y-79028835D02*
X121170176Y-77314550D01*
X121455890Y-78362169D02*
X120884462Y-77981216D01*
X119836843Y-79314550D02*
X120027319Y-79219312D01*
X120027319Y-79219312D02*
X120122557Y-79124073D01*
X120122557Y-79124073D02*
X120217795Y-78933597D01*
X120217795Y-78933597D02*
X120217795Y-78362169D01*
X120217795Y-78362169D02*
X120122557Y-78171692D01*
X120122557Y-78171692D02*
X120027319Y-78076454D01*
X120027319Y-78076454D02*
X119836843Y-77981216D01*
X119836843Y-77981216D02*
X119551128Y-77981216D01*
X119551128Y-77981216D02*
X119360652Y-78076454D01*
X119360652Y-78076454D02*
X119265414Y-78171692D01*
X119265414Y-78171692D02*
X119170176Y-78362169D01*
X119170176Y-78362169D02*
X119170176Y-78933597D01*
X119170176Y-78933597D02*
X119265414Y-79124073D01*
X119265414Y-79124073D02*
X119360652Y-79219312D01*
X119360652Y-79219312D02*
X119551128Y-79314550D01*
X119551128Y-79314550D02*
X119836843Y-79314550D01*
X118313033Y-79314550D02*
X118313033Y-77981216D01*
X118313033Y-78171692D02*
X118217795Y-78076454D01*
X118217795Y-78076454D02*
X118027319Y-77981216D01*
X118027319Y-77981216D02*
X117741604Y-77981216D01*
X117741604Y-77981216D02*
X117551128Y-78076454D01*
X117551128Y-78076454D02*
X117455890Y-78266931D01*
X117455890Y-78266931D02*
X117455890Y-79314550D01*
X117455890Y-78266931D02*
X117360652Y-78076454D01*
X117360652Y-78076454D02*
X117170176Y-77981216D01*
X117170176Y-77981216D02*
X116884462Y-77981216D01*
X116884462Y-77981216D02*
X116693985Y-78076454D01*
X116693985Y-78076454D02*
X116598747Y-78266931D01*
X116598747Y-78266931D02*
X116598747Y-79314550D01*
X115646366Y-79314550D02*
X115646366Y-77981216D01*
X115646366Y-77314550D02*
X115741604Y-77409788D01*
X115741604Y-77409788D02*
X115646366Y-77505026D01*
X115646366Y-77505026D02*
X115551128Y-77409788D01*
X115551128Y-77409788D02*
X115646366Y-77314550D01*
X115646366Y-77314550D02*
X115646366Y-77505026D01*
X113932080Y-79219312D02*
X114122556Y-79314550D01*
X114122556Y-79314550D02*
X114503509Y-79314550D01*
X114503509Y-79314550D02*
X114693985Y-79219312D01*
X114693985Y-79219312D02*
X114789223Y-79028835D01*
X114789223Y-79028835D02*
X114789223Y-78266931D01*
X114789223Y-78266931D02*
X114693985Y-78076454D01*
X114693985Y-78076454D02*
X114503509Y-77981216D01*
X114503509Y-77981216D02*
X114122556Y-77981216D01*
X114122556Y-77981216D02*
X113932080Y-78076454D01*
X113932080Y-78076454D02*
X113836842Y-78266931D01*
X113836842Y-78266931D02*
X113836842Y-78457407D01*
X113836842Y-78457407D02*
X114789223Y-78647883D01*
X112979699Y-77981216D02*
X112979699Y-79695502D01*
X112979699Y-79695502D02*
X113074937Y-79885978D01*
X113074937Y-79885978D02*
X113265413Y-79981216D01*
X113265413Y-79981216D02*
X113360651Y-79981216D01*
X112979699Y-77314550D02*
X113074937Y-77409788D01*
X113074937Y-77409788D02*
X112979699Y-77505026D01*
X112979699Y-77505026D02*
X112884461Y-77409788D01*
X112884461Y-77409788D02*
X112979699Y-77314550D01*
X112979699Y-77314550D02*
X112979699Y-77505026D01*
X110503508Y-79314550D02*
X110503508Y-77314550D01*
X110503508Y-77314550D02*
X109836841Y-78743121D01*
X109836841Y-78743121D02*
X109170175Y-77314550D01*
X109170175Y-77314550D02*
X109170175Y-79314550D01*
X108217794Y-79314550D02*
X108217794Y-77981216D01*
X108217794Y-77314550D02*
X108313032Y-77409788D01*
X108313032Y-77409788D02*
X108217794Y-77505026D01*
X108217794Y-77505026D02*
X108122556Y-77409788D01*
X108122556Y-77409788D02*
X108217794Y-77314550D01*
X108217794Y-77314550D02*
X108217794Y-77505026D01*
X106503508Y-79219312D02*
X106693984Y-79314550D01*
X106693984Y-79314550D02*
X107074937Y-79314550D01*
X107074937Y-79314550D02*
X107265413Y-79219312D01*
X107265413Y-79219312D02*
X107360651Y-79028835D01*
X107360651Y-79028835D02*
X107360651Y-78266931D01*
X107360651Y-78266931D02*
X107265413Y-78076454D01*
X107265413Y-78076454D02*
X107074937Y-77981216D01*
X107074937Y-77981216D02*
X106693984Y-77981216D01*
X106693984Y-77981216D02*
X106503508Y-78076454D01*
X106503508Y-78076454D02*
X106408270Y-78266931D01*
X106408270Y-78266931D02*
X106408270Y-78457407D01*
X106408270Y-78457407D02*
X107360651Y-78647883D01*
X105551127Y-79314550D02*
X105551127Y-77981216D01*
X105551127Y-78362169D02*
X105455889Y-78171692D01*
X105455889Y-78171692D02*
X105360651Y-78076454D01*
X105360651Y-78076454D02*
X105170175Y-77981216D01*
X105170175Y-77981216D02*
X104979698Y-77981216D01*
X104503508Y-77981216D02*
X103455889Y-77981216D01*
X103455889Y-77981216D02*
X104503508Y-79314550D01*
X104503508Y-79314550D02*
X103455889Y-79314550D01*
X102884460Y-77981216D02*
X102503508Y-79314550D01*
X102503508Y-79314550D02*
X102122555Y-78362169D01*
X102122555Y-78362169D02*
X101741603Y-79314550D01*
X101741603Y-79314550D02*
X101360651Y-77981216D01*
X99741603Y-79314550D02*
X99741603Y-78266931D01*
X99741603Y-78266931D02*
X99836841Y-78076454D01*
X99836841Y-78076454D02*
X100027317Y-77981216D01*
X100027317Y-77981216D02*
X100408270Y-77981216D01*
X100408270Y-77981216D02*
X100598746Y-78076454D01*
X99741603Y-79219312D02*
X99932079Y-79314550D01*
X99932079Y-79314550D02*
X100408270Y-79314550D01*
X100408270Y-79314550D02*
X100598746Y-79219312D01*
X100598746Y-79219312D02*
X100693984Y-79028835D01*
X100693984Y-79028835D02*
X100693984Y-78838359D01*
X100693984Y-78838359D02*
X100598746Y-78647883D01*
X100598746Y-78647883D02*
X100408270Y-78552645D01*
X100408270Y-78552645D02*
X99932079Y-78552645D01*
X99932079Y-78552645D02*
X99741603Y-78457407D01*
X126979700Y-80534438D02*
X126789223Y-80534438D01*
X126789223Y-80534438D02*
X126598747Y-80629676D01*
X126598747Y-80629676D02*
X126503509Y-80724914D01*
X126503509Y-80724914D02*
X126408271Y-80915390D01*
X126408271Y-80915390D02*
X126313033Y-81296342D01*
X126313033Y-81296342D02*
X126313033Y-81772533D01*
X126313033Y-81772533D02*
X126408271Y-82153485D01*
X126408271Y-82153485D02*
X126503509Y-82343961D01*
X126503509Y-82343961D02*
X126598747Y-82439200D01*
X126598747Y-82439200D02*
X126789223Y-82534438D01*
X126789223Y-82534438D02*
X126979700Y-82534438D01*
X126979700Y-82534438D02*
X127170176Y-82439200D01*
X127170176Y-82439200D02*
X127265414Y-82343961D01*
X127265414Y-82343961D02*
X127360652Y-82153485D01*
X127360652Y-82153485D02*
X127455890Y-81772533D01*
X127455890Y-81772533D02*
X127455890Y-81296342D01*
X127455890Y-81296342D02*
X127360652Y-80915390D01*
X127360652Y-80915390D02*
X127265414Y-80724914D01*
X127265414Y-80724914D02*
X127170176Y-80629676D01*
X127170176Y-80629676D02*
X126979700Y-80534438D01*
X124503509Y-80534438D02*
X125455890Y-80534438D01*
X125455890Y-80534438D02*
X125551128Y-81486819D01*
X125551128Y-81486819D02*
X125455890Y-81391580D01*
X125455890Y-81391580D02*
X125265414Y-81296342D01*
X125265414Y-81296342D02*
X124789223Y-81296342D01*
X124789223Y-81296342D02*
X124598747Y-81391580D01*
X124598747Y-81391580D02*
X124503509Y-81486819D01*
X124503509Y-81486819D02*
X124408271Y-81677295D01*
X124408271Y-81677295D02*
X124408271Y-82153485D01*
X124408271Y-82153485D02*
X124503509Y-82343961D01*
X124503509Y-82343961D02*
X124598747Y-82439200D01*
X124598747Y-82439200D02*
X124789223Y-82534438D01*
X124789223Y-82534438D02*
X125265414Y-82534438D01*
X125265414Y-82534438D02*
X125455890Y-82439200D01*
X125455890Y-82439200D02*
X125551128Y-82343961D01*
X123551128Y-82343961D02*
X123455890Y-82439200D01*
X123455890Y-82439200D02*
X123551128Y-82534438D01*
X123551128Y-82534438D02*
X123646366Y-82439200D01*
X123646366Y-82439200D02*
X123551128Y-82343961D01*
X123551128Y-82343961D02*
X123551128Y-82534438D01*
X122217795Y-80534438D02*
X122027318Y-80534438D01*
X122027318Y-80534438D02*
X121836842Y-80629676D01*
X121836842Y-80629676D02*
X121741604Y-80724914D01*
X121741604Y-80724914D02*
X121646366Y-80915390D01*
X121646366Y-80915390D02*
X121551128Y-81296342D01*
X121551128Y-81296342D02*
X121551128Y-81772533D01*
X121551128Y-81772533D02*
X121646366Y-82153485D01*
X121646366Y-82153485D02*
X121741604Y-82343961D01*
X121741604Y-82343961D02*
X121836842Y-82439200D01*
X121836842Y-82439200D02*
X122027318Y-82534438D01*
X122027318Y-82534438D02*
X122217795Y-82534438D01*
X122217795Y-82534438D02*
X122408271Y-82439200D01*
X122408271Y-82439200D02*
X122503509Y-82343961D01*
X122503509Y-82343961D02*
X122598747Y-82153485D01*
X122598747Y-82153485D02*
X122693985Y-81772533D01*
X122693985Y-81772533D02*
X122693985Y-81296342D01*
X122693985Y-81296342D02*
X122598747Y-80915390D01*
X122598747Y-80915390D02*
X122503509Y-80724914D01*
X122503509Y-80724914D02*
X122408271Y-80629676D01*
X122408271Y-80629676D02*
X122217795Y-80534438D01*
X120884461Y-80534438D02*
X119646366Y-80534438D01*
X119646366Y-80534438D02*
X120313033Y-81296342D01*
X120313033Y-81296342D02*
X120027318Y-81296342D01*
X120027318Y-81296342D02*
X119836842Y-81391580D01*
X119836842Y-81391580D02*
X119741604Y-81486819D01*
X119741604Y-81486819D02*
X119646366Y-81677295D01*
X119646366Y-81677295D02*
X119646366Y-82153485D01*
X119646366Y-82153485D02*
X119741604Y-82343961D01*
X119741604Y-82343961D02*
X119836842Y-82439200D01*
X119836842Y-82439200D02*
X120027318Y-82534438D01*
X120027318Y-82534438D02*
X120598747Y-82534438D01*
X120598747Y-82534438D02*
X120789223Y-82439200D01*
X120789223Y-82439200D02*
X120884461Y-82343961D01*
X118789223Y-82343961D02*
X118693985Y-82439200D01*
X118693985Y-82439200D02*
X118789223Y-82534438D01*
X118789223Y-82534438D02*
X118884461Y-82439200D01*
X118884461Y-82439200D02*
X118789223Y-82343961D01*
X118789223Y-82343961D02*
X118789223Y-82534438D01*
X117932080Y-80724914D02*
X117836842Y-80629676D01*
X117836842Y-80629676D02*
X117646366Y-80534438D01*
X117646366Y-80534438D02*
X117170175Y-80534438D01*
X117170175Y-80534438D02*
X116979699Y-80629676D01*
X116979699Y-80629676D02*
X116884461Y-80724914D01*
X116884461Y-80724914D02*
X116789223Y-80915390D01*
X116789223Y-80915390D02*
X116789223Y-81105866D01*
X116789223Y-81105866D02*
X116884461Y-81391580D01*
X116884461Y-81391580D02*
X118027318Y-82534438D01*
X118027318Y-82534438D02*
X116789223Y-82534438D01*
X115551128Y-80534438D02*
X115360651Y-80534438D01*
X115360651Y-80534438D02*
X115170175Y-80629676D01*
X115170175Y-80629676D02*
X115074937Y-80724914D01*
X115074937Y-80724914D02*
X114979699Y-80915390D01*
X114979699Y-80915390D02*
X114884461Y-81296342D01*
X114884461Y-81296342D02*
X114884461Y-81772533D01*
X114884461Y-81772533D02*
X114979699Y-82153485D01*
X114979699Y-82153485D02*
X115074937Y-82343961D01*
X115074937Y-82343961D02*
X115170175Y-82439200D01*
X115170175Y-82439200D02*
X115360651Y-82534438D01*
X115360651Y-82534438D02*
X115551128Y-82534438D01*
X115551128Y-82534438D02*
X115741604Y-82439200D01*
X115741604Y-82439200D02*
X115836842Y-82343961D01*
X115836842Y-82343961D02*
X115932080Y-82153485D01*
X115932080Y-82153485D02*
X116027318Y-81772533D01*
X116027318Y-81772533D02*
X116027318Y-81296342D01*
X116027318Y-81296342D02*
X115932080Y-80915390D01*
X115932080Y-80915390D02*
X115836842Y-80724914D01*
X115836842Y-80724914D02*
X115741604Y-80629676D01*
X115741604Y-80629676D02*
X115551128Y-80534438D01*
X114122556Y-80724914D02*
X114027318Y-80629676D01*
X114027318Y-80629676D02*
X113836842Y-80534438D01*
X113836842Y-80534438D02*
X113360651Y-80534438D01*
X113360651Y-80534438D02*
X113170175Y-80629676D01*
X113170175Y-80629676D02*
X113074937Y-80724914D01*
X113074937Y-80724914D02*
X112979699Y-80915390D01*
X112979699Y-80915390D02*
X112979699Y-81105866D01*
X112979699Y-81105866D02*
X113074937Y-81391580D01*
X113074937Y-81391580D02*
X114217794Y-82534438D01*
X114217794Y-82534438D02*
X112979699Y-82534438D01*
X111265413Y-81201104D02*
X111265413Y-82534438D01*
X111741604Y-80439200D02*
X112217794Y-81867771D01*
X112217794Y-81867771D02*
X110979699Y-81867771D01*
D13*
X65279668Y-136321119D02*
X65279668Y-135321119D01*
X65279668Y-135321119D02*
X64898716Y-135321119D01*
X64898716Y-135321119D02*
X64803478Y-135368738D01*
X64803478Y-135368738D02*
X64755859Y-135416357D01*
X64755859Y-135416357D02*
X64708240Y-135511595D01*
X64708240Y-135511595D02*
X64708240Y-135654452D01*
X64708240Y-135654452D02*
X64755859Y-135749690D01*
X64755859Y-135749690D02*
X64803478Y-135797309D01*
X64803478Y-135797309D02*
X64898716Y-135844928D01*
X64898716Y-135844928D02*
X65279668Y-135844928D01*
X64279668Y-135321119D02*
X64279668Y-136130642D01*
X64279668Y-136130642D02*
X64232049Y-136225880D01*
X64232049Y-136225880D02*
X64184430Y-136273500D01*
X64184430Y-136273500D02*
X64089192Y-136321119D01*
X64089192Y-136321119D02*
X63898716Y-136321119D01*
X63898716Y-136321119D02*
X63803478Y-136273500D01*
X63803478Y-136273500D02*
X63755859Y-136225880D01*
X63755859Y-136225880D02*
X63708240Y-136130642D01*
X63708240Y-136130642D02*
X63708240Y-135321119D01*
X62660621Y-136321119D02*
X62993954Y-135844928D01*
X63232049Y-136321119D02*
X63232049Y-135321119D01*
X63232049Y-135321119D02*
X62851097Y-135321119D01*
X62851097Y-135321119D02*
X62755859Y-135368738D01*
X62755859Y-135368738D02*
X62708240Y-135416357D01*
X62708240Y-135416357D02*
X62660621Y-135511595D01*
X62660621Y-135511595D02*
X62660621Y-135654452D01*
X62660621Y-135654452D02*
X62708240Y-135749690D01*
X62708240Y-135749690D02*
X62755859Y-135797309D01*
X62755859Y-135797309D02*
X62851097Y-135844928D01*
X62851097Y-135844928D02*
X63232049Y-135844928D01*
X61708240Y-135368738D02*
X61803478Y-135321119D01*
X61803478Y-135321119D02*
X61946335Y-135321119D01*
X61946335Y-135321119D02*
X62089192Y-135368738D01*
X62089192Y-135368738D02*
X62184430Y-135463976D01*
X62184430Y-135463976D02*
X62232049Y-135559214D01*
X62232049Y-135559214D02*
X62279668Y-135749690D01*
X62279668Y-135749690D02*
X62279668Y-135892547D01*
X62279668Y-135892547D02*
X62232049Y-136083023D01*
X62232049Y-136083023D02*
X62184430Y-136178261D01*
X62184430Y-136178261D02*
X62089192Y-136273500D01*
X62089192Y-136273500D02*
X61946335Y-136321119D01*
X61946335Y-136321119D02*
X61851097Y-136321119D01*
X61851097Y-136321119D02*
X61708240Y-136273500D01*
X61708240Y-136273500D02*
X61660621Y-136225880D01*
X61660621Y-136225880D02*
X61660621Y-135892547D01*
X61660621Y-135892547D02*
X61851097Y-135892547D01*
X61232049Y-135797309D02*
X60898716Y-135797309D01*
X60755859Y-136321119D02*
X61232049Y-136321119D01*
X61232049Y-136321119D02*
X61232049Y-135321119D01*
X61232049Y-135321119D02*
X60755859Y-135321119D01*
X60565383Y-136416357D02*
X59803478Y-136416357D01*
X59708239Y-135321119D02*
X59374906Y-136321119D01*
X59374906Y-136321119D02*
X59041573Y-135321119D01*
X58755858Y-136035404D02*
X58279668Y-136035404D01*
X58851096Y-136321119D02*
X58517763Y-135321119D01*
X58517763Y-135321119D02*
X58184430Y-136321119D01*
X57374906Y-136321119D02*
X57851096Y-136321119D01*
X57851096Y-136321119D02*
X57851096Y-135321119D01*
X57184429Y-135321119D02*
X56851096Y-136321119D01*
X56851096Y-136321119D02*
X56517763Y-135321119D01*
X56184429Y-135797309D02*
X55851096Y-135797309D01*
X55708239Y-136321119D02*
X56184429Y-136321119D01*
X56184429Y-136321119D02*
X56184429Y-135321119D01*
X56184429Y-135321119D02*
X55708239Y-135321119D01*
D11*
X64506077Y-119619819D02*
X64172744Y-120619819D01*
X64172744Y-120619819D02*
X63839411Y-119619819D01*
X63553696Y-120334104D02*
X63077506Y-120334104D01*
X63648934Y-120619819D02*
X63315601Y-119619819D01*
X63315601Y-119619819D02*
X62982268Y-120619819D01*
X62172744Y-120619819D02*
X62648934Y-120619819D01*
X62648934Y-120619819D02*
X62648934Y-119619819D01*
X61982267Y-119619819D02*
X61648934Y-120619819D01*
X61648934Y-120619819D02*
X61315601Y-119619819D01*
X60982267Y-120096009D02*
X60648934Y-120096009D01*
X60506077Y-120619819D02*
X60982267Y-120619819D01*
X60982267Y-120619819D02*
X60982267Y-119619819D01*
X60982267Y-119619819D02*
X60506077Y-119619819D01*
X137613220Y-112438866D02*
X136851316Y-112438866D01*
X137232268Y-112819819D02*
X137232268Y-112057914D01*
X135898935Y-111819819D02*
X136375125Y-111819819D01*
X136375125Y-111819819D02*
X136422744Y-112296009D01*
X136422744Y-112296009D02*
X136375125Y-112248390D01*
X136375125Y-112248390D02*
X136279887Y-112200771D01*
X136279887Y-112200771D02*
X136041792Y-112200771D01*
X136041792Y-112200771D02*
X135946554Y-112248390D01*
X135946554Y-112248390D02*
X135898935Y-112296009D01*
X135898935Y-112296009D02*
X135851316Y-112391247D01*
X135851316Y-112391247D02*
X135851316Y-112629342D01*
X135851316Y-112629342D02*
X135898935Y-112724580D01*
X135898935Y-112724580D02*
X135946554Y-112772200D01*
X135946554Y-112772200D02*
X136041792Y-112819819D01*
X136041792Y-112819819D02*
X136279887Y-112819819D01*
X136279887Y-112819819D02*
X136375125Y-112772200D01*
X136375125Y-112772200D02*
X136422744Y-112724580D01*
X135565601Y-111819819D02*
X135232268Y-112819819D01*
X135232268Y-112819819D02*
X134898935Y-111819819D01*
X122513220Y-73438866D02*
X121751316Y-73438866D01*
X122132268Y-73819819D02*
X122132268Y-73057914D01*
X120751316Y-73819819D02*
X121322744Y-73819819D01*
X121037030Y-73819819D02*
X121037030Y-72819819D01*
X121037030Y-72819819D02*
X121132268Y-72962676D01*
X121132268Y-72962676D02*
X121227506Y-73057914D01*
X121227506Y-73057914D02*
X121322744Y-73105533D01*
X120370363Y-72915057D02*
X120322744Y-72867438D01*
X120322744Y-72867438D02*
X120227506Y-72819819D01*
X120227506Y-72819819D02*
X119989411Y-72819819D01*
X119989411Y-72819819D02*
X119894173Y-72867438D01*
X119894173Y-72867438D02*
X119846554Y-72915057D01*
X119846554Y-72915057D02*
X119798935Y-73010295D01*
X119798935Y-73010295D02*
X119798935Y-73105533D01*
X119798935Y-73105533D02*
X119846554Y-73248390D01*
X119846554Y-73248390D02*
X120417982Y-73819819D01*
X120417982Y-73819819D02*
X119798935Y-73819819D01*
X119513220Y-72819819D02*
X119179887Y-73819819D01*
X119179887Y-73819819D02*
X118846554Y-72819819D01*
X132241792Y-96024580D02*
X132289411Y-96072200D01*
X132289411Y-96072200D02*
X132432268Y-96119819D01*
X132432268Y-96119819D02*
X132527506Y-96119819D01*
X132527506Y-96119819D02*
X132670363Y-96072200D01*
X132670363Y-96072200D02*
X132765601Y-95976961D01*
X132765601Y-95976961D02*
X132813220Y-95881723D01*
X132813220Y-95881723D02*
X132860839Y-95691247D01*
X132860839Y-95691247D02*
X132860839Y-95548390D01*
X132860839Y-95548390D02*
X132813220Y-95357914D01*
X132813220Y-95357914D02*
X132765601Y-95262676D01*
X132765601Y-95262676D02*
X132670363Y-95167438D01*
X132670363Y-95167438D02*
X132527506Y-95119819D01*
X132527506Y-95119819D02*
X132432268Y-95119819D01*
X132432268Y-95119819D02*
X132289411Y-95167438D01*
X132289411Y-95167438D02*
X132241792Y-95215057D01*
X131860839Y-95834104D02*
X131384649Y-95834104D01*
X131956077Y-96119819D02*
X131622744Y-95119819D01*
X131622744Y-95119819D02*
X131289411Y-96119819D01*
X130956077Y-96119819D02*
X130956077Y-95119819D01*
X130956077Y-95119819D02*
X130384649Y-96119819D01*
X130384649Y-96119819D02*
X130384649Y-95119819D01*
X129908458Y-96119819D02*
X129908458Y-95119819D01*
X129908458Y-95596009D02*
X129337030Y-95596009D01*
X129337030Y-96119819D02*
X129337030Y-95119819D01*
D13*
X93420331Y-134828880D02*
X93420331Y-135828880D01*
X93420331Y-135828880D02*
X93801283Y-135828880D01*
X93801283Y-135828880D02*
X93896521Y-135781261D01*
X93896521Y-135781261D02*
X93944140Y-135733642D01*
X93944140Y-135733642D02*
X93991759Y-135638404D01*
X93991759Y-135638404D02*
X93991759Y-135495547D01*
X93991759Y-135495547D02*
X93944140Y-135400309D01*
X93944140Y-135400309D02*
X93896521Y-135352690D01*
X93896521Y-135352690D02*
X93801283Y-135305071D01*
X93801283Y-135305071D02*
X93420331Y-135305071D01*
X94991759Y-134828880D02*
X94658426Y-135305071D01*
X94420331Y-134828880D02*
X94420331Y-135828880D01*
X94420331Y-135828880D02*
X94801283Y-135828880D01*
X94801283Y-135828880D02*
X94896521Y-135781261D01*
X94896521Y-135781261D02*
X94944140Y-135733642D01*
X94944140Y-135733642D02*
X94991759Y-135638404D01*
X94991759Y-135638404D02*
X94991759Y-135495547D01*
X94991759Y-135495547D02*
X94944140Y-135400309D01*
X94944140Y-135400309D02*
X94896521Y-135352690D01*
X94896521Y-135352690D02*
X94801283Y-135305071D01*
X94801283Y-135305071D02*
X94420331Y-135305071D01*
X95420331Y-135352690D02*
X95753664Y-135352690D01*
X95896521Y-134828880D02*
X95420331Y-134828880D01*
X95420331Y-134828880D02*
X95420331Y-135828880D01*
X95420331Y-135828880D02*
X95896521Y-135828880D01*
X96277474Y-134876500D02*
X96420331Y-134828880D01*
X96420331Y-134828880D02*
X96658426Y-134828880D01*
X96658426Y-134828880D02*
X96753664Y-134876500D01*
X96753664Y-134876500D02*
X96801283Y-134924119D01*
X96801283Y-134924119D02*
X96848902Y-135019357D01*
X96848902Y-135019357D02*
X96848902Y-135114595D01*
X96848902Y-135114595D02*
X96801283Y-135209833D01*
X96801283Y-135209833D02*
X96753664Y-135257452D01*
X96753664Y-135257452D02*
X96658426Y-135305071D01*
X96658426Y-135305071D02*
X96467950Y-135352690D01*
X96467950Y-135352690D02*
X96372712Y-135400309D01*
X96372712Y-135400309D02*
X96325093Y-135447928D01*
X96325093Y-135447928D02*
X96277474Y-135543166D01*
X96277474Y-135543166D02*
X96277474Y-135638404D01*
X96277474Y-135638404D02*
X96325093Y-135733642D01*
X96325093Y-135733642D02*
X96372712Y-135781261D01*
X96372712Y-135781261D02*
X96467950Y-135828880D01*
X96467950Y-135828880D02*
X96706045Y-135828880D01*
X96706045Y-135828880D02*
X96848902Y-135781261D01*
X97229855Y-134876500D02*
X97372712Y-134828880D01*
X97372712Y-134828880D02*
X97610807Y-134828880D01*
X97610807Y-134828880D02*
X97706045Y-134876500D01*
X97706045Y-134876500D02*
X97753664Y-134924119D01*
X97753664Y-134924119D02*
X97801283Y-135019357D01*
X97801283Y-135019357D02*
X97801283Y-135114595D01*
X97801283Y-135114595D02*
X97753664Y-135209833D01*
X97753664Y-135209833D02*
X97706045Y-135257452D01*
X97706045Y-135257452D02*
X97610807Y-135305071D01*
X97610807Y-135305071D02*
X97420331Y-135352690D01*
X97420331Y-135352690D02*
X97325093Y-135400309D01*
X97325093Y-135400309D02*
X97277474Y-135447928D01*
X97277474Y-135447928D02*
X97229855Y-135543166D01*
X97229855Y-135543166D02*
X97229855Y-135638404D01*
X97229855Y-135638404D02*
X97277474Y-135733642D01*
X97277474Y-135733642D02*
X97325093Y-135781261D01*
X97325093Y-135781261D02*
X97420331Y-135828880D01*
X97420331Y-135828880D02*
X97658426Y-135828880D01*
X97658426Y-135828880D02*
X97801283Y-135781261D01*
X98229855Y-135828880D02*
X98229855Y-135019357D01*
X98229855Y-135019357D02*
X98277474Y-134924119D01*
X98277474Y-134924119D02*
X98325093Y-134876500D01*
X98325093Y-134876500D02*
X98420331Y-134828880D01*
X98420331Y-134828880D02*
X98610807Y-134828880D01*
X98610807Y-134828880D02*
X98706045Y-134876500D01*
X98706045Y-134876500D02*
X98753664Y-134924119D01*
X98753664Y-134924119D02*
X98801283Y-135019357D01*
X98801283Y-135019357D02*
X98801283Y-135828880D01*
X99848902Y-134828880D02*
X99515569Y-135305071D01*
X99277474Y-134828880D02*
X99277474Y-135828880D01*
X99277474Y-135828880D02*
X99658426Y-135828880D01*
X99658426Y-135828880D02*
X99753664Y-135781261D01*
X99753664Y-135781261D02*
X99801283Y-135733642D01*
X99801283Y-135733642D02*
X99848902Y-135638404D01*
X99848902Y-135638404D02*
X99848902Y-135495547D01*
X99848902Y-135495547D02*
X99801283Y-135400309D01*
X99801283Y-135400309D02*
X99753664Y-135352690D01*
X99753664Y-135352690D02*
X99658426Y-135305071D01*
X99658426Y-135305071D02*
X99277474Y-135305071D01*
X100277474Y-135352690D02*
X100610807Y-135352690D01*
X100753664Y-134828880D02*
X100277474Y-134828880D01*
X100277474Y-134828880D02*
X100277474Y-135828880D01*
X100277474Y-135828880D02*
X100753664Y-135828880D01*
X100944141Y-134733642D02*
X101706045Y-134733642D01*
X101896522Y-134876500D02*
X102039379Y-134828880D01*
X102039379Y-134828880D02*
X102277474Y-134828880D01*
X102277474Y-134828880D02*
X102372712Y-134876500D01*
X102372712Y-134876500D02*
X102420331Y-134924119D01*
X102420331Y-134924119D02*
X102467950Y-135019357D01*
X102467950Y-135019357D02*
X102467950Y-135114595D01*
X102467950Y-135114595D02*
X102420331Y-135209833D01*
X102420331Y-135209833D02*
X102372712Y-135257452D01*
X102372712Y-135257452D02*
X102277474Y-135305071D01*
X102277474Y-135305071D02*
X102086998Y-135352690D01*
X102086998Y-135352690D02*
X101991760Y-135400309D01*
X101991760Y-135400309D02*
X101944141Y-135447928D01*
X101944141Y-135447928D02*
X101896522Y-135543166D01*
X101896522Y-135543166D02*
X101896522Y-135638404D01*
X101896522Y-135638404D02*
X101944141Y-135733642D01*
X101944141Y-135733642D02*
X101991760Y-135781261D01*
X101991760Y-135781261D02*
X102086998Y-135828880D01*
X102086998Y-135828880D02*
X102325093Y-135828880D01*
X102325093Y-135828880D02*
X102467950Y-135781261D01*
X102896522Y-135352690D02*
X103229855Y-135352690D01*
X103372712Y-134828880D02*
X102896522Y-134828880D01*
X102896522Y-134828880D02*
X102896522Y-135828880D01*
X102896522Y-135828880D02*
X103372712Y-135828880D01*
X103801284Y-134828880D02*
X103801284Y-135828880D01*
X103801284Y-135828880D02*
X104372712Y-134828880D01*
X104372712Y-134828880D02*
X104372712Y-135828880D01*
X104801284Y-134876500D02*
X104944141Y-134828880D01*
X104944141Y-134828880D02*
X105182236Y-134828880D01*
X105182236Y-134828880D02*
X105277474Y-134876500D01*
X105277474Y-134876500D02*
X105325093Y-134924119D01*
X105325093Y-134924119D02*
X105372712Y-135019357D01*
X105372712Y-135019357D02*
X105372712Y-135114595D01*
X105372712Y-135114595D02*
X105325093Y-135209833D01*
X105325093Y-135209833D02*
X105277474Y-135257452D01*
X105277474Y-135257452D02*
X105182236Y-135305071D01*
X105182236Y-135305071D02*
X104991760Y-135352690D01*
X104991760Y-135352690D02*
X104896522Y-135400309D01*
X104896522Y-135400309D02*
X104848903Y-135447928D01*
X104848903Y-135447928D02*
X104801284Y-135543166D01*
X104801284Y-135543166D02*
X104801284Y-135638404D01*
X104801284Y-135638404D02*
X104848903Y-135733642D01*
X104848903Y-135733642D02*
X104896522Y-135781261D01*
X104896522Y-135781261D02*
X104991760Y-135828880D01*
X104991760Y-135828880D02*
X105229855Y-135828880D01*
X105229855Y-135828880D02*
X105372712Y-135781261D01*
X105991760Y-135828880D02*
X106182236Y-135828880D01*
X106182236Y-135828880D02*
X106277474Y-135781261D01*
X106277474Y-135781261D02*
X106372712Y-135686023D01*
X106372712Y-135686023D02*
X106420331Y-135495547D01*
X106420331Y-135495547D02*
X106420331Y-135162214D01*
X106420331Y-135162214D02*
X106372712Y-134971738D01*
X106372712Y-134971738D02*
X106277474Y-134876500D01*
X106277474Y-134876500D02*
X106182236Y-134828880D01*
X106182236Y-134828880D02*
X105991760Y-134828880D01*
X105991760Y-134828880D02*
X105896522Y-134876500D01*
X105896522Y-134876500D02*
X105801284Y-134971738D01*
X105801284Y-134971738D02*
X105753665Y-135162214D01*
X105753665Y-135162214D02*
X105753665Y-135495547D01*
X105753665Y-135495547D02*
X105801284Y-135686023D01*
X105801284Y-135686023D02*
X105896522Y-135781261D01*
X105896522Y-135781261D02*
X105991760Y-135828880D01*
X107420331Y-134828880D02*
X107086998Y-135305071D01*
X106848903Y-134828880D02*
X106848903Y-135828880D01*
X106848903Y-135828880D02*
X107229855Y-135828880D01*
X107229855Y-135828880D02*
X107325093Y-135781261D01*
X107325093Y-135781261D02*
X107372712Y-135733642D01*
X107372712Y-135733642D02*
X107420331Y-135638404D01*
X107420331Y-135638404D02*
X107420331Y-135495547D01*
X107420331Y-135495547D02*
X107372712Y-135400309D01*
X107372712Y-135400309D02*
X107325093Y-135352690D01*
X107325093Y-135352690D02*
X107229855Y-135305071D01*
X107229855Y-135305071D02*
X106848903Y-135305071D01*
X107610808Y-134733642D02*
X108372712Y-134733642D01*
X108467951Y-135828880D02*
X108801284Y-134828880D01*
X108801284Y-134828880D02*
X109134617Y-135828880D01*
X110706046Y-135828880D02*
X110229856Y-135828880D01*
X110229856Y-135828880D02*
X110182237Y-135352690D01*
X110182237Y-135352690D02*
X110229856Y-135400309D01*
X110229856Y-135400309D02*
X110325094Y-135447928D01*
X110325094Y-135447928D02*
X110563189Y-135447928D01*
X110563189Y-135447928D02*
X110658427Y-135400309D01*
X110658427Y-135400309D02*
X110706046Y-135352690D01*
X110706046Y-135352690D02*
X110753665Y-135257452D01*
X110753665Y-135257452D02*
X110753665Y-135019357D01*
X110753665Y-135019357D02*
X110706046Y-134924119D01*
X110706046Y-134924119D02*
X110658427Y-134876500D01*
X110658427Y-134876500D02*
X110563189Y-134828880D01*
X110563189Y-134828880D02*
X110325094Y-134828880D01*
X110325094Y-134828880D02*
X110229856Y-134876500D01*
X110229856Y-134876500D02*
X110182237Y-134924119D01*
X111039380Y-135828880D02*
X111372713Y-134828880D01*
X111372713Y-134828880D02*
X111706046Y-135828880D01*
D11*
X72563220Y-84138866D02*
X71801316Y-84138866D01*
X71325125Y-84519819D02*
X71325125Y-83519819D01*
X71325125Y-83519819D02*
X70991792Y-84234104D01*
X70991792Y-84234104D02*
X70658459Y-83519819D01*
X70658459Y-83519819D02*
X70658459Y-84519819D01*
X69991792Y-83519819D02*
X69801316Y-83519819D01*
X69801316Y-83519819D02*
X69706078Y-83567438D01*
X69706078Y-83567438D02*
X69610840Y-83662676D01*
X69610840Y-83662676D02*
X69563221Y-83853152D01*
X69563221Y-83853152D02*
X69563221Y-84186485D01*
X69563221Y-84186485D02*
X69610840Y-84376961D01*
X69610840Y-84376961D02*
X69706078Y-84472200D01*
X69706078Y-84472200D02*
X69801316Y-84519819D01*
X69801316Y-84519819D02*
X69991792Y-84519819D01*
X69991792Y-84519819D02*
X70087030Y-84472200D01*
X70087030Y-84472200D02*
X70182268Y-84376961D01*
X70182268Y-84376961D02*
X70229887Y-84186485D01*
X70229887Y-84186485D02*
X70229887Y-83853152D01*
X70229887Y-83853152D02*
X70182268Y-83662676D01*
X70182268Y-83662676D02*
X70087030Y-83567438D01*
X70087030Y-83567438D02*
X69991792Y-83519819D01*
X69277506Y-83519819D02*
X68706078Y-83519819D01*
X68991792Y-84519819D02*
X68991792Y-83519819D01*
X68182268Y-83519819D02*
X67991792Y-83519819D01*
X67991792Y-83519819D02*
X67896554Y-83567438D01*
X67896554Y-83567438D02*
X67801316Y-83662676D01*
X67801316Y-83662676D02*
X67753697Y-83853152D01*
X67753697Y-83853152D02*
X67753697Y-84186485D01*
X67753697Y-84186485D02*
X67801316Y-84376961D01*
X67801316Y-84376961D02*
X67896554Y-84472200D01*
X67896554Y-84472200D02*
X67991792Y-84519819D01*
X67991792Y-84519819D02*
X68182268Y-84519819D01*
X68182268Y-84519819D02*
X68277506Y-84472200D01*
X68277506Y-84472200D02*
X68372744Y-84376961D01*
X68372744Y-84376961D02*
X68420363Y-84186485D01*
X68420363Y-84186485D02*
X68420363Y-83853152D01*
X68420363Y-83853152D02*
X68372744Y-83662676D01*
X68372744Y-83662676D02*
X68277506Y-83567438D01*
X68277506Y-83567438D02*
X68182268Y-83519819D01*
X66753697Y-84519819D02*
X67087030Y-84043628D01*
X67325125Y-84519819D02*
X67325125Y-83519819D01*
X67325125Y-83519819D02*
X66944173Y-83519819D01*
X66944173Y-83519819D02*
X66848935Y-83567438D01*
X66848935Y-83567438D02*
X66801316Y-83615057D01*
X66801316Y-83615057D02*
X66753697Y-83710295D01*
X66753697Y-83710295D02*
X66753697Y-83853152D01*
X66753697Y-83853152D02*
X66801316Y-83948390D01*
X66801316Y-83948390D02*
X66848935Y-83996009D01*
X66848935Y-83996009D02*
X66944173Y-84043628D01*
X66944173Y-84043628D02*
X67325125Y-84043628D01*
X137339411Y-121617438D02*
X137434649Y-121569819D01*
X137434649Y-121569819D02*
X137577506Y-121569819D01*
X137577506Y-121569819D02*
X137720363Y-121617438D01*
X137720363Y-121617438D02*
X137815601Y-121712676D01*
X137815601Y-121712676D02*
X137863220Y-121807914D01*
X137863220Y-121807914D02*
X137910839Y-121998390D01*
X137910839Y-121998390D02*
X137910839Y-122141247D01*
X137910839Y-122141247D02*
X137863220Y-122331723D01*
X137863220Y-122331723D02*
X137815601Y-122426961D01*
X137815601Y-122426961D02*
X137720363Y-122522200D01*
X137720363Y-122522200D02*
X137577506Y-122569819D01*
X137577506Y-122569819D02*
X137482268Y-122569819D01*
X137482268Y-122569819D02*
X137339411Y-122522200D01*
X137339411Y-122522200D02*
X137291792Y-122474580D01*
X137291792Y-122474580D02*
X137291792Y-122141247D01*
X137291792Y-122141247D02*
X137482268Y-122141247D01*
X136863220Y-122569819D02*
X136863220Y-121569819D01*
X136863220Y-121569819D02*
X136291792Y-122569819D01*
X136291792Y-122569819D02*
X136291792Y-121569819D01*
X135815601Y-122569819D02*
X135815601Y-121569819D01*
X135815601Y-121569819D02*
X135577506Y-121569819D01*
X135577506Y-121569819D02*
X135434649Y-121617438D01*
X135434649Y-121617438D02*
X135339411Y-121712676D01*
X135339411Y-121712676D02*
X135291792Y-121807914D01*
X135291792Y-121807914D02*
X135244173Y-121998390D01*
X135244173Y-121998390D02*
X135244173Y-122141247D01*
X135244173Y-122141247D02*
X135291792Y-122331723D01*
X135291792Y-122331723D02*
X135339411Y-122426961D01*
X135339411Y-122426961D02*
X135434649Y-122522200D01*
X135434649Y-122522200D02*
X135577506Y-122569819D01*
X135577506Y-122569819D02*
X135815601Y-122569819D01*
D13*
X113220331Y-129128880D02*
X113220331Y-130128880D01*
X113220331Y-130128880D02*
X113601283Y-130128880D01*
X113601283Y-130128880D02*
X113696521Y-130081261D01*
X113696521Y-130081261D02*
X113744140Y-130033642D01*
X113744140Y-130033642D02*
X113791759Y-129938404D01*
X113791759Y-129938404D02*
X113791759Y-129795547D01*
X113791759Y-129795547D02*
X113744140Y-129700309D01*
X113744140Y-129700309D02*
X113696521Y-129652690D01*
X113696521Y-129652690D02*
X113601283Y-129605071D01*
X113601283Y-129605071D02*
X113220331Y-129605071D01*
X114791759Y-129128880D02*
X114458426Y-129605071D01*
X114220331Y-129128880D02*
X114220331Y-130128880D01*
X114220331Y-130128880D02*
X114601283Y-130128880D01*
X114601283Y-130128880D02*
X114696521Y-130081261D01*
X114696521Y-130081261D02*
X114744140Y-130033642D01*
X114744140Y-130033642D02*
X114791759Y-129938404D01*
X114791759Y-129938404D02*
X114791759Y-129795547D01*
X114791759Y-129795547D02*
X114744140Y-129700309D01*
X114744140Y-129700309D02*
X114696521Y-129652690D01*
X114696521Y-129652690D02*
X114601283Y-129605071D01*
X114601283Y-129605071D02*
X114220331Y-129605071D01*
X115220331Y-129652690D02*
X115553664Y-129652690D01*
X115696521Y-129128880D02*
X115220331Y-129128880D01*
X115220331Y-129128880D02*
X115220331Y-130128880D01*
X115220331Y-130128880D02*
X115696521Y-130128880D01*
X116077474Y-129176500D02*
X116220331Y-129128880D01*
X116220331Y-129128880D02*
X116458426Y-129128880D01*
X116458426Y-129128880D02*
X116553664Y-129176500D01*
X116553664Y-129176500D02*
X116601283Y-129224119D01*
X116601283Y-129224119D02*
X116648902Y-129319357D01*
X116648902Y-129319357D02*
X116648902Y-129414595D01*
X116648902Y-129414595D02*
X116601283Y-129509833D01*
X116601283Y-129509833D02*
X116553664Y-129557452D01*
X116553664Y-129557452D02*
X116458426Y-129605071D01*
X116458426Y-129605071D02*
X116267950Y-129652690D01*
X116267950Y-129652690D02*
X116172712Y-129700309D01*
X116172712Y-129700309D02*
X116125093Y-129747928D01*
X116125093Y-129747928D02*
X116077474Y-129843166D01*
X116077474Y-129843166D02*
X116077474Y-129938404D01*
X116077474Y-129938404D02*
X116125093Y-130033642D01*
X116125093Y-130033642D02*
X116172712Y-130081261D01*
X116172712Y-130081261D02*
X116267950Y-130128880D01*
X116267950Y-130128880D02*
X116506045Y-130128880D01*
X116506045Y-130128880D02*
X116648902Y-130081261D01*
X117029855Y-129176500D02*
X117172712Y-129128880D01*
X117172712Y-129128880D02*
X117410807Y-129128880D01*
X117410807Y-129128880D02*
X117506045Y-129176500D01*
X117506045Y-129176500D02*
X117553664Y-129224119D01*
X117553664Y-129224119D02*
X117601283Y-129319357D01*
X117601283Y-129319357D02*
X117601283Y-129414595D01*
X117601283Y-129414595D02*
X117553664Y-129509833D01*
X117553664Y-129509833D02*
X117506045Y-129557452D01*
X117506045Y-129557452D02*
X117410807Y-129605071D01*
X117410807Y-129605071D02*
X117220331Y-129652690D01*
X117220331Y-129652690D02*
X117125093Y-129700309D01*
X117125093Y-129700309D02*
X117077474Y-129747928D01*
X117077474Y-129747928D02*
X117029855Y-129843166D01*
X117029855Y-129843166D02*
X117029855Y-129938404D01*
X117029855Y-129938404D02*
X117077474Y-130033642D01*
X117077474Y-130033642D02*
X117125093Y-130081261D01*
X117125093Y-130081261D02*
X117220331Y-130128880D01*
X117220331Y-130128880D02*
X117458426Y-130128880D01*
X117458426Y-130128880D02*
X117601283Y-130081261D01*
X118029855Y-130128880D02*
X118029855Y-129319357D01*
X118029855Y-129319357D02*
X118077474Y-129224119D01*
X118077474Y-129224119D02*
X118125093Y-129176500D01*
X118125093Y-129176500D02*
X118220331Y-129128880D01*
X118220331Y-129128880D02*
X118410807Y-129128880D01*
X118410807Y-129128880D02*
X118506045Y-129176500D01*
X118506045Y-129176500D02*
X118553664Y-129224119D01*
X118553664Y-129224119D02*
X118601283Y-129319357D01*
X118601283Y-129319357D02*
X118601283Y-130128880D01*
X119648902Y-129128880D02*
X119315569Y-129605071D01*
X119077474Y-129128880D02*
X119077474Y-130128880D01*
X119077474Y-130128880D02*
X119458426Y-130128880D01*
X119458426Y-130128880D02*
X119553664Y-130081261D01*
X119553664Y-130081261D02*
X119601283Y-130033642D01*
X119601283Y-130033642D02*
X119648902Y-129938404D01*
X119648902Y-129938404D02*
X119648902Y-129795547D01*
X119648902Y-129795547D02*
X119601283Y-129700309D01*
X119601283Y-129700309D02*
X119553664Y-129652690D01*
X119553664Y-129652690D02*
X119458426Y-129605071D01*
X119458426Y-129605071D02*
X119077474Y-129605071D01*
X120077474Y-129652690D02*
X120410807Y-129652690D01*
X120553664Y-129128880D02*
X120077474Y-129128880D01*
X120077474Y-129128880D02*
X120077474Y-130128880D01*
X120077474Y-130128880D02*
X120553664Y-130128880D01*
X120744141Y-129033642D02*
X121506045Y-129033642D01*
X121696522Y-129176500D02*
X121839379Y-129128880D01*
X121839379Y-129128880D02*
X122077474Y-129128880D01*
X122077474Y-129128880D02*
X122172712Y-129176500D01*
X122172712Y-129176500D02*
X122220331Y-129224119D01*
X122220331Y-129224119D02*
X122267950Y-129319357D01*
X122267950Y-129319357D02*
X122267950Y-129414595D01*
X122267950Y-129414595D02*
X122220331Y-129509833D01*
X122220331Y-129509833D02*
X122172712Y-129557452D01*
X122172712Y-129557452D02*
X122077474Y-129605071D01*
X122077474Y-129605071D02*
X121886998Y-129652690D01*
X121886998Y-129652690D02*
X121791760Y-129700309D01*
X121791760Y-129700309D02*
X121744141Y-129747928D01*
X121744141Y-129747928D02*
X121696522Y-129843166D01*
X121696522Y-129843166D02*
X121696522Y-129938404D01*
X121696522Y-129938404D02*
X121744141Y-130033642D01*
X121744141Y-130033642D02*
X121791760Y-130081261D01*
X121791760Y-130081261D02*
X121886998Y-130128880D01*
X121886998Y-130128880D02*
X122125093Y-130128880D01*
X122125093Y-130128880D02*
X122267950Y-130081261D01*
X122696522Y-129652690D02*
X123029855Y-129652690D01*
X123172712Y-129128880D02*
X122696522Y-129128880D01*
X122696522Y-129128880D02*
X122696522Y-130128880D01*
X122696522Y-130128880D02*
X123172712Y-130128880D01*
X123601284Y-129128880D02*
X123601284Y-130128880D01*
X123601284Y-130128880D02*
X124172712Y-129128880D01*
X124172712Y-129128880D02*
X124172712Y-130128880D01*
X124601284Y-129176500D02*
X124744141Y-129128880D01*
X124744141Y-129128880D02*
X124982236Y-129128880D01*
X124982236Y-129128880D02*
X125077474Y-129176500D01*
X125077474Y-129176500D02*
X125125093Y-129224119D01*
X125125093Y-129224119D02*
X125172712Y-129319357D01*
X125172712Y-129319357D02*
X125172712Y-129414595D01*
X125172712Y-129414595D02*
X125125093Y-129509833D01*
X125125093Y-129509833D02*
X125077474Y-129557452D01*
X125077474Y-129557452D02*
X124982236Y-129605071D01*
X124982236Y-129605071D02*
X124791760Y-129652690D01*
X124791760Y-129652690D02*
X124696522Y-129700309D01*
X124696522Y-129700309D02*
X124648903Y-129747928D01*
X124648903Y-129747928D02*
X124601284Y-129843166D01*
X124601284Y-129843166D02*
X124601284Y-129938404D01*
X124601284Y-129938404D02*
X124648903Y-130033642D01*
X124648903Y-130033642D02*
X124696522Y-130081261D01*
X124696522Y-130081261D02*
X124791760Y-130128880D01*
X124791760Y-130128880D02*
X125029855Y-130128880D01*
X125029855Y-130128880D02*
X125172712Y-130081261D01*
X125791760Y-130128880D02*
X125982236Y-130128880D01*
X125982236Y-130128880D02*
X126077474Y-130081261D01*
X126077474Y-130081261D02*
X126172712Y-129986023D01*
X126172712Y-129986023D02*
X126220331Y-129795547D01*
X126220331Y-129795547D02*
X126220331Y-129462214D01*
X126220331Y-129462214D02*
X126172712Y-129271738D01*
X126172712Y-129271738D02*
X126077474Y-129176500D01*
X126077474Y-129176500D02*
X125982236Y-129128880D01*
X125982236Y-129128880D02*
X125791760Y-129128880D01*
X125791760Y-129128880D02*
X125696522Y-129176500D01*
X125696522Y-129176500D02*
X125601284Y-129271738D01*
X125601284Y-129271738D02*
X125553665Y-129462214D01*
X125553665Y-129462214D02*
X125553665Y-129795547D01*
X125553665Y-129795547D02*
X125601284Y-129986023D01*
X125601284Y-129986023D02*
X125696522Y-130081261D01*
X125696522Y-130081261D02*
X125791760Y-130128880D01*
X127220331Y-129128880D02*
X126886998Y-129605071D01*
X126648903Y-129128880D02*
X126648903Y-130128880D01*
X126648903Y-130128880D02*
X127029855Y-130128880D01*
X127029855Y-130128880D02*
X127125093Y-130081261D01*
X127125093Y-130081261D02*
X127172712Y-130033642D01*
X127172712Y-130033642D02*
X127220331Y-129938404D01*
X127220331Y-129938404D02*
X127220331Y-129795547D01*
X127220331Y-129795547D02*
X127172712Y-129700309D01*
X127172712Y-129700309D02*
X127125093Y-129652690D01*
X127125093Y-129652690D02*
X127029855Y-129605071D01*
X127029855Y-129605071D02*
X126648903Y-129605071D01*
X127410808Y-129033642D02*
X128172712Y-129033642D01*
X128410808Y-129128880D02*
X128410808Y-130128880D01*
X130077474Y-129795547D02*
X130077474Y-129128880D01*
X129839379Y-130176500D02*
X129601284Y-129462214D01*
X129601284Y-129462214D02*
X130220331Y-129462214D01*
X130601284Y-129509833D02*
X131363189Y-129509833D01*
X131791760Y-130033642D02*
X131839379Y-130081261D01*
X131839379Y-130081261D02*
X131934617Y-130128880D01*
X131934617Y-130128880D02*
X132172712Y-130128880D01*
X132172712Y-130128880D02*
X132267950Y-130081261D01*
X132267950Y-130081261D02*
X132315569Y-130033642D01*
X132315569Y-130033642D02*
X132363188Y-129938404D01*
X132363188Y-129938404D02*
X132363188Y-129843166D01*
X132363188Y-129843166D02*
X132315569Y-129700309D01*
X132315569Y-129700309D02*
X131744141Y-129128880D01*
X131744141Y-129128880D02*
X132363188Y-129128880D01*
X132982236Y-130128880D02*
X133077474Y-130128880D01*
X133077474Y-130128880D02*
X133172712Y-130081261D01*
X133172712Y-130081261D02*
X133220331Y-130033642D01*
X133220331Y-130033642D02*
X133267950Y-129938404D01*
X133267950Y-129938404D02*
X133315569Y-129747928D01*
X133315569Y-129747928D02*
X133315569Y-129509833D01*
X133315569Y-129509833D02*
X133267950Y-129319357D01*
X133267950Y-129319357D02*
X133220331Y-129224119D01*
X133220331Y-129224119D02*
X133172712Y-129176500D01*
X133172712Y-129176500D02*
X133077474Y-129128880D01*
X133077474Y-129128880D02*
X132982236Y-129128880D01*
X132982236Y-129128880D02*
X132886998Y-129176500D01*
X132886998Y-129176500D02*
X132839379Y-129224119D01*
X132839379Y-129224119D02*
X132791760Y-129319357D01*
X132791760Y-129319357D02*
X132744141Y-129509833D01*
X132744141Y-129509833D02*
X132744141Y-129747928D01*
X132744141Y-129747928D02*
X132791760Y-129938404D01*
X132791760Y-129938404D02*
X132839379Y-130033642D01*
X132839379Y-130033642D02*
X132886998Y-130081261D01*
X132886998Y-130081261D02*
X132982236Y-130128880D01*
X133744141Y-129128880D02*
X133744141Y-129795547D01*
X133744141Y-129700309D02*
X133791760Y-129747928D01*
X133791760Y-129747928D02*
X133886998Y-129795547D01*
X133886998Y-129795547D02*
X134029855Y-129795547D01*
X134029855Y-129795547D02*
X134125093Y-129747928D01*
X134125093Y-129747928D02*
X134172712Y-129652690D01*
X134172712Y-129652690D02*
X134172712Y-129128880D01*
X134172712Y-129652690D02*
X134220331Y-129747928D01*
X134220331Y-129747928D02*
X134315569Y-129795547D01*
X134315569Y-129795547D02*
X134458426Y-129795547D01*
X134458426Y-129795547D02*
X134553665Y-129747928D01*
X134553665Y-129747928D02*
X134601284Y-129652690D01*
X134601284Y-129652690D02*
X134601284Y-129128880D01*
X135029855Y-129414595D02*
X135506045Y-129414595D01*
X134934617Y-129128880D02*
X135267950Y-130128880D01*
X135267950Y-130128880D02*
X135601283Y-129128880D01*
D11*
X63806077Y-75769819D02*
X63472744Y-76769819D01*
X63472744Y-76769819D02*
X63139411Y-75769819D01*
X62806077Y-76769819D02*
X62806077Y-76103152D01*
X62806077Y-75769819D02*
X62853696Y-75817438D01*
X62853696Y-75817438D02*
X62806077Y-75865057D01*
X62806077Y-75865057D02*
X62758458Y-75817438D01*
X62758458Y-75817438D02*
X62806077Y-75769819D01*
X62806077Y-75769819D02*
X62806077Y-75865057D01*
X62329887Y-76103152D02*
X62329887Y-76769819D01*
X62329887Y-76198390D02*
X62282268Y-76150771D01*
X62282268Y-76150771D02*
X62187030Y-76103152D01*
X62187030Y-76103152D02*
X62044173Y-76103152D01*
X62044173Y-76103152D02*
X61948935Y-76150771D01*
X61948935Y-76150771D02*
X61901316Y-76246009D01*
X61901316Y-76246009D02*
X61901316Y-76769819D01*
X132341792Y-100324580D02*
X132389411Y-100372200D01*
X132389411Y-100372200D02*
X132532268Y-100419819D01*
X132532268Y-100419819D02*
X132627506Y-100419819D01*
X132627506Y-100419819D02*
X132770363Y-100372200D01*
X132770363Y-100372200D02*
X132865601Y-100276961D01*
X132865601Y-100276961D02*
X132913220Y-100181723D01*
X132913220Y-100181723D02*
X132960839Y-99991247D01*
X132960839Y-99991247D02*
X132960839Y-99848390D01*
X132960839Y-99848390D02*
X132913220Y-99657914D01*
X132913220Y-99657914D02*
X132865601Y-99562676D01*
X132865601Y-99562676D02*
X132770363Y-99467438D01*
X132770363Y-99467438D02*
X132627506Y-99419819D01*
X132627506Y-99419819D02*
X132532268Y-99419819D01*
X132532268Y-99419819D02*
X132389411Y-99467438D01*
X132389411Y-99467438D02*
X132341792Y-99515057D01*
X131960839Y-100134104D02*
X131484649Y-100134104D01*
X132056077Y-100419819D02*
X131722744Y-99419819D01*
X131722744Y-99419819D02*
X131389411Y-100419819D01*
X131056077Y-100419819D02*
X131056077Y-99419819D01*
X131056077Y-99419819D02*
X130484649Y-100419819D01*
X130484649Y-100419819D02*
X130484649Y-99419819D01*
X129532268Y-100419819D02*
X130008458Y-100419819D01*
X130008458Y-100419819D02*
X130008458Y-99419819D01*
D13*
X131829668Y-112921119D02*
X131829668Y-111921119D01*
X131829668Y-112397309D02*
X131258240Y-112397309D01*
X131258240Y-112921119D02*
X131258240Y-111921119D01*
X130591573Y-112444928D02*
X130591573Y-112921119D01*
X130924906Y-111921119D02*
X130591573Y-112444928D01*
X130591573Y-112444928D02*
X130258240Y-111921119D01*
X129924906Y-112921119D02*
X129924906Y-111921119D01*
X129924906Y-111921119D02*
X129686811Y-111921119D01*
X129686811Y-111921119D02*
X129543954Y-111968738D01*
X129543954Y-111968738D02*
X129448716Y-112063976D01*
X129448716Y-112063976D02*
X129401097Y-112159214D01*
X129401097Y-112159214D02*
X129353478Y-112349690D01*
X129353478Y-112349690D02*
X129353478Y-112492547D01*
X129353478Y-112492547D02*
X129401097Y-112683023D01*
X129401097Y-112683023D02*
X129448716Y-112778261D01*
X129448716Y-112778261D02*
X129543954Y-112873500D01*
X129543954Y-112873500D02*
X129686811Y-112921119D01*
X129686811Y-112921119D02*
X129924906Y-112921119D01*
X128353478Y-112921119D02*
X128686811Y-112444928D01*
X128924906Y-112921119D02*
X128924906Y-111921119D01*
X128924906Y-111921119D02*
X128543954Y-111921119D01*
X128543954Y-111921119D02*
X128448716Y-111968738D01*
X128448716Y-111968738D02*
X128401097Y-112016357D01*
X128401097Y-112016357D02*
X128353478Y-112111595D01*
X128353478Y-112111595D02*
X128353478Y-112254452D01*
X128353478Y-112254452D02*
X128401097Y-112349690D01*
X128401097Y-112349690D02*
X128448716Y-112397309D01*
X128448716Y-112397309D02*
X128543954Y-112444928D01*
X128543954Y-112444928D02*
X128924906Y-112444928D01*
X127924906Y-112397309D02*
X127591573Y-112397309D01*
X127448716Y-112921119D02*
X127924906Y-112921119D01*
X127924906Y-112921119D02*
X127924906Y-111921119D01*
X127924906Y-111921119D02*
X127448716Y-111921119D01*
X126496335Y-111968738D02*
X126591573Y-111921119D01*
X126591573Y-111921119D02*
X126734430Y-111921119D01*
X126734430Y-111921119D02*
X126877287Y-111968738D01*
X126877287Y-111968738D02*
X126972525Y-112063976D01*
X126972525Y-112063976D02*
X127020144Y-112159214D01*
X127020144Y-112159214D02*
X127067763Y-112349690D01*
X127067763Y-112349690D02*
X127067763Y-112492547D01*
X127067763Y-112492547D02*
X127020144Y-112683023D01*
X127020144Y-112683023D02*
X126972525Y-112778261D01*
X126972525Y-112778261D02*
X126877287Y-112873500D01*
X126877287Y-112873500D02*
X126734430Y-112921119D01*
X126734430Y-112921119D02*
X126639192Y-112921119D01*
X126639192Y-112921119D02*
X126496335Y-112873500D01*
X126496335Y-112873500D02*
X126448716Y-112825880D01*
X126448716Y-112825880D02*
X126448716Y-112492547D01*
X126448716Y-112492547D02*
X126639192Y-112492547D01*
X126020144Y-112397309D02*
X125686811Y-112397309D01*
X125543954Y-112921119D02*
X126020144Y-112921119D01*
X126020144Y-112921119D02*
X126020144Y-111921119D01*
X126020144Y-111921119D02*
X125543954Y-111921119D01*
X125115382Y-112921119D02*
X125115382Y-111921119D01*
X125115382Y-111921119D02*
X124543954Y-112921119D01*
X124543954Y-112921119D02*
X124543954Y-111921119D01*
X124305859Y-113016357D02*
X123543954Y-113016357D01*
X123353477Y-112873500D02*
X123210620Y-112921119D01*
X123210620Y-112921119D02*
X122972525Y-112921119D01*
X122972525Y-112921119D02*
X122877287Y-112873500D01*
X122877287Y-112873500D02*
X122829668Y-112825880D01*
X122829668Y-112825880D02*
X122782049Y-112730642D01*
X122782049Y-112730642D02*
X122782049Y-112635404D01*
X122782049Y-112635404D02*
X122829668Y-112540166D01*
X122829668Y-112540166D02*
X122877287Y-112492547D01*
X122877287Y-112492547D02*
X122972525Y-112444928D01*
X122972525Y-112444928D02*
X123163001Y-112397309D01*
X123163001Y-112397309D02*
X123258239Y-112349690D01*
X123258239Y-112349690D02*
X123305858Y-112302071D01*
X123305858Y-112302071D02*
X123353477Y-112206833D01*
X123353477Y-112206833D02*
X123353477Y-112111595D01*
X123353477Y-112111595D02*
X123305858Y-112016357D01*
X123305858Y-112016357D02*
X123258239Y-111968738D01*
X123258239Y-111968738D02*
X123163001Y-111921119D01*
X123163001Y-111921119D02*
X122924906Y-111921119D01*
X122924906Y-111921119D02*
X122782049Y-111968738D01*
X122353477Y-112397309D02*
X122020144Y-112397309D01*
X121877287Y-112921119D02*
X122353477Y-112921119D01*
X122353477Y-112921119D02*
X122353477Y-111921119D01*
X122353477Y-111921119D02*
X121877287Y-111921119D01*
X121448715Y-112921119D02*
X121448715Y-111921119D01*
X121448715Y-111921119D02*
X120877287Y-112921119D01*
X120877287Y-112921119D02*
X120877287Y-111921119D01*
X120448715Y-112873500D02*
X120305858Y-112921119D01*
X120305858Y-112921119D02*
X120067763Y-112921119D01*
X120067763Y-112921119D02*
X119972525Y-112873500D01*
X119972525Y-112873500D02*
X119924906Y-112825880D01*
X119924906Y-112825880D02*
X119877287Y-112730642D01*
X119877287Y-112730642D02*
X119877287Y-112635404D01*
X119877287Y-112635404D02*
X119924906Y-112540166D01*
X119924906Y-112540166D02*
X119972525Y-112492547D01*
X119972525Y-112492547D02*
X120067763Y-112444928D01*
X120067763Y-112444928D02*
X120258239Y-112397309D01*
X120258239Y-112397309D02*
X120353477Y-112349690D01*
X120353477Y-112349690D02*
X120401096Y-112302071D01*
X120401096Y-112302071D02*
X120448715Y-112206833D01*
X120448715Y-112206833D02*
X120448715Y-112111595D01*
X120448715Y-112111595D02*
X120401096Y-112016357D01*
X120401096Y-112016357D02*
X120353477Y-111968738D01*
X120353477Y-111968738D02*
X120258239Y-111921119D01*
X120258239Y-111921119D02*
X120020144Y-111921119D01*
X120020144Y-111921119D02*
X119877287Y-111968738D01*
X119258239Y-111921119D02*
X119067763Y-111921119D01*
X119067763Y-111921119D02*
X118972525Y-111968738D01*
X118972525Y-111968738D02*
X118877287Y-112063976D01*
X118877287Y-112063976D02*
X118829668Y-112254452D01*
X118829668Y-112254452D02*
X118829668Y-112587785D01*
X118829668Y-112587785D02*
X118877287Y-112778261D01*
X118877287Y-112778261D02*
X118972525Y-112873500D01*
X118972525Y-112873500D02*
X119067763Y-112921119D01*
X119067763Y-112921119D02*
X119258239Y-112921119D01*
X119258239Y-112921119D02*
X119353477Y-112873500D01*
X119353477Y-112873500D02*
X119448715Y-112778261D01*
X119448715Y-112778261D02*
X119496334Y-112587785D01*
X119496334Y-112587785D02*
X119496334Y-112254452D01*
X119496334Y-112254452D02*
X119448715Y-112063976D01*
X119448715Y-112063976D02*
X119353477Y-111968738D01*
X119353477Y-111968738D02*
X119258239Y-111921119D01*
X117829668Y-112921119D02*
X118163001Y-112444928D01*
X118401096Y-112921119D02*
X118401096Y-111921119D01*
X118401096Y-111921119D02*
X118020144Y-111921119D01*
X118020144Y-111921119D02*
X117924906Y-111968738D01*
X117924906Y-111968738D02*
X117877287Y-112016357D01*
X117877287Y-112016357D02*
X117829668Y-112111595D01*
X117829668Y-112111595D02*
X117829668Y-112254452D01*
X117829668Y-112254452D02*
X117877287Y-112349690D01*
X117877287Y-112349690D02*
X117924906Y-112397309D01*
X117924906Y-112397309D02*
X118020144Y-112444928D01*
X118020144Y-112444928D02*
X118401096Y-112444928D01*
X132379668Y-122621119D02*
X132379668Y-121621119D01*
X132379668Y-122097309D02*
X131808240Y-122097309D01*
X131808240Y-122621119D02*
X131808240Y-121621119D01*
X131141573Y-122144928D02*
X131141573Y-122621119D01*
X131474906Y-121621119D02*
X131141573Y-122144928D01*
X131141573Y-122144928D02*
X130808240Y-121621119D01*
X130474906Y-122621119D02*
X130474906Y-121621119D01*
X130474906Y-121621119D02*
X130236811Y-121621119D01*
X130236811Y-121621119D02*
X130093954Y-121668738D01*
X130093954Y-121668738D02*
X129998716Y-121763976D01*
X129998716Y-121763976D02*
X129951097Y-121859214D01*
X129951097Y-121859214D02*
X129903478Y-122049690D01*
X129903478Y-122049690D02*
X129903478Y-122192547D01*
X129903478Y-122192547D02*
X129951097Y-122383023D01*
X129951097Y-122383023D02*
X129998716Y-122478261D01*
X129998716Y-122478261D02*
X130093954Y-122573500D01*
X130093954Y-122573500D02*
X130236811Y-122621119D01*
X130236811Y-122621119D02*
X130474906Y-122621119D01*
X128903478Y-122621119D02*
X129236811Y-122144928D01*
X129474906Y-122621119D02*
X129474906Y-121621119D01*
X129474906Y-121621119D02*
X129093954Y-121621119D01*
X129093954Y-121621119D02*
X128998716Y-121668738D01*
X128998716Y-121668738D02*
X128951097Y-121716357D01*
X128951097Y-121716357D02*
X128903478Y-121811595D01*
X128903478Y-121811595D02*
X128903478Y-121954452D01*
X128903478Y-121954452D02*
X128951097Y-122049690D01*
X128951097Y-122049690D02*
X128998716Y-122097309D01*
X128998716Y-122097309D02*
X129093954Y-122144928D01*
X129093954Y-122144928D02*
X129474906Y-122144928D01*
X128284430Y-121621119D02*
X128093954Y-121621119D01*
X128093954Y-121621119D02*
X127998716Y-121668738D01*
X127998716Y-121668738D02*
X127903478Y-121763976D01*
X127903478Y-121763976D02*
X127855859Y-121954452D01*
X127855859Y-121954452D02*
X127855859Y-122287785D01*
X127855859Y-122287785D02*
X127903478Y-122478261D01*
X127903478Y-122478261D02*
X127998716Y-122573500D01*
X127998716Y-122573500D02*
X128093954Y-122621119D01*
X128093954Y-122621119D02*
X128284430Y-122621119D01*
X128284430Y-122621119D02*
X128379668Y-122573500D01*
X128379668Y-122573500D02*
X128474906Y-122478261D01*
X128474906Y-122478261D02*
X128522525Y-122287785D01*
X128522525Y-122287785D02*
X128522525Y-121954452D01*
X128522525Y-121954452D02*
X128474906Y-121763976D01*
X128474906Y-121763976D02*
X128379668Y-121668738D01*
X128379668Y-121668738D02*
X128284430Y-121621119D01*
X126903478Y-121668738D02*
X126998716Y-121621119D01*
X126998716Y-121621119D02*
X127141573Y-121621119D01*
X127141573Y-121621119D02*
X127284430Y-121668738D01*
X127284430Y-121668738D02*
X127379668Y-121763976D01*
X127379668Y-121763976D02*
X127427287Y-121859214D01*
X127427287Y-121859214D02*
X127474906Y-122049690D01*
X127474906Y-122049690D02*
X127474906Y-122192547D01*
X127474906Y-122192547D02*
X127427287Y-122383023D01*
X127427287Y-122383023D02*
X127379668Y-122478261D01*
X127379668Y-122478261D02*
X127284430Y-122573500D01*
X127284430Y-122573500D02*
X127141573Y-122621119D01*
X127141573Y-122621119D02*
X127046335Y-122621119D01*
X127046335Y-122621119D02*
X126903478Y-122573500D01*
X126903478Y-122573500D02*
X126855859Y-122525880D01*
X126855859Y-122525880D02*
X126855859Y-122192547D01*
X126855859Y-122192547D02*
X127046335Y-122192547D01*
X126427287Y-122097309D02*
X126093954Y-122097309D01*
X125951097Y-122621119D02*
X126427287Y-122621119D01*
X126427287Y-122621119D02*
X126427287Y-121621119D01*
X126427287Y-121621119D02*
X125951097Y-121621119D01*
X125522525Y-122621119D02*
X125522525Y-121621119D01*
X125522525Y-121621119D02*
X124951097Y-122621119D01*
X124951097Y-122621119D02*
X124951097Y-121621119D01*
X124713002Y-122716357D02*
X123951097Y-122716357D01*
X123760620Y-122573500D02*
X123617763Y-122621119D01*
X123617763Y-122621119D02*
X123379668Y-122621119D01*
X123379668Y-122621119D02*
X123284430Y-122573500D01*
X123284430Y-122573500D02*
X123236811Y-122525880D01*
X123236811Y-122525880D02*
X123189192Y-122430642D01*
X123189192Y-122430642D02*
X123189192Y-122335404D01*
X123189192Y-122335404D02*
X123236811Y-122240166D01*
X123236811Y-122240166D02*
X123284430Y-122192547D01*
X123284430Y-122192547D02*
X123379668Y-122144928D01*
X123379668Y-122144928D02*
X123570144Y-122097309D01*
X123570144Y-122097309D02*
X123665382Y-122049690D01*
X123665382Y-122049690D02*
X123713001Y-122002071D01*
X123713001Y-122002071D02*
X123760620Y-121906833D01*
X123760620Y-121906833D02*
X123760620Y-121811595D01*
X123760620Y-121811595D02*
X123713001Y-121716357D01*
X123713001Y-121716357D02*
X123665382Y-121668738D01*
X123665382Y-121668738D02*
X123570144Y-121621119D01*
X123570144Y-121621119D02*
X123332049Y-121621119D01*
X123332049Y-121621119D02*
X123189192Y-121668738D01*
X122760620Y-122097309D02*
X122427287Y-122097309D01*
X122284430Y-122621119D02*
X122760620Y-122621119D01*
X122760620Y-122621119D02*
X122760620Y-121621119D01*
X122760620Y-121621119D02*
X122284430Y-121621119D01*
X121855858Y-122621119D02*
X121855858Y-121621119D01*
X121855858Y-121621119D02*
X121284430Y-122621119D01*
X121284430Y-122621119D02*
X121284430Y-121621119D01*
X120855858Y-122573500D02*
X120713001Y-122621119D01*
X120713001Y-122621119D02*
X120474906Y-122621119D01*
X120474906Y-122621119D02*
X120379668Y-122573500D01*
X120379668Y-122573500D02*
X120332049Y-122525880D01*
X120332049Y-122525880D02*
X120284430Y-122430642D01*
X120284430Y-122430642D02*
X120284430Y-122335404D01*
X120284430Y-122335404D02*
X120332049Y-122240166D01*
X120332049Y-122240166D02*
X120379668Y-122192547D01*
X120379668Y-122192547D02*
X120474906Y-122144928D01*
X120474906Y-122144928D02*
X120665382Y-122097309D01*
X120665382Y-122097309D02*
X120760620Y-122049690D01*
X120760620Y-122049690D02*
X120808239Y-122002071D01*
X120808239Y-122002071D02*
X120855858Y-121906833D01*
X120855858Y-121906833D02*
X120855858Y-121811595D01*
X120855858Y-121811595D02*
X120808239Y-121716357D01*
X120808239Y-121716357D02*
X120760620Y-121668738D01*
X120760620Y-121668738D02*
X120665382Y-121621119D01*
X120665382Y-121621119D02*
X120427287Y-121621119D01*
X120427287Y-121621119D02*
X120284430Y-121668738D01*
X119665382Y-121621119D02*
X119474906Y-121621119D01*
X119474906Y-121621119D02*
X119379668Y-121668738D01*
X119379668Y-121668738D02*
X119284430Y-121763976D01*
X119284430Y-121763976D02*
X119236811Y-121954452D01*
X119236811Y-121954452D02*
X119236811Y-122287785D01*
X119236811Y-122287785D02*
X119284430Y-122478261D01*
X119284430Y-122478261D02*
X119379668Y-122573500D01*
X119379668Y-122573500D02*
X119474906Y-122621119D01*
X119474906Y-122621119D02*
X119665382Y-122621119D01*
X119665382Y-122621119D02*
X119760620Y-122573500D01*
X119760620Y-122573500D02*
X119855858Y-122478261D01*
X119855858Y-122478261D02*
X119903477Y-122287785D01*
X119903477Y-122287785D02*
X119903477Y-121954452D01*
X119903477Y-121954452D02*
X119855858Y-121763976D01*
X119855858Y-121763976D02*
X119760620Y-121668738D01*
X119760620Y-121668738D02*
X119665382Y-121621119D01*
X118236811Y-122621119D02*
X118570144Y-122144928D01*
X118808239Y-122621119D02*
X118808239Y-121621119D01*
X118808239Y-121621119D02*
X118427287Y-121621119D01*
X118427287Y-121621119D02*
X118332049Y-121668738D01*
X118332049Y-121668738D02*
X118284430Y-121716357D01*
X118284430Y-121716357D02*
X118236811Y-121811595D01*
X118236811Y-121811595D02*
X118236811Y-121954452D01*
X118236811Y-121954452D02*
X118284430Y-122049690D01*
X118284430Y-122049690D02*
X118332049Y-122097309D01*
X118332049Y-122097309D02*
X118427287Y-122144928D01*
X118427287Y-122144928D02*
X118808239Y-122144928D01*
X118046335Y-122716357D02*
X117284430Y-122716357D01*
X117093953Y-122335404D02*
X116617763Y-122335404D01*
X117189191Y-122621119D02*
X116855858Y-121621119D01*
X116855858Y-121621119D02*
X116522525Y-122621119D01*
X116189191Y-122621119D02*
X116189191Y-121621119D01*
X116189191Y-121621119D02*
X115951096Y-121621119D01*
X115951096Y-121621119D02*
X115808239Y-121668738D01*
X115808239Y-121668738D02*
X115713001Y-121763976D01*
X115713001Y-121763976D02*
X115665382Y-121859214D01*
X115665382Y-121859214D02*
X115617763Y-122049690D01*
X115617763Y-122049690D02*
X115617763Y-122192547D01*
X115617763Y-122192547D02*
X115665382Y-122383023D01*
X115665382Y-122383023D02*
X115713001Y-122478261D01*
X115713001Y-122478261D02*
X115808239Y-122573500D01*
X115808239Y-122573500D02*
X115951096Y-122621119D01*
X115951096Y-122621119D02*
X116189191Y-122621119D01*
X114617763Y-122525880D02*
X114665382Y-122573500D01*
X114665382Y-122573500D02*
X114808239Y-122621119D01*
X114808239Y-122621119D02*
X114903477Y-122621119D01*
X114903477Y-122621119D02*
X115046334Y-122573500D01*
X115046334Y-122573500D02*
X115141572Y-122478261D01*
X115141572Y-122478261D02*
X115189191Y-122383023D01*
X115189191Y-122383023D02*
X115236810Y-122192547D01*
X115236810Y-122192547D02*
X115236810Y-122049690D01*
X115236810Y-122049690D02*
X115189191Y-121859214D01*
X115189191Y-121859214D02*
X115141572Y-121763976D01*
X115141572Y-121763976D02*
X115046334Y-121668738D01*
X115046334Y-121668738D02*
X114903477Y-121621119D01*
X114903477Y-121621119D02*
X114808239Y-121621119D01*
X114808239Y-121621119D02*
X114665382Y-121668738D01*
X114665382Y-121668738D02*
X114617763Y-121716357D01*
D11*
X132389411Y-103567438D02*
X132484649Y-103519819D01*
X132484649Y-103519819D02*
X132627506Y-103519819D01*
X132627506Y-103519819D02*
X132770363Y-103567438D01*
X132770363Y-103567438D02*
X132865601Y-103662676D01*
X132865601Y-103662676D02*
X132913220Y-103757914D01*
X132913220Y-103757914D02*
X132960839Y-103948390D01*
X132960839Y-103948390D02*
X132960839Y-104091247D01*
X132960839Y-104091247D02*
X132913220Y-104281723D01*
X132913220Y-104281723D02*
X132865601Y-104376961D01*
X132865601Y-104376961D02*
X132770363Y-104472200D01*
X132770363Y-104472200D02*
X132627506Y-104519819D01*
X132627506Y-104519819D02*
X132532268Y-104519819D01*
X132532268Y-104519819D02*
X132389411Y-104472200D01*
X132389411Y-104472200D02*
X132341792Y-104424580D01*
X132341792Y-104424580D02*
X132341792Y-104091247D01*
X132341792Y-104091247D02*
X132532268Y-104091247D01*
X131913220Y-104519819D02*
X131913220Y-103519819D01*
X131913220Y-103519819D02*
X131341792Y-104519819D01*
X131341792Y-104519819D02*
X131341792Y-103519819D01*
X130865601Y-104519819D02*
X130865601Y-103519819D01*
X130865601Y-103519819D02*
X130627506Y-103519819D01*
X130627506Y-103519819D02*
X130484649Y-103567438D01*
X130484649Y-103567438D02*
X130389411Y-103662676D01*
X130389411Y-103662676D02*
X130341792Y-103757914D01*
X130341792Y-103757914D02*
X130294173Y-103948390D01*
X130294173Y-103948390D02*
X130294173Y-104091247D01*
X130294173Y-104091247D02*
X130341792Y-104281723D01*
X130341792Y-104281723D02*
X130389411Y-104376961D01*
X130389411Y-104376961D02*
X130484649Y-104472200D01*
X130484649Y-104472200D02*
X130627506Y-104519819D01*
X130627506Y-104519819D02*
X130865601Y-104519819D01*
X116060588Y-135582561D02*
X115965350Y-135630180D01*
X115965350Y-135630180D02*
X115822493Y-135630180D01*
X115822493Y-135630180D02*
X115679636Y-135582561D01*
X115679636Y-135582561D02*
X115584398Y-135487323D01*
X115584398Y-135487323D02*
X115536779Y-135392085D01*
X115536779Y-135392085D02*
X115489160Y-135201609D01*
X115489160Y-135201609D02*
X115489160Y-135058752D01*
X115489160Y-135058752D02*
X115536779Y-134868276D01*
X115536779Y-134868276D02*
X115584398Y-134773038D01*
X115584398Y-134773038D02*
X115679636Y-134677800D01*
X115679636Y-134677800D02*
X115822493Y-134630180D01*
X115822493Y-134630180D02*
X115917731Y-134630180D01*
X115917731Y-134630180D02*
X116060588Y-134677800D01*
X116060588Y-134677800D02*
X116108207Y-134725419D01*
X116108207Y-134725419D02*
X116108207Y-135058752D01*
X116108207Y-135058752D02*
X115917731Y-135058752D01*
X116536779Y-134630180D02*
X116536779Y-135630180D01*
X116536779Y-135630180D02*
X117108207Y-134630180D01*
X117108207Y-134630180D02*
X117108207Y-135630180D01*
X117584398Y-134630180D02*
X117584398Y-135630180D01*
X117584398Y-135630180D02*
X117822493Y-135630180D01*
X117822493Y-135630180D02*
X117965350Y-135582561D01*
X117965350Y-135582561D02*
X118060588Y-135487323D01*
X118060588Y-135487323D02*
X118108207Y-135392085D01*
X118108207Y-135392085D02*
X118155826Y-135201609D01*
X118155826Y-135201609D02*
X118155826Y-135058752D01*
X118155826Y-135058752D02*
X118108207Y-134868276D01*
X118108207Y-134868276D02*
X118060588Y-134773038D01*
X118060588Y-134773038D02*
X117965350Y-134677800D01*
X117965350Y-134677800D02*
X117822493Y-134630180D01*
X117822493Y-134630180D02*
X117584398Y-134630180D01*
X106486779Y-129561133D02*
X107248684Y-129561133D01*
X106867731Y-129180180D02*
X106867731Y-129942085D01*
X108248683Y-129180180D02*
X107677255Y-129180180D01*
X107962969Y-129180180D02*
X107962969Y-130180180D01*
X107962969Y-130180180D02*
X107867731Y-130037323D01*
X107867731Y-130037323D02*
X107772493Y-129942085D01*
X107772493Y-129942085D02*
X107677255Y-129894466D01*
X108629636Y-130084942D02*
X108677255Y-130132561D01*
X108677255Y-130132561D02*
X108772493Y-130180180D01*
X108772493Y-130180180D02*
X109010588Y-130180180D01*
X109010588Y-130180180D02*
X109105826Y-130132561D01*
X109105826Y-130132561D02*
X109153445Y-130084942D01*
X109153445Y-130084942D02*
X109201064Y-129989704D01*
X109201064Y-129989704D02*
X109201064Y-129894466D01*
X109201064Y-129894466D02*
X109153445Y-129751609D01*
X109153445Y-129751609D02*
X108582017Y-129180180D01*
X108582017Y-129180180D02*
X109201064Y-129180180D01*
X109486779Y-130180180D02*
X109820112Y-129180180D01*
X109820112Y-129180180D02*
X110153445Y-130180180D01*
X70163220Y-120238866D02*
X69401316Y-120238866D01*
X69782268Y-120619819D02*
X69782268Y-119857914D01*
X68401316Y-120619819D02*
X68972744Y-120619819D01*
X68687030Y-120619819D02*
X68687030Y-119619819D01*
X68687030Y-119619819D02*
X68782268Y-119762676D01*
X68782268Y-119762676D02*
X68877506Y-119857914D01*
X68877506Y-119857914D02*
X68972744Y-119905533D01*
X68020363Y-119715057D02*
X67972744Y-119667438D01*
X67972744Y-119667438D02*
X67877506Y-119619819D01*
X67877506Y-119619819D02*
X67639411Y-119619819D01*
X67639411Y-119619819D02*
X67544173Y-119667438D01*
X67544173Y-119667438D02*
X67496554Y-119715057D01*
X67496554Y-119715057D02*
X67448935Y-119810295D01*
X67448935Y-119810295D02*
X67448935Y-119905533D01*
X67448935Y-119905533D02*
X67496554Y-120048390D01*
X67496554Y-120048390D02*
X68067982Y-120619819D01*
X68067982Y-120619819D02*
X67448935Y-120619819D01*
X67163220Y-119619819D02*
X66829887Y-120619819D01*
X66829887Y-120619819D02*
X66496554Y-119619819D01*
M02*
