M48
; DRILL file {KiCad 8.0.0} date 2024-03-30T13:43:11+0100
; FORMAT={-:-/ absolute / inch / decimal}
; #@! TF.CreationDate,2024-03-30T13:43:11+01:00
; #@! TF.GenerationSoftware,Kicad,Pcbnew,8.0.0
; #@! TF.FileFunction,Plated,1,2,PTH
FMAT,2
INCH
; #@! TA.AperFunction,Plated,PTH,ViaDrill
T1C0.0118
; #@! TA.AperFunction,Plated,PTH,ComponentDrill
T2C0.0118
; #@! TA.AperFunction,Plated,PTH,ComponentDrill
T3C0.0307
; #@! TA.AperFunction,Plated,PTH,ViaDrill
T4C0.0315
; #@! TA.AperFunction,Plated,PTH,ComponentDrill
T5C0.0315
; #@! TA.AperFunction,Plated,PTH,ComponentDrill
T6C0.0598
; #@! TA.AperFunction,Plated,PTH,ComponentDrill
T7C0.0709
; #@! TA.AperFunction,Plated,PTH,ComponentDrill
T8C0.0748
%
G90
G05
T1
X2.5425Y-4.0624
X2.5669Y-4.3701
X2.5855Y-5.5738
X2.5855Y-5.6841
X2.6339Y-2.685
X2.7323Y-3.9173
X2.751Y-2.4459
X2.7825Y-2.4459
X2.814Y-2.4459
X2.8337Y-2.8159
X2.8455Y-2.4459
X2.8533Y-5.5753
X2.8558Y-5.6855
X2.8858Y-4.0571
X2.8942Y-2.4459
X2.8976Y-2.7687
X2.9055Y-5.3878
X2.9685Y-5.3573
X3.0881Y-2.7687
X3.1196Y-5.6855
X3.1211Y-5.5753
X3.1693Y-5.3976
X3.2323Y-5.3573
X3.6299Y-5.252
X3.6791Y-5.1909
X3.7283Y-5.5
X3.7303Y-5.189
X3.7677Y-2.6634
X3.7677Y-2.6949
X3.7677Y-2.7382
X3.8071Y-5.5512
X3.815Y-2.6634
X3.815Y-2.6949
X3.815Y-2.7382
X3.8306Y-4.4685
X3.8307Y-4.5315
X3.8307Y-4.3425
X3.8307Y-4.374
X3.8307Y-4.4055
X3.8307Y-4.437
X3.8307Y-4.5
X3.8819Y-5.1496
X3.9016Y-4.2077
X3.9173Y-4.1457
X3.9547Y-4.1457
X3.9685Y-4.9173
X3.9855Y-4.1614
X4.0236Y-3.874
X4.0472Y-5.5512
X4.0647Y-4.3521
X4.0787Y-5.5512
X4.1063Y-4.7638
X4.1102Y-4.0945
X4.1102Y-4.1496
X4.1102Y-4.2047
X4.1102Y-4.2598
X4.1102Y-5.5551
X4.1284Y-4.4985
X4.1526Y-4.8278
X4.1614Y-4.3543
X4.1654Y-4.0945
X4.1654Y-4.1496
X4.1654Y-4.2047
X4.1654Y-4.2598
X4.1654Y-4.5778
X4.1801Y-4.8474
X4.2205Y-4.0945
X4.2205Y-4.1496
X4.2205Y-4.2047
X4.2205Y-4.2598
X4.2756Y-4.0945
X4.2756Y-4.1496
X4.2756Y-4.2047
X4.2756Y-4.2598
X4.3189Y-4.4616
X4.378Y-4.0315
X4.3819Y-4.1614
X4.4031Y-4.0504
X4.4055Y-4.2402
X4.4055Y-4.3031
X4.4094Y-4.0827
X4.4094Y-4.122
X4.4222Y-3.9055
X4.4843Y-4.1063
X4.5079Y-4.7362
X4.5276Y-4.2205
X4.5315Y-4.3583
X4.5955Y-4.1719
X4.5998Y-3.9619
X4.6203Y-3.9859
X4.6416Y-4.0117
X4.6639Y-4.0339
X4.6732Y-4.4094
X4.7008Y-4.0984
X4.7835Y-4.7717
X4.8268Y-4.0551
X4.9685Y-4.9252
X4.9978Y-5.1274
X5.005Y-4.1923
X5.0424Y-4.2691
X5.0963Y-5.3302
X5.1041Y-5.0118
X5.378Y-5.3268
T2
X2.7185Y-2.6161
X2.7185Y-2.6594
X2.7185Y-2.7028
X2.7618Y-2.6161
X2.7618Y-2.6594
X2.7618Y-2.7028
X2.8051Y-2.6161
X2.8051Y-2.6594
X2.8051Y-2.7028
X2.8484Y-2.6161
X2.8484Y-2.6594
X2.8484Y-2.7028
X2.8917Y-2.6161
X2.8917Y-2.6594
X2.8917Y-2.7028
T3
X4.7513Y-2.8103
X4.8513Y-2.8103
X4.9513Y-2.8103
T4
X2.0453Y-5.0748
X2.1417Y-3.2598
X2.1457Y-2.3307
X2.1654Y-3.622
X2.2047Y-4.4331
X2.3031Y-2.126
X2.315Y-5.5906
X2.315Y-5.7598
X2.4134Y-2.7717
X2.4291Y-2.5571
X2.499Y-5.5
X2.6102Y-2.2638
X2.6457Y-3.9764
X2.6594Y-2.8563
X2.752Y-4.6457
X2.811Y-3.6496
X2.9567Y-3.4094
X3.0157Y-3.0197
X3.1339Y-4.2717
X3.1417Y-2.2598
X3.1575Y-3.8661
X3.1693Y-4.8169
X3.189Y-4.5079
X3.3445Y-5.1024
X3.3622Y-2.7008
X3.3878Y-5.5236
X3.4685Y-5.815
X3.563Y-4.4882
X3.6122Y-5.5807
X3.6693Y-2.9291
X3.7018Y-3.9518
X3.7756Y-3.6142
X3.7874Y-3.2795
X3.7953Y-2.3602
X3.8031Y-4.874
X3.8071Y-4.1811
X3.9094Y-5.626
X4.0394Y-3.7205
X4.0827Y-5.1181
X4.0906Y-5.3661
X4.1319Y-2.5433
X4.1417Y-5.8071
X4.1614Y-3.563
X4.2087Y-3.3819
X4.2756Y-2.7795
X4.3307Y-4.6024
X4.3622Y-3.563
X4.3898Y-3.7677
X4.5Y-3.7008
X4.6378Y-4.5906
X4.6811Y-3.378
X4.687Y-2.6535
X4.7323Y-3.6102
X4.748Y-5.7126
X4.8837Y-5.0113
X4.9055Y-2.1811
X4.9899Y-3.9065
X5.0Y-4.7283
X5.0039Y-5.4488
X5.0098Y-2.7008
X5.1378Y-3.1732
X5.1969Y-2.937
X5.2283Y-4.9921
X5.3031Y-2.9921
X5.4055Y-3.5197
X5.4488Y-2.1654
X5.4646Y-2.4843
X5.6791Y-4.3563
X5.6969Y-3.9409
X5.7343Y-4.7697
T5
X3.3189Y-3.2244
X3.3189Y-3.4114
X5.4094Y-5.4843
X5.4094Y-5.6811
X5.5669Y-2.6102
X5.5709Y-2.437
X5.748Y-2.437
X5.748Y-2.6102
X5.748Y-2.7598
X5.748Y-2.9094
X5.748Y-3.0512
X5.748Y-3.2244
T6
X3.574Y-5.7402
X4.0165Y-5.7402
T7
X2.4764Y-4.8504
X2.4812Y-5.25
X2.4911Y-3.1024
X2.4911Y-3.4094
X2.6929Y-4.8504
X2.6977Y-5.25
X2.7077Y-3.1024
X2.7077Y-3.4094
X4.3589Y-5.2137
X4.3589Y-5.4302
X4.5242Y-5.2137
X4.5242Y-5.4302
X5.0976Y-4.5328
X5.0976Y-4.6982
X5.3141Y-4.5328
X5.3141Y-4.6982
X5.3215Y-3.7704
X5.3215Y-3.9358
X5.3215Y-4.1011
T8
X3.574Y-5.8976
X4.0165Y-5.8976
M30
